SplineFontDB: 3.0
FontName: AdventPro-Bold
FullName: Advent Pro Bold
FamilyName: Advent Pro
Weight: Bold
Copyright: Copyright (c) 2008 Andreas Kalpakidis (hello@inderesting.com), with Reserved Font Name "Advent Pro"
Version: 001.001
ItalicAngle: 0
UnderlinePosition: -50
UnderlineWidth: 50
Ascent: 800
Descent: 200
sfntRevision: 0x00020083
LayerCount: 2
Layer: 0 1 "Back"  1
Layer: 1 1 "Fore"  0
NeedsXUIDChange: 1
XUID: [1021 288 713564382 916883]
FSType: 0
OS2Version: 2
OS2_WeightWidthSlopeOnly: 0
OS2_UseTypoMetrics: 1
CreationTime: 1322417998
ModificationTime: 1322447182
PfmFamily: 17
TTFWeight: 700
TTFWidth: 5
LineGap: 0
VLineGap: 0
Panose: 2 0 5 6 4 0 0 2 0 4
OS2TypoAscent: 162
OS2TypoAOffset: 1
OS2TypoDescent: -32
OS2TypoDOffset: 1
OS2TypoLinegap: 0
OS2WinAscent: 0
OS2WinAOffset: 1
OS2WinDescent: 0
OS2WinDOffset: 1
HheadAscent: 2
HheadAOffset: 1
HheadDescent: 0
HheadDOffset: 1
OS2SubXSize: 650
OS2SubYSize: 600
OS2SubXOff: 0
OS2SubYOff: 75
OS2SupXSize: 650
OS2SupYSize: 600
OS2SupXOff: 0
OS2SupYOff: 350
OS2StrikeYSize: 50
OS2StrikeYPos: 250
OS2Vendor: 'ADBE'
OS2CodePages: 0000009b.00000000
OS2UnicodeRanges: 800000af.1000204a.00000000.00000000
Lookup: 258 0 0 "'kern' Horizontal Kerning lookup 0"  {"'kern' Horizontal Kerning lookup 0 subtable"  } ['kern' ('DFLT' <'dflt' > 'grek' <'dflt' > 'latn' <'dflt' > ) ]
MarkAttachClasses: 1
DEI: 91125
TtTable: prep
PUSHW_1
 511
SCANCTRL
PUSHB_1
 4
SCANTYPE
EndTTInstrs
LangName: 1033 "" "" "" "AndreasKalpakidis: Advent Pro Bold: 2008" "AdventPro-Bold" "Version 2.002 2008" "" "Advent Pro Thin is a trademark of INDE Andreas Kalpakidis." "Andreas Kalpakidis" "Andreas Kalpakidis" "" "www.inderesting.com" "www.inderesting.com" "This Font Software is licensed under the SIL Open Font License, Version 1.1. This license is available with a FAQ at: http://scripts.sil.org/OFL" "http://scripts.sil.org/OFL" 
GaspTable: 1 65535 15
Encoding: UnicodeBmp
UnicodeInterp: none
NameList: Adobe Glyph List
DisplaySize: -36
AntiAlias: 1
FitToEm: 1

StartChar: .notdef
Encoding: 65536 -1 0
Width: 500
Flags: HMW
HStem: 0 650<50 450 50 500 0 450> 50 650<50 450 450 450>
VStem: 0 450<50 650 50 700 50 700> 50 450<50 650 50 50>
LayerCount: 2
Fore
SplineSet
500 0 m 1,0,-1
 0 0 l 1,1,-1
 0 700 l 1,2,-1
 500 700 l 1,3,-1
 500 0 l 1,0,-1
450 50 m 1,4,-1
 450 650 l 1,5,-1
 50 650 l 1,6,-1
 50 50 l 1,7,-1
 450 50 l 1,4,-1
425 133 m 1,8,-1
 386 101 l 1,9,-1
 250 305 l 1,10,-1
 113 100 l 1,11,-1
 73 129 l 1,12,-1
 220 350 l 1,13,-1
 73 571 l 1,14,-1
 113 600 l 1,15,-1
 250 395 l 1,16,-1
 386 599 l 1,17,-1
 425 567 l 1,18,-1
 280 350 l 1,19,-1
 425 133 l 1,8,-1
EndSplineSet
EndChar

StartChar: numbersign
Encoding: 35 35 4
Width: 613
Flags: HMW
HStem: 0 21G<59 165 59 59 284 396 284 284> 168 102<34 99 34 123 228 321 34 203 460 582> 357 112<34 144 34 171 34 248 275 367 508 582>
VStem: 34 548<168 270 168 270 357 469 168 469> 59 106<0 0> 224 105<700 700> 284 112<0 0> 448 114<700 700>
LayerCount: 2
Fore
SplineSet
582 168 m 1,0,-1
 436 168 l 1,1,-1
 396 0 l 1,2,-1
 284 0 l 1,3,-1
 321 168 l 1,4,-1
 203 168 l 1,5,-1
 165 0 l 1,6,-1
 59 0 l 1,7,-1
 99 168 l 1,8,-1
 34 168 l 1,9,-1
 34 270 l 1,10,-1
 123 270 l 1,11,-1
 144 357 l 1,12,-1
 34 357 l 1,13,-1
 34 469 l 1,14,-1
 171 469 l 1,15,-1
 224 700 l 1,16,-1
 329 700 l 1,17,-1
 275 469 l 1,18,-1
 394 469 l 1,19,-1
 448 700 l 1,20,-1
 562 700 l 1,21,-1
 508 469 l 1,22,-1
 582 469 l 1,23,-1
 582 357 l 1,24,-1
 480 357 l 1,25,-1
 460 270 l 1,26,-1
 582 270 l 1,27,-1
 582 168 l 1,0,-1
346 270 m 1,28,-1
 367 357 l 1,29,-1
 248 357 l 1,30,-1
 228 270 l 1,31,-1
 346 270 l 1,28,-1
EndSplineSet
EndChar

StartChar: dollar
Encoding: 36 36 5
Width: 540
Flags: HMW
HStem: -17 80 178 155 710 20G
VStem: 34 118<178 195> 51 119 52 58 215 110<-114 -7 -114 -6 -114 -6 107 297 475 589 589 589 708 817> 243 56 325 184<-114 258 105 258 145.5 258 145.5 297 145.5 423 145.5 593> 388 35 406 17 449 60
LayerCount: 2
Fore
SplineSet
325 -114 m 1,0,-1
 215 -114 l 1,1,-1
 215 -6 l 1,2,3
 131 8 131 8 83.5 61.5 c 128,-1,4
 36 115 36 115 34 178 c 1,5,-1
 152 195 l 1,6,7
 158 130 158 130 215 107 c 1,8,-1
 215 351 l 1,9,10
 177 367 177 367 153.5 380 c 128,-1,11
 130 393 130 393 103.5 414.5 c 128,-1,12
 77 436 77 436 64 466.5 c 128,-1,13
 51 497 51 497 51 537 c 0,14,15
 51 595 51 595 93 642.5 c 128,-1,16
 135 690 135 690 215 705 c 1,17,-1
 215 817 l 1,18,-1
 325 817 l 1,19,-1
 325 708 l 1,20,21
 373 703 373 703 423 680 c 1,22,-1
 417 662 l 2,23,24
 411 644 411 644 402 617 c 128,-1,25
 393 590 393 590 388 576 c 1,26,27
 349 588 349 588 325 593 c 1,28,-1
 325 423 l 1,29,30
 364 405 364 405 392 387 c 128,-1,31
 420 369 420 369 449 341.5 c 128,-1,32
 478 314 478 314 493.5 277 c 128,-1,33
 509 240 509 240 509 194 c 0,34,35
 509 116 509 116 463.5 61 c 128,-1,36
 418 6 418 6 325 -7 c 1,37,-1
 325 -114 l 1,0,-1
325 297 m 1,38,-1
 325 105 l 1,39,40
 357 117 357 117 372.5 139.5 c 128,-1,41
 388 162 388 162 388 184 c 0,42,43
 388 254 388 254 325 297 c 1,38,-1
215 475 m 1,44,-1
 215 589 l 1,45,46
 169.545454545 571.727272727 169.545454545 571.727272727 169.545454545 534.619834711 c 0,47,48
 169.545454545 530.909090909 169.545454545 530.909090909 170 527 c 0,49,50
 173 499 173 499 215 475 c 1,44,-1
EndSplineSet
EndChar

StartChar: percent
Encoding: 37 37 6
Width: 685
Flags: HMW
HStem: 69 64 99 34 308 55 548 35 583 35 654 55 711 20G
VStem: 154 35 189 35 343 106 466 34 500 34
LayerCount: 2
Fore
SplineSet
117 -1 m 1,0,-1
 34 69 l 1,1,-1
 565 745 l 1,2,-1
 654 679 l 1,3,-1
 117 -1 l 1,0,-1
500 -11 m 128,-1,5
 440 -11 440 -11 398 31 c 128,-1,6
 356 73 356 73 356 133 c 128,-1,7
 356 193 356 193 398 235 c 128,-1,8
 440 277 440 277 500 277 c 128,-1,9
 560 277 560 277 602 235 c 128,-1,10
 644 193 644 193 644 133 c 128,-1,11
 644 73 644 73 602 31 c 128,-1,4
 560 -11 560 -11 500 -11 c 128,-1,5
534 133 m 128,-1,13
 534 147 534 147 525 157 c 128,-1,14
 516 167 516 167 500 167 c 128,-1,15
 484 167 484 167 475 157 c 128,-1,16
 466 147 466 147 466 133 c 128,-1,17
 466 119 466 119 475 109 c 128,-1,18
 484 99 484 99 500 99 c 128,-1,19
 516 99 516 99 525 109 c 128,-1,12
 534 119 534 119 534 133 c 128,-1,13
189 439 m 128,-1,21
 129 439 129 439 87 481 c 128,-1,22
 45 523 45 523 45 583 c 128,-1,23
 45 643 45 643 87 685 c 128,-1,24
 129 727 129 727 189 727 c 128,-1,25
 249 727 249 727 291 685 c 128,-1,26
 333 643 333 643 333 583 c 128,-1,27
 333 523 333 523 291 481 c 128,-1,20
 249 439 249 439 189 439 c 128,-1,21
224 583 m 0,28,29
 224 596 224 596 214 607 c 128,-1,30
 204 618 204 618 189 618 c 128,-1,31
 174 618 174 618 164 607 c 128,-1,32
 154 596 154 596 154 583 c 0,33,34
 154 569 154 569 164 558.5 c 128,-1,35
 174 548 174 548 189 548 c 128,-1,36
 204 548 204 548 214 558.5 c 128,-1,37
 224 569 224 569 224 583 c 0,28,29
EndSplineSet
EndChar

StartChar: ampersand
Encoding: 38 38 7
Width: 560
Flags: HMW
HStem: -12 75 0 21G 383 21G
VStem: 36 188 244 78 432 97<183 389 389 609 389 484>
LayerCount: 2
Fore
SplineSet
498 76 m 1,0,-1
 482 -11 l 1,1,2
 479.692307692 -11.0769230769 479.692307692 -11.0769230769 477.340236686 -11.0769230769 c 0,3,4
 449.115384615 -11.0769230769 449.115384615 -11.0769230769 414.5 0 c 0,5,6
 377 12 377 12 350 42 c 1,7,8
 335 24 335 24 300 6.5 c 128,-1,9
 265 -11 265 -11 213 -11 c 0,10,11
 123 -11 123 -11 75.5 52.5 c 0,12,13
 34.8468468468 106.846846847 34.8468468468 106.846846847 34.8468468468 179.139680221 c 0,14,15
 34.8468468468 191.315315315 34.8468468468 191.315315315 36 204 c 0,16,17
 41 253 41 253 63 294 c 128,-1,18
 85 335 85 335 114 358.5 c 128,-1,19
 143 382 143 382 165 395 c 128,-1,20
 187 408 187 408 203 413 c 1,21,22
 169 428 169 428 148.5 466 c 128,-1,23
 128 504 128 504 128 550 c 0,24,25
 128 640 128 640 209 685.5 c 0,26,27
 256.55483871 712.212903226 256.55483871 712.212903226 307.556503642 712.212903226 c 0,28,29
 343.425806452 712.212903226 343.425806452 712.212903226 381 699 c 1,30,-1
 318 602 l 1,31,32
 311.023255814 606.651162791 311.023255814 606.651162791 301.558680368 606.651162791 c 0,33,34
 290.674418605 606.651162791 290.674418605 606.651162791 276.5 600.5 c 0,35,36
 250 589 250 589 244 561 c 0,37,38
 241.402597403 549.571428571 241.402597403 549.571428571 241.402597403 539.525889695 c 0,39,40
 241.402597403 510.896103896 241.402597403 510.896103896 262.5 493.5 c 0,41,42
 289.836734694 470.959183673 289.836734694 470.959183673 309.353186172 470.959183673 c 0,43,44
 310.183673469 470.959183673 310.183673469 470.959183673 311 471 c 2,45,-1
 322 472 l 1,46,-1
 322 595 l 1,47,-1
 432 609 l 1,48,-1
 432 484 l 1,49,-1
 505 500 l 1,50,-1
 529 389 l 1,51,-1
 432 370 l 1,52,-1
 432 183 l 2,53,54
 432 98 432 98 498 76 c 1,0,-1
322 223 m 2,55,-1
 322 345 l 1,56,57
 160 305 160 305 143 209 c 0,58,59
 140.866666667 197.266666667 140.866666667 197.266666667 140.866666667 186.386666667 c 0,60,61
 140.866666667 156.466666667 140.866666667 156.466666667 157 133 c 0,62,63
 179 101 179 101 224 101 c 0,64,65
 272 101 272 101 297 138.5 c 128,-1,66
 322 176 322 176 322 223 c 2,55,-1
EndSplineSet
EndChar

StartChar: quoteright
Encoding: 8217 8217 8
Width: 144
Flags: HMW
HStem: 456 50 603 111 608 111
VStem: 13 104 34 106<651.5 657 623 671.5>
LayerCount: 2
Fore
SplineSet
73 524 m 1,0,-1
 4 553 l 1,1,2
 25 565 25 565 43 578 c 128,-1,3
 61 591 61 591 68.5 598 c 2,4,-1
 76 605 l 1,5,-1
 64 608 l 1,6,7
 34 622 34 622 34 656 c 0,8,9
 34 679 34 679 50 694.5 c 0,10,11
 65.0303030303 709.060606061 65.0303030303 709.060606061 87.1202938476 709.060606061 c 0,12,13
 88.5454545455 709.060606061 88.5454545455 709.060606061 90 709 c 0,14,15
 116 708 116 708 128 688 c 128,-1,16
 140 668 140 668 140 646 c 0,17,18
 140 612 140 612 124.5 585 c 128,-1,19
 109 558 109 558 73 524 c 1,0,-1
EndSplineSet
EndChar

StartChar: parenleft
Encoding: 40 40 9
Width: 333
Flags: HMW
HStem: -198 21G -114 85 711 20G
VStem: 78 109<71 93 93 607>
LayerCount: 2
Fore
SplineSet
253 -35 m 1,0,-1
 198 -116 l 1,1,2
 135 -80 135 -80 106.5 -42 c 128,-1,3
 78 -4 78 -4 78 71 c 2,4,-1
 78 627 l 2,5,6
 78 702 78 702 107 742 c 128,-1,7
 136 782 136 782 197 817 c 1,8,-1
 252 730 l 1,9,10
 218 720 218 720 202.5 692 c 128,-1,11
 187 664 187 664 187 607 c 2,12,-1
 187 93 l 2,13,14
 187 74 187 74 188.5 58 c 128,-1,15
 190 42 190 42 192 31 c 128,-1,16
 194 20 194 20 199 10.5 c 128,-1,17
 204 1 204 1 206.5 -3.5 c 128,-1,18
 209 -8 209 -8 216.5 -14 c 128,-1,19
 224 -20 224 -20 227 -22 c 128,-1,20
 230 -24 230 -24 240 -28.5 c 128,-1,21
 250 -33 250 -33 253 -35 c 1,0,-1
EndSplineSet
EndChar

StartChar: parenright
Encoding: 41 41 10
Width: 333
Flags: HMW
HStem: -198 21G 711 20G
VStem: 186 56
LayerCount: 2
Fore
SplineSet
133 -116 m 1,0,-1
 78 -35 l 1,1,2
 81 -33 81 -33 91 -28.5 c 128,-1,3
 101 -24 101 -24 104 -22 c 128,-1,4
 107 -20 107 -20 114.5 -14 c 128,-1,5
 122 -8 122 -8 124.5 -3.5 c 128,-1,6
 127 1 127 1 132 10.5 c 128,-1,7
 137 20 137 20 139 31 c 128,-1,8
 141 42 141 42 142.5 58 c 128,-1,9
 144 74 144 74 144 93 c 2,10,-1
 144 607 l 2,11,12
 144 664 144 664 128.5 692 c 128,-1,13
 113 720 113 720 79 730 c 1,14,-1
 134 817 l 1,15,16
 195 782 195 782 224 742 c 128,-1,17
 253 702 253 702 253 627 c 2,18,-1
 253 71 l 2,19,20
 253 -4 253 -4 224.5 -42 c 128,-1,21
 196 -80 196 -80 133 -116 c 1,0,-1
EndSplineSet
EndChar

StartChar: asterisk
Encoding: 42 42 11
Width: 352
Flags: HMW
HStem: 694 20G
VStem: 115 120<700 700>
LayerCount: 2
Fore
SplineSet
314 465 m 1,0,-1
 212 396 l 1,1,-1
 175 515 l 1,2,-1
 136 396 l 1,3,-1
 38 467 l 1,4,-1
 130 541 l 1,5,-1
 13 551 l 1,6,-1
 52 654 l 1,7,-1
 148 587 l 1,8,-1
 115 700 l 1,9,-1
 235 700 l 1,10,-1
 201 587 l 1,11,-1
 295 656 l 1,12,-1
 340 550 l 1,13,-1
 219 540 l 1,14,-1
 314 465 l 1,0,-1
EndSplineSet
EndChar

StartChar: plus
Encoding: 43 43 12
Width: 385
Flags: HMW
HStem: 0 21G 112 321
VStem: 34 320<308 413 308 413> 138 112<195 308 413 545>
LayerCount: 2
Fore
SplineSet
250 195 m 1,0,-1
 138 195 l 1,1,-1
 138 308 l 1,2,-1
 34 308 l 1,3,-1
 34 413 l 1,4,-1
 138 413 l 1,5,-1
 138 545 l 1,6,-1
 250 545 l 1,7,-1
 250 413 l 1,8,-1
 354 413 l 1,9,-1
 354 308 l 1,10,-1
 250 308 l 1,11,-1
 250 195 l 1,0,-1
EndSplineSet
EndChar

StartChar: comma
Encoding: 44 44 13
Width: 178
Flags: HMW
HStem: 0 111
VStem: 31 106<43.5 49 15 63.5>
LayerCount: 2
Fore
SplineSet
70 -84 m 1,0,-1
 1 -55 l 1,1,2
 22 -43 22 -43 40 -30 c 128,-1,3
 58 -17 58 -17 65.5 -10 c 2,4,-1
 73 -3 l 1,5,-1
 61 0 l 1,6,7
 31 14 31 14 31 48 c 0,8,9
 31 71 31 71 47 86.5 c 0,10,11
 62.0303030303 101.060606061 62.0303030303 101.060606061 84.1202938476 101.060606061 c 0,12,13
 85.5454545455 101.060606061 85.5454545455 101.060606061 87 101 c 0,14,15
 113 100 113 100 125 80 c 128,-1,16
 137 60 137 60 137 38 c 0,17,18
 137 4 137 4 121.5 -23 c 128,-1,19
 106 -50 106 -50 70 -84 c 1,0,-1
EndSplineSet
EndChar

StartChar: hyphen
Encoding: 45 45 14
Width: 410
Flags: HMW
HStem: 238 80
VStem: 45 320<308 413 308 413>
LayerCount: 2
Fore
SplineSet
365 308 m 1,0,-1
 45 308 l 1,1,-1
 45 413 l 1,2,-1
 365 413 l 1,3,-1
 365 308 l 1,0,-1
EndSplineSet
EndChar

StartChar: period
Encoding: 46 46 15
Width: 143
Flags: HMW
HStem: 0 111
VStem: 1 101<36.5 64>
LayerCount: 2
Fore
SplineSet
102 50 m 0,0,1
 102 30 102 30 87 15 c 128,-1,2
 72 0 72 0 51 0 c 0,3,4
 31 0 31 0 16 15 c 128,-1,5
 1 30 1 30 1 50 c 0,6,7
 1 71 1 71 16 86 c 128,-1,8
 31 101 31 101 51 101 c 0,9,10
 72 101 72 101 87 86 c 128,-1,11
 102 71 102 71 102 50 c 0,0,1
EndSplineSet
EndChar

StartChar: slash
Encoding: 47 47 16
Width: 469
Flags: HMW
HStem: 711 20G
VStem: -27 456
LayerCount: 2
Fore
SplineSet
130 -114 m 1,0,-1
 13 -114 l 1,1,-1
 337 817 l 1,2,-1
 457 817 l 1,3,-1
 130 -114 l 1,0,-1
EndSplineSet
EndChar

StartChar: zero
Encoding: 48 48 17
Width: 549
Flags: HMW
HStem: -12 75 597 119<229 317.5> 634 75
VStem: 63 110<185 204 204 471> 66 53 364 53 370 113 373 110<206 470 470 506>
LayerCount: 2
Fore
SplineSet
483 506 m 2,0,-1
 483 185 l 2,1,2
 483 84 483 84 421.5 36.5 c 128,-1,3
 360 -11 360 -11 274 -11 c 128,-1,4
 188 -11 188 -11 125.5 36.5 c 128,-1,5
 63 84 63 84 63 185 c 2,6,-1
 63 507 l 2,7,8
 63 610 63 610 119.5 663 c 128,-1,9
 176 716 176 716 275 716 c 128,-1,10
 374 716 374 716 428.5 660 c 128,-1,11
 483 604 483 604 483 506 c 2,0,-1
373 206 m 2,12,-1
 373 470 l 2,13,14
 373 534 373 534 353.5 565.5 c 128,-1,15
 334 597 334 597 273 597 c 128,-1,16
 212 597 212 597 192.5 566.5 c 128,-1,17
 173 536 173 536 173 471 c 2,18,-1
 173 204 l 2,19,20
 173 156 173 156 197.5 128.5 c 128,-1,21
 222 101 222 101 273 101 c 0,22,23
 320 101 320 101 346.5 130 c 128,-1,24
 373 159 373 159 373 206 c 2,12,-1
EndSplineSet
EndChar

StartChar: one
Encoding: 49 49 18
Width: 249
Flags: HMW
HStem: 0 21G<126 237 126 126> 508 68
VStem: 127 110<547 547>
LayerCount: 2
Fore
SplineSet
237 0 m 1,0,-1
 126 0 l 1,1,-1
 127 547 l 1,2,3
 116 542 116 542 95.5 538.5 c 128,-1,4
 75 535 75 535 60 533.5 c 2,5,-1
 45 532 l 1,6,-1
 13 628 l 1,7,8
 20 629 20 629 32.5 632 c 128,-1,9
 45 635 45 635 75 653.5 c 128,-1,10
 105 672 105 672 127 700 c 1,11,-1
 237 700 l 1,12,-1
 237 0 l 1,0,-1
EndSplineSet
EndChar

StartChar: two
Encoding: 50 50 19
Width: 400
Flags: HMW
HStem: 0 75 634 75
VStem: 13 128<0 101 101 101> 306 62
LayerCount: 2
Fore
SplineSet
388 0 m 1,0,-1
 13 0 l 1,1,-1
 13 101 l 1,2,-1
 243 438 l 1,3,4
 276.322834646 491.606299213 276.322834646 491.606299213 276.322834646 529.994295989 c 0,5,6
 276.322834646 544.598425197 276.322834646 544.598425197 271.5 557 c 0,7,8
 254 602 254 602 198 602 c 0,9,10
 171 602 171 602 150 582.5 c 128,-1,11
 129 563 129 563 127 538 c 1,12,-1
 30 590 l 1,13,14
 48 641 48 641 96 675.5 c 128,-1,15
 144 710 144 710 207 710 c 0,16,17
 263 710 263 710 306 683 c 128,-1,18
 349 656 349 656 369 613.5 c 0,19,20
 384.384615385 580.807692308 384.384615385 580.807692308 384.384615385 539.831360947 c 0,21,22
 384.384615385 527.538461538 384.384615385 527.538461538 383 514.5 c 0,23,24
 377 458 377 458 340 402 c 2,25,-1
 141 101 l 1,26,-1
 388 101 l 1,27,-1
 388 0 l 1,0,-1
EndSplineSet
EndChar

StartChar: three
Encoding: 51 51 20
Width: 415
Flags: HMW
HStem: -12 75 634 75
VStem: 13 68 86 199 293 110<174 237.5>
LayerCount: 2
Fore
SplineSet
13 83 m 1,0,-1
 81 161 l 1,1,2
 95 132 95 132 125 113.5 c 128,-1,3
 155 95 155 95 188 95 c 0,4,5
 238 95 238 95 265.5 126 c 128,-1,6
 293 157 293 157 293 201 c 0,7,8
 293 301 293 301 148 308 c 1,9,-1
 38 308 l 1,10,-1
 226 590 l 1,11,-1
 56 590 l 1,12,-1
 56 700 l 1,13,-1
 344 700 l 1,14,-1
 344 590 l 1,15,-1
 227 413 l 1,16,-1
 232 412 l 2,17,18
 300 398 300 398 351.5 341 c 128,-1,19
 403 284 403 284 403 201 c 0,20,21
 403 112 403 112 340.5 50 c 128,-1,22
 278 -12 278 -12 190 -12 c 0,23,24
 136 -12 136 -12 89 13.5 c 128,-1,25
 42 39 42 39 13 83 c 1,0,-1
EndSplineSet
EndChar

StartChar: four
Encoding: 52 52 21
Width: 518
Flags: HMW
HStem: 0 21G<328 437 328 328> 166 75
VStem: 328 109<0 308 413 700>
LayerCount: 2
Fore
SplineSet
437 0 m 1,0,-1
 328 0 l 1,1,-1
 328 308 l 1,2,-1
 13 308 l 1,3,-1
 206 700 l 1,4,-1
 318 700 l 1,5,-1
 191 413 l 1,6,-1
 328 413 l 1,7,-1
 328 700 l 1,8,-1
 437 700 l 1,9,-1
 437 413 l 1,10,-1
 506 413 l 1,11,-1
 487 308 l 1,12,-1
 437 308 l 1,13,-1
 437 0 l 1,0,-1
EndSplineSet
EndChar

StartChar: five
Encoding: 53 53 22
Width: 415
Flags: HMW
HStem: -12 75 392 75 622 75
VStem: 13 68 293 110<175.5 235>
LayerCount: 2
Fore
SplineSet
13 83 m 1,0,-1
 81 162 l 1,1,2
 106 128 106 128 129.5 112.5 c 128,-1,3
 153 97 153 97 190 97 c 0,4,5
 244 97 244 97 268.5 127 c 128,-1,6
 293 157 293 157 293 201 c 0,7,8
 293 251 293 251 254 279.5 c 128,-1,9
 215 308 215 308 149 308 c 2,10,-1
 38 308 l 1,11,-1
 81 700 l 1,12,-1
 347 700 l 1,13,-1
 347 589 l 1,14,-1
 184 589 l 1,15,-1
 165 413 l 1,16,-1
 190 413 l 2,17,18
 279 413 279 413 341 351 c 128,-1,19
 403 289 403 289 403 201 c 0,20,21
 403 112 403 112 340.5 50 c 128,-1,22
 278 -12 278 -12 190 -12 c 0,23,24
 136 -12 136 -12 89 13.5 c 128,-1,25
 42 39 42 39 13 83 c 1,0,-1
EndSplineSet
EndChar

StartChar: six
Encoding: 54 54 23
Width: 450
Flags: HMW
HStem: -12 213<13 284>
VStem: 13 111<387 440 387 461 387 509> 225 67 225 213
LayerCount: 2
Fore
SplineSet
13 201 m 2,0,-1
 13 461 l 2,1,2
 13 501 13 501 25 539.5 c 128,-1,3
 37 578 37 578 63.5 615.5 c 128,-1,4
 90 653 90 653 140 676.5 c 128,-1,5
 190 700 190 700 257 700 c 2,6,-1
 292 700 l 1,7,-1
 292 590 l 1,8,-1
 266 590 l 2,9,10
 236 590 236 590 214.5 585 c 128,-1,11
 193 580 193 580 170.5 566 c 128,-1,12
 148 552 148 552 136 520 c 128,-1,13
 124 488 124 488 124 440 c 2,14,-1
 124 387 l 1,15,16
 141 397 141 397 172 405 c 128,-1,17
 203 413 203 413 225 413 c 0,18,19
 314 413 314 413 376 351 c 128,-1,20
 438 289 438 289 438 201 c 0,21,22
 438 112 438 112 376 50 c 128,-1,23
 314 -12 314 -12 225 -12 c 0,24,25
 137 -12 137 -12 75 50 c 128,-1,26
 13 112 13 112 13 201 c 2,0,-1
122 205 m 2,27,-1
 122 201 l 2,28,29
 122 158 122 158 152 127.5 c 128,-1,30
 182 97 182 97 225 97 c 128,-1,31
 268 97 268 97 298 127.5 c 128,-1,32
 328 158 328 158 328 201 c 128,-1,33
 328 244 328 244 298 273.5 c 128,-1,34
 268 303 268 303 225 303 c 0,35,36
 183 303 183 303 152.5 274.5 c 128,-1,37
 122 246 122 246 122 205 c 2,27,-1
EndSplineSet
EndChar

StartChar: seven
Encoding: 55 55 24
Width: 438
Flags: HMW
HStem: 0 21G<13 134 13 13> 590 110<32 303 32 426 32 426>
VStem: 32 394<590 700 590 700>
LayerCount: 2
Fore
SplineSet
134 0 m 1,0,-1
 13 0 l 1,1,-1
 303 590 l 1,2,-1
 32 590 l 1,3,-1
 32 700 l 1,4,-1
 426 700 l 1,5,-1
 426 590 l 1,6,-1
 134 0 l 1,0,-1
EndSplineSet
EndChar

StartChar: eight
Encoding: 56 56 25
Width: 451
Flags: HMW
HStem: -12 75 306 162<206 243.5 206 256.5> 381 21G 634 75
VStem: 13 316<172 229.5 172 242> 52 71 224 179 227 212
LayerCount: 2
Fore
SplineSet
329 201 m 0,0,1
 329 245 329 245 300 275.5 c 128,-1,2
 271 306 271 306 224 306 c 0,3,4
 182 306 182 306 152.5 275 c 128,-1,5
 123 244 123 244 123 201 c 128,-1,6
 123 158 123 158 152.5 128 c 128,-1,7
 182 98 182 98 226 98 c 128,-1,8
 270 98 270 98 299.5 128 c 128,-1,9
 329 158 329 158 329 201 c 0,0,1
326 388 m 1,10,11
 377 360 377 360 408 310.5 c 128,-1,12
 439 261 439 261 439 201 c 0,13,14
 439 112 439 112 376.5 50 c 128,-1,15
 314 -12 314 -12 226 -12 c 128,-1,16
 138 -12 138 -12 75.5 50 c 128,-1,17
 13 112 13 112 13 201 c 0,18,19
 13 262 13 262 44 312 c 128,-1,20
 75 362 75 362 127 389 c 1,21,22
 52 440 52 440 52 533 c 0,23,24
 52 606 52 606 103 657.5 c 128,-1,25
 154 709 154 709 227 709 c 128,-1,26
 300 709 300 709 351.5 657.5 c 128,-1,27
 403 606 403 606 403 533 c 0,28,29
 403 439 403 439 326 388 c 1,10,11
224 468 m 0,30,31
 253 468 253 468 273 487 c 128,-1,32
 293 506 293 506 293 533 c 0,33,34
 293 561 293 561 273.5 581 c 128,-1,35
 254 601 254 601 227 601 c 0,36,37
 199 601 199 601 179 581 c 128,-1,38
 159 561 159 561 159 533 c 0,39,40
 159 507 159 507 178 487.5 c 128,-1,41
 197 468 197 468 224 468 c 0,30,31
EndSplineSet
EndChar

StartChar: nine
Encoding: 57 57 26
Width: 450
Flags: HMW
HStem: -12 75 241 75 634 75
VStem: 13 213 159 67 329 109<263 316 316 316 470 497>
LayerCount: 2
Fore
SplineSet
194 0 m 2,0,-1
 159 0 l 1,1,-1
 159 101 l 1,2,-1
 198 101 l 2,3,4
 262 101 262 101 295.5 145.5 c 128,-1,5
 329 190 329 190 329 263 c 2,6,-1
 329 316 l 1,7,8
 328 316 328 316 320 310.5 c 128,-1,9
 312 305 312 305 309.5 303.5 c 128,-1,10
 307 302 307 302 299 298 c 128,-1,11
 291 294 291 294 285.5 292.5 c 128,-1,12
 280 291 280 291 270.5 289 c 128,-1,13
 261 287 261 287 250 286 c 128,-1,14
 239 285 239 285 226 285 c 0,15,16
 137 285 137 285 75 347 c 128,-1,17
 13 409 13 409 13 497 c 0,18,19
 13 586 13 586 75.5 648 c 128,-1,20
 138 710 138 710 226 710 c 128,-1,21
 314 710 314 710 376 648 c 128,-1,22
 438 586 438 586 438 497 c 2,23,-1
 438 239 l 2,24,25
 438 199 438 199 426 160.5 c 128,-1,26
 414 122 414 122 387.5 84.5 c 128,-1,27
 361 47 361 47 311 23.5 c 128,-1,28
 261 0 261 0 194 0 c 2,0,-1
226 395 m 128,-1,30
 268 395 268 395 298.5 425.5 c 128,-1,31
 329 456 329 456 329 501 c 0,32,33
 329 541 329 541 298 571 c 128,-1,34
 267 601 267 601 226 601 c 0,35,36
 184 601 184 601 153.5 570 c 128,-1,37
 123 539 123 539 123 497 c 128,-1,38
 123 455 123 455 153.5 425 c 128,-1,29
 184 395 184 395 226 395 c 128,-1,30
EndSplineSet
EndChar

StartChar: colon
Encoding: 58 58 27
Width: 136
Flags: HMW
HStem: 0 111 406 111
VStem: 15 108<349.5 378.5> 19 100
LayerCount: 2
Fore
SplineSet
69 310 m 128,-1,1
 47 310 47 310 31 326 c 128,-1,2
 15 342 15 342 15 364 c 128,-1,3
 15 386 15 386 31 402 c 128,-1,4
 47 418 47 418 69 418 c 128,-1,5
 91 418 91 418 107 402 c 128,-1,6
 123 386 123 386 123 364 c 128,-1,7
 123 342 123 342 107 326 c 128,-1,0
 91 310 91 310 69 310 c 128,-1,1
124 165 m 128,-1,9
 124 142 124 142 107.5 126 c 128,-1,10
 91 110 91 110 68 110 c 0,11,12
 46 110 46 110 29.5 126 c 128,-1,13
 13 142 13 142 13 165 c 128,-1,14
 13 188 13 188 29 204.5 c 128,-1,15
 45 221 45 221 68 221 c 128,-1,16
 91 221 91 221 107.5 204.5 c 128,-1,8
 124 188 124 188 124 165 c 128,-1,9
EndSplineSet
EndChar

StartChar: semicolon
Encoding: 59 59 28
Width: 161
Flags: HMW
HStem: 0 111 406 111
VStem: 44 104<240.5 269.5>
LayerCount: 2
Fore
SplineSet
96 203 m 128,-1,1
 74 203 74 203 59 218 c 128,-1,2
 44 233 44 233 44 255 c 128,-1,3
 44 277 44 277 59 292 c 128,-1,4
 74 307 74 307 96 307 c 128,-1,5
 118 307 118 307 133 292 c 128,-1,6
 148 277 148 277 148 255 c 128,-1,7
 148 233 148 233 133 218 c 128,-1,0
 118 203 118 203 96 203 c 128,-1,1
82 -84 m 1,8,-1
 13 -55 l 1,9,10
 34 -43 34 -43 52 -30 c 128,-1,11
 70 -17 70 -17 77.5 -10 c 2,12,-1
 85 -3 l 1,13,-1
 73 0 l 1,14,15
 43 14 43 14 43 48 c 0,16,17
 43 71 43 71 59 86.5 c 0,18,19
 74.0303030303 101.060606061 74.0303030303 101.060606061 96.1202938476 101.060606061 c 0,20,21
 97.5454545455 101.060606061 97.5454545455 101.060606061 99 101 c 0,22,23
 125 100 125 100 137 80 c 128,-1,24
 149 60 149 60 149 38 c 0,25,26
 149 4 149 4 133.5 -23 c 128,-1,27
 118 -50 118 -50 82 -84 c 1,8,-1
EndSplineSet
EndChar

StartChar: less
Encoding: 60 60 29
Width: 377
Flags: HMW
HStem: -8 21G
VStem: 13 352<358 567 359 567>
LayerCount: 2
Fore
SplineSet
363 146 m 1,0,-1
 291 80 l 1,1,-1
 13 358 l 1,2,-1
 13 359 l 1,3,-1
 291 637 l 1,4,-1
 365 567 l 1,5,-1
 154 358 l 1,6,-1
 363 146 l 1,0,-1
EndSplineSet
EndChar

StartChar: equal
Encoding: 61 61 30
Width: 345
Flags: HMW
HStem: 134 80 287 80
VStem: 13 320<204 309 204 309 357 462 204 462>
LayerCount: 2
Fore
SplineSet
333 357 m 1,0,-1
 13 357 l 1,1,-1
 13 462 l 1,2,-1
 333 462 l 1,3,-1
 333 357 l 1,0,-1
333 204 m 1,4,-1
 13 204 l 1,5,-1
 13 309 l 1,6,-1
 333 309 l 1,7,-1
 333 204 l 1,4,-1
EndSplineSet
EndChar

StartChar: greater
Encoding: 62 62 31
Width: 377
Flags: HMW
HStem: -8 21G
VStem: -41 313 13 352<358 567>
LayerCount: 2
Fore
SplineSet
87 80 m 1,0,-1
 15 146 l 1,1,-1
 224 358 l 1,2,-1
 13 567 l 1,3,-1
 87 637 l 1,4,-1
 365 359 l 1,5,-1
 365 358 l 1,6,-1
 87 80 l 1,0,-1
EndSplineSet
EndChar

StartChar: question
Encoding: 63 63 32
Width: 395
Flags: HMW
HStem: 101 18<164.5 192> 656 75
VStem: 13 112<532 552> 125 109<119 144.5 144.5 182 119 212 119 277.5> 309 59
LayerCount: 2
Fore
SplineSet
234 119 m 1,0,-1
 125 119 l 1,1,-1
 125 212 l 2,2,3
 125 258 125 258 139.5 298.5 c 128,-1,4
 154 339 154 339 171 362 c 128,-1,5
 188 385 188 385 213.5 416.5 c 128,-1,6
 239 448 239 448 250 465 c 0,7,8
 270.833333333 499.166666667 270.833333333 499.166666667 270.833333333 526.041666667 c 0,9,10
 270.833333333 531.416666667 270.833333333 531.416666667 270 536.5 c 0,11,12
 265 567 265 567 245 585.5 c 128,-1,13
 225 604 225 604 202 604 c 0,14,15
 163 604 163 604 144 584 c 128,-1,16
 125 564 125 564 125 532 c 1,17,-1
 13 532 l 1,18,19
 13 607 13 607 59.5 658 c 128,-1,20
 106 709 106 709 191 709 c 0,21,22
 243 709 243 709 287.5 682 c 128,-1,23
 332 655 332 655 357 614 c 0,24,25
 381.509803922 573.803921569 381.509803922 573.803921569 381.509803922 522.073817762 c 0,26,27
 381.509803922 467.741532977 381.509803922 467.741532977 348 419 c 0,28,29
 330 393 330 393 304 365 c 128,-1,30
 278 337 278 337 266 322 c 128,-1,31
 254 307 254 307 244.5 272 c 128,-1,32
 235 237 235 237 234 182 c 1,33,-1
 234 119 l 1,0,-1
229 50 m 0,34,35
 229 30 229 30 214 15 c 128,-1,36
 199 0 199 0 178 0 c 0,37,38
 158 0 158 0 143 15 c 128,-1,39
 128 30 128 30 128 50 c 0,40,41
 128 71 128 71 143 86 c 128,-1,42
 158 101 158 101 178 101 c 0,43,44
 199 101 199 101 214 86 c 128,-1,45
 229 71 229 71 229 50 c 0,34,35
EndSplineSet
EndChar

StartChar: at
Encoding: 64 64 33
Width: 769
Flags: HMW
HStem: -17 55 131 68 133 55 505 68 676 55
VStem: 46 68 189 75 460 87 689 68
LayerCount: 2
Fore
SplineSet
610 162 m 2,0,-1
 609 333 l 2,1,2
 609 361 609 361 610 376 c 128,-1,3
 611 391 611 391 616.5 416 c 128,-1,4
 622 441 622 441 633.5 455.5 c 128,-1,5
 645 470 645 470 667.5 484.5 c 128,-1,6
 690 499 690 499 723 505 c 1,7,-1
 757 415 l 1,8,9
 737 408 737 408 727 393.5 c 128,-1,10
 717 379 717 379 715.5 368 c 128,-1,11
 714 357 714 357 714 336 c 2,12,-1
 714 178 l 2,13,14
 714 114 714 114 688.5 65 c 128,-1,15
 663 16 663 16 624.5 -13 c 128,-1,16
 586 -42 586 -42 534.5 -60.5 c 128,-1,17
 483 -79 483 -79 436.5 -85.5 c 128,-1,18
 390 -92 390 -92 343 -92 c 0,19,20
 200 -92 200 -92 106.5 -19 c 128,-1,21
 13 54 13 54 13 183 c 2,22,-1
 13 342 l 2,23,24
 13 451 13 451 76.5 514.5 c 128,-1,25
 140 578 140 578 229 595 c 1,26,27
 264.512195122 603.243902439 264.512195122 603.243902439 300.225461035 603.243902439 c 0,28,29
 320.829268293 603.243902439 320.829268293 603.243902439 341.5 600.5 c 0,30,31
 398 593 398 593 444 572.5 c 128,-1,32
 490 552 490 552 518.5 506.5 c 128,-1,33
 547 461 547 461 547 399 c 1,34,-1
 584 384 l 1,35,-1
 584 279 l 1,36,-1
 547 294 l 1,37,-1
 547 91 l 1,38,39
 500 76 500 76 460 67 c 128,-1,40
 420 58 420 58 375 53 c 0,41,42
 354.545454545 50.7272727273 354.545454545 50.7272727273 336.157024793 50.7272727273 c 0,43,44
 314.090909091 50.7272727273 314.090909091 50.7272727273 295 54 c 0,45,46
 260 60 260 60 230 75.5 c 128,-1,47
 200 91 200 91 182.5 123.5 c 128,-1,48
 165 156 165 156 162 204 c 1,49,-1
 162 305 l 2,50,51
 162 416 162 416 250 449 c 1,52,53
 276.303030303 460.878787879 276.303030303 460.878787879 309.805325987 460.878787879 c 0,54,55
 315.787878788 460.878787879 315.787878788 460.878787879 322 460.5 c 0,56,57
 363 458 363 458 389 452 c 128,-1,58
 415 446 415 446 437 438 c 1,59,60
 432 471 432 471 401.5 487.5 c 128,-1,61
 371 504 371 504 338 505 c 0,62,63
 331.810526316 505.189473684 331.810526316 505.189473684 325.76066482 505.189473684 c 0,64,65
 236.021052632 505.189473684 236.021052632 505.189473684 177 463.5 c 0,66,67
 114 419 114 419 114 330 c 2,68,-1
 114 190 l 2,69,70
 114 137 114 137 135.5 99 c 128,-1,71
 157 61 157 61 193 42 c 128,-1,72
 229 23 229 23 267.5 14.5 c 128,-1,73
 306 6 306 6 349 6 c 0,74,75
 394 6 394 6 437.5 14.5 c 128,-1,76
 481 23 481 23 521 40 c 128,-1,77
 561 57 561 57 585.5 89 c 128,-1,78
 610 121 610 121 610 162 c 2,0,-1
437 167 m 1,79,-1
 437 331 l 1,80,81
 411 344 411 344 382 351.5 c 0,82,83
 356.411764706 358.117647059 356.411764706 358.117647059 332.380622837 358.117647059 c 0,84,85
 329.176470588 358.117647059 329.176470588 358.117647059 326 358 c 0,86,87
 299 357 299 357 281.5 341.5 c 128,-1,88
 264 326 264 326 264 296 c 2,89,-1
 264 241 l 2,90,91
 264 224 264 224 265.5 211.5 c 128,-1,92
 267 199 267 199 276.5 181.5 c 128,-1,93
 286 164 286 164 303 156 c 0,94,95
 317.315789474 149.263157895 317.315789474 149.263157895 344.041551247 149.263157895 c 0,96,97
 349.052631579 149.263157895 349.052631579 149.263157895 354.5 149.5 c 0,98,99
 389 151 389 151 437 167 c 1,79,-1
EndSplineSet
EndChar

StartChar: A
Encoding: 65 65 34
Width: 527
Flags: HMW
HStem: 0 21G<21 145 21 21 386 517 386 386> 280 20G<210 319 319 319>
VStem: 145 241<0 0>
LayerCount: 2
Fore
SplineSet
517 0 m 1,0,-1
 386 0 l 1,1,-1
 345 183 l 1,2,-1
 184 183 l 1,3,-1
 145 0 l 1,4,-1
 21 0 l 1,5,-1
 185 700 l 1,6,-1
 340 700 l 1,7,-1
 517 0 l 1,0,-1
319 300 m 1,8,-1
 262 516 l 1,9,-1
 210 300 l 1,10,-1
 319 300 l 1,8,-1
EndSplineSet
EndChar

StartChar: B
Encoding: 66 66 35
Width: 550
Flags: HMW
HStem: 101 0<188 188 249 249> 413 0<188 188 236 236> 647 67
VStem: 78 110<101 101 101 307 413 590> 188 287<101 582.5 413 582.5 503.5 582.5 503.5 590> 188 323<101 254 157.5 254 157.5 307 157.5 413 157.5 590>
LayerCount: 2
Fore
SplineSet
297 0 m 2,0,-1
 78 0 l 1,1,-1
 78 700 l 1,2,-1
 282 700 l 2,3,4
 365 700 365 700 420 654 c 128,-1,5
 475 608 475 608 475 523 c 0,6,7
 475 429 475 429 409 384 c 0,8,9
 408 383 408 383 408 382 c 2,10,-1
 408 381 l 1,11,12
 452 361 452 361 481.5 317 c 128,-1,13
 511 273 511 273 511 205 c 0,14,15
 511 167 511 167 500 132.5 c 128,-1,16
 489 98 489 98 465 67.5 c 128,-1,17
 441 37 441 37 398 18.5 c 128,-1,18
 355 0 355 0 297 0 c 2,0,-1
188 413 m 1,19,-1
 236 413 l 2,20,21
 293 413 293 413 320 434 c 128,-1,22
 347 455 347 455 347 506 c 0,23,24
 347 553 347 553 322 571.5 c 128,-1,25
 297 590 297 590 246 590 c 2,26,-1
 188 590 l 1,27,-1
 188 413 l 1,19,-1
188 101 m 1,28,-1
 249 101 l 2,29,30
 318 101 318 101 351.5 121.5 c 128,-1,31
 385 142 385 142 385 207 c 0,32,33
 385 307 385 307 258 307 c 2,34,-1
 188 307 l 1,35,-1
 188 101 l 1,28,-1
EndSplineSet
EndChar

StartChar: C
Encoding: 67 67 36
Width: 430
Flags: HMW
HStem: -12 52 659 51
VStem: 66 110<183 185 185 504 504 513>
LayerCount: 2
Fore
SplineSet
410 127 m 1,0,-1
 427 23 l 1,1,2
 378 4 378 4 329 -4.5 c 0,3,4
 296.961538462 -10.0576923077 296.961538462 -10.0576923077 265.350591716 -10.0576923077 c 0,5,6
 248.615384615 -10.0576923077 248.615384615 -10.0576923077 232 -8.5 c 0,7,8
 184 -4 184 -4 147.5 15.5 c 128,-1,9
 111 35 111 35 88.5 77.5 c 128,-1,10
 66 120 66 120 66 183 c 2,11,-1
 66 504 l 2,12,13
 66 580 66 580 87.5 619 c 128,-1,14
 109 658 109 658 153 685 c 1,15,16
 198.161290323 710.290322581 198.161290323 710.290322581 259.638917794 710.290322581 c 0,17,18
 266.225806452 710.290322581 266.225806452 710.290322581 273 710 c 0,19,20
 343 707 343 707 402 677 c 1,21,-1
 371 577 l 1,22,23
 325 594 325 594 270 594 c 0,24,25
 228 594 228 594 202 571 c 128,-1,26
 176 548 176 548 176 513 c 2,27,-1
 176 185 l 2,28,29
 176 167 176 167 180 152.5 c 128,-1,30
 184 138 184 138 193 129 c 128,-1,31
 202 120 202 120 211 113 c 128,-1,32
 220 106 220 106 236 104 c 128,-1,33
 252 102 252 102 263 100.5 c 128,-1,34
 274 99 274 99 293.5 102 c 128,-1,35
 313 105 313 105 324 106.5 c 128,-1,36
 335 108 335 108 355.5 113 c 128,-1,37
 376 118 376 118 384 120 c 128,-1,38
 392 122 392 122 410 127 c 1,0,-1
EndSplineSet
EndChar

StartChar: D
Encoding: 68 68 37
Width: 576
Flags: HMW
HStem: 0 590<188 276 188 286 78 276> 101 600<188 266 266 270 270 297>
VStem: 78 310<190 484 484 521 190 701 190 701> 270 228<101 200>
LayerCount: 2
Fore
SplineSet
286 0 m 2,0,-1
 78 0 l 1,1,-1
 78 701 l 1,2,-1
 266 701 l 2,3,4
 379 701 379 701 438.5 639 c 128,-1,5
 498 577 498 577 498 474 c 2,6,-1
 498 200 l 2,7,8
 498 0 498 0 286 0 c 2,0,-1
388 190 m 2,9,-1
 388 484 l 2,10,11
 388 539 388 539 360.5 564.5 c 128,-1,12
 333 590 333 590 276 590 c 2,13,-1
 188 590 l 1,14,-1
 188 101 l 1,15,-1
 270 101 l 2,16,17
 295 101 295 101 312 103.5 c 128,-1,18
 329 106 329 106 348.5 114 c 128,-1,19
 368 122 368 122 378 141 c 128,-1,20
 388 160 388 160 388 190 c 2,9,-1
EndSplineSet
EndChar

StartChar: E
Encoding: 69 69 38
Width: 465
Flags: HMW
HStem: 0 100<188 410 188 410> 590 110<188 412 188 188>
VStem: 78 110<100 308 413 590>
LayerCount: 2
Fore
SplineSet
410 0 m 1,0,-1
 78 0 l 1,1,-1
 78 700 l 1,2,-1
 412 700 l 1,3,-1
 412 590 l 1,4,-1
 188 590 l 1,5,-1
 188 413 l 1,6,-1
 325 413 l 1,7,-1
 294 308 l 1,8,-1
 188 308 l 1,9,-1
 188 100 l 1,10,-1
 410 100 l 1,11,-1
 410 0 l 1,0,-1
EndSplineSet
EndChar

StartChar: F
Encoding: 70 70 39
Width: 451
Flags: HMW
HStem: 590 110<188 412 188 188>
VStem: 77 111
LayerCount: 2
Fore
SplineSet
188 0 m 1,0,-1
 78 0 l 1,1,-1
 78 700 l 1,2,-1
 412 700 l 1,3,-1
 412 590 l 1,4,-1
 188 590 l 1,5,-1
 188 413 l 1,6,-1
 328 413 l 1,7,-1
 292 308 l 1,8,-1
 188 308 l 1,9,-1
 188 0 l 1,0,-1
EndSplineSet
EndChar

StartChar: G
Encoding: 71 71 40
Width: 537
Flags: HMW
HStem: -10 18 0 21G<372 476 372 372> 659 51
VStem: 65 110<189 503 503 512> 366 110<8 8 186 195 195 195>
LayerCount: 2
Fore
SplineSet
476 0 m 1,0,-1
 372 0 l 1,1,-1
 366 8 l 1,2,3
 314 -10 314 -10 276 -10 c 0,4,5
 188 -10 188 -10 126.5 40 c 128,-1,6
 65 90 65 90 65 189 c 2,7,-1
 65 503 l 2,8,9
 65 631 65 631 152 684 c 1,10,11
 197.161290323 709.290322581 197.161290323 709.290322581 258.638917794 709.290322581 c 0,12,13
 265.225806452 709.290322581 265.225806452 709.290322581 272 709 c 0,14,15
 342 706 342 706 401 676 c 1,16,-1
 368 577 l 1,17,18
 320 595 320 595 277 595 c 0,19,20
 229 595 229 595 202 577.5 c 128,-1,21
 175 560 175 560 175 512 c 2,22,-1
 175 187 l 2,23,24
 175 139 175 139 200.5 120 c 128,-1,25
 226 101 226 101 275 101 c 0,26,27
 366 101 366 101 366 186 c 2,28,-1
 366 195 l 1,29,-1
 309 195 l 1,30,-1
 274 300 l 1,31,-1
 476 300 l 1,32,-1
 476 0 l 1,0,-1
EndSplineSet
EndChar

StartChar: H
Encoding: 72 72 41
Width: 588
Flags: HMW
VStem: 78 110<0 308 0 413 413 700> 399 109<0 308 308 308 413 700>
LayerCount: 2
Fore
SplineSet
508 0 m 1,0,-1
 399 0 l 1,1,-1
 399 308 l 1,2,-1
 188 308 l 1,3,-1
 188 0 l 1,4,-1
 78 0 l 1,5,-1
 78 700 l 1,6,-1
 188 700 l 1,7,-1
 188 413 l 1,8,-1
 399 413 l 1,9,-1
 399 700 l 1,10,-1
 508 700 l 1,11,-1
 508 0 l 1,0,-1
EndSplineSet
EndChar

StartChar: I
Encoding: 73 73 42
Width: 313
Flags: HMW
VStem: 123 110<0 592 592 592>
LayerCount: 2
Fore
SplineSet
233 0 m 1,0,-1
 123 0 l 1,1,-1
 123 592 l 1,2,-1
 61 594 l 1,3,-1
 61 700 l 1,4,-1
 233 700 l 1,5,-1
 233 0 l 1,0,-1
EndSplineSet
EndChar

StartChar: J
Encoding: 74 74 43
Width: 234
Flags: HMW
HStem: -17 80
VStem: 90 108<156 592 592 592> 90 109
LayerCount: 2
Fore
SplineSet
21 -37 m 1,0,-1
 -15 57 l 1,1,2
 90 57 90 57 90 156 c 2,3,-1
 90 592 l 1,4,-1
 30 594 l 1,5,-1
 30 700 l 1,6,-1
 198 700 l 1,7,-1
 198 139 l 2,8,9
 198 44 198 44 160 4 c 128,-1,10
 122 -36 122 -36 21 -37 c 1,0,-1
EndSplineSet
EndChar

StartChar: K
Encoding: 75 75 44
Width: 532
Flags: HMW
HStem: 0 21G<79 197 79 79 393 530 393 393> 694 20G
VStem: 79 118<0 268 460 701>
LayerCount: 2
Fore
SplineSet
530 0 m 1,0,-1
 393 0 l 1,1,-1
 204 278 l 1,2,-1
 197 268 l 1,3,-1
 197 0 l 1,4,-1
 79 0 l 1,5,-1
 79 701 l 1,6,-1
 197 701 l 1,7,-1
 197 460 l 1,8,-1
 359 701 l 1,9,-1
 491 701 l 1,10,-1
 269 376 l 1,11,-1
 530 0 l 1,0,-1
EndSplineSet
EndChar

StartChar: L
Encoding: 76 76 45
Width: 440
Flags: HMW
HStem: 0 80 694 20G
VStem: 78 110<101 700 101 700 101 700>
LayerCount: 2
Fore
SplineSet
439 0 m 1,0,-1
 78 0 l 1,1,-1
 78 700 l 1,2,-1
 188 700 l 1,3,-1
 188 101 l 1,4,-1
 439 101 l 1,5,-1
 439 0 l 1,0,-1
EndSplineSet
EndChar

StartChar: M
Encoding: 77 77 46
Width: 694
Flags: HMW
HStem: 0 21G<78 188 78 78 303 387 303 303 504 614 504 504> 0 237<78 345 345 345 345 387 303 345 345 614 345 504> 369 331<78 188>
VStem: 78 110<0 369 0 700> 504 110<0 370 370 370>
LayerCount: 2
Fore
SplineSet
614 0 m 1,0,-1
 504 0 l 1,1,-1
 504 370 l 1,2,-1
 387 0 l 1,3,-1
 303 0 l 1,4,-1
 188 369 l 1,5,-1
 188 0 l 1,6,-1
 78 0 l 1,7,-1
 78 700 l 1,8,-1
 188 700 l 1,9,-1
 345 237 l 1,10,-1
 504 700 l 1,11,-1
 614 700 l 1,12,-1
 614 0 l 1,0,-1
EndSplineSet
EndChar

StartChar: N
Encoding: 78 78 47
Width: 650
Flags: HMW
HStem: 0 230<459 570 459 459> 473 227<78 188>
VStem: 78 110<0 473 0 700> 459 111<0 0 230 700>
LayerCount: 2
Fore
SplineSet
570 0 m 1,0,-1
 459 0 l 1,1,-1
 188 473 l 1,2,-1
 188 0 l 1,3,-1
 78 0 l 1,4,-1
 78 700 l 1,5,-1
 188 700 l 1,6,-1
 459 230 l 1,7,-1
 459 700 l 1,8,-1
 570 700 l 1,9,-1
 570 0 l 1,0,-1
EndSplineSet
EndChar

StartChar: O
Encoding: 79 79 48
Width: 549
Flags: HMW
HStem: 0 42 597 119<229 317.5>
VStem: 63 110<185 204 204 471> 370 113 373 110<206 470 470 506>
LayerCount: 2
Fore
SplineSet
483 506 m 2,0,-1
 483 185 l 2,1,2
 483 84 483 84 421.5 36.5 c 128,-1,3
 360 -11 360 -11 274 -11 c 128,-1,4
 188 -11 188 -11 125.5 36.5 c 128,-1,5
 63 84 63 84 63 185 c 2,6,-1
 63 507 l 2,7,8
 63 610 63 610 119.5 663 c 128,-1,9
 176 716 176 716 275 716 c 128,-1,10
 374 716 374 716 428.5 660 c 128,-1,11
 483 604 483 604 483 506 c 2,0,-1
373 206 m 2,12,-1
 373 470 l 2,13,14
 373 534 373 534 353.5 565.5 c 128,-1,15
 334 597 334 597 273 597 c 128,-1,16
 212 597 212 597 192.5 566.5 c 128,-1,17
 173 536 173 536 173 471 c 2,18,-1
 173 204 l 2,19,20
 173 156 173 156 197.5 128.5 c 128,-1,21
 222 101 222 101 273 101 c 0,22,23
 320 101 320 101 346.5 130 c 128,-1,24
 373 159 373 159 373 206 c 2,12,-1
EndSplineSet
EndChar

StartChar: P
Encoding: 80 80 49
Width: 551
Flags: HMW
HStem: 0 21G<78 188 78 78> 0 590<78 278 78 278>
VStem: 78 111 188 0<0 0 195 195 300 300 590 590> 306 96
LayerCount: 2
Fore
SplineSet
188 300 m 1,0,-1
 282 300 l 2,1,2
 316 300 316 300 340.5 311 c 128,-1,3
 365 322 365 322 376.5 335.5 c 128,-1,4
 388 349 388 349 394.5 374 c 128,-1,5
 401 399 401 399 401.5 413.5 c 128,-1,6
 402 428 402 428 402.013311099 454.20851672 c 0,7,8
 402 459 402 459 402 461 c 0,9,10
 402 538 402 538 372 564 c 128,-1,11
 342 590 342 590 278 590 c 2,12,-1
 188 590 l 1,13,-1
 188 300 l 1,0,-1
188 0 m 1,14,-1
 78 0 l 1,15,-1
 78 700 l 1,16,-1
 306 700 l 2,17,18
 411 700 411 700 461.5 632.5 c 128,-1,19
 512 565 512 565 512 463 c 0,20,21
 512 195 512 195 315 195 c 2,22,-1
 188 195 l 1,23,-1
 188 0 l 1,14,-1
EndSplineSet
EndChar

StartChar: Q
Encoding: 81 81 50
Width: 549
Flags: HMW
HStem: -116 108 102 21G<327 350.5> 599 117<229 317.5>
VStem: 63 110<185 186 186 505> 218 109<101 101> 373 110<187 505 505 506>
LayerCount: 2
Fore
SplineSet
431 -22 m 1,0,-1
 417 -116 l 1,1,2
 412.172413793 -116.137931034 412.172413793 -116.137931034 407.46254459 -116.137931034 c 0,3,4
 275.586206897 -116.137931034 275.586206897 -116.137931034 236 -8 c 1,5,6
 206 -5 206 -5 178.5 6 c 128,-1,7
 151 17 151 17 123.5 37.5 c 128,-1,8
 96 58 96 58 79.5 96 c 128,-1,9
 63 134 63 134 63 185 c 2,10,-1
 63 507 l 2,11,12
 63 610 63 610 119.5 663 c 128,-1,13
 176 716 176 716 275 716 c 128,-1,14
 374 716 374 716 428.5 660 c 128,-1,15
 483 604 483 604 483 506 c 2,16,-1
 483 185 l 2,17,18
 483 101 483 101 441.5 56 c 128,-1,19
 400 11 400 11 348 1 c 1,20,21
 361 -14 361 -14 377.5 -18 c 128,-1,22
 394 -22 394 -22 431 -22 c 1,0,-1
373 187 m 2,23,-1
 373 505 l 2,24,25
 373 520 373 520 369.5 533.5 c 128,-1,26
 366 547 366 547 356.5 563.5 c 128,-1,27
 347 580 347 580 325.5 589.5 c 128,-1,28
 304 599 304 599 273 599 c 0,29,30
 213 599 213 599 193 573.5 c 128,-1,31
 173 548 173 548 173 505 c 2,32,-1
 173 186 l 2,33,34
 173 101 173 101 218 101 c 1,35,36
 217 107 217 107 217 156 c 2,37,-1
 217 174 l 1,38,-1
 327 174 l 1,39,-1
 327 157 l 1,40,-1
 327 102 l 1,41,42
 373 102 373 102 373 187 c 2,23,-1
EndSplineSet
EndChar

StartChar: R
Encoding: 82 82 51
Width: 564
Flags: HMW
HStem: 300 400<188 289 289 315 315 342.5>
VStem: 78 110<0 195 300 589> 188 324<0 524 427.5 524 427.5 589 300 524>
LayerCount: 2
Fore
SplineSet
513 0 m 1,0,-1
 401 0 l 1,1,-1
 334 195 l 1,2,-1
 188 195 l 1,3,-1
 188 0 l 1,4,-1
 78 0 l 1,5,-1
 78 700 l 1,6,-1
 315 700 l 2,7,8
 412 700 412 700 462 631.5 c 128,-1,9
 512 563 512 563 512 462 c 0,10,11
 512 413 512 413 509.5 384 c 128,-1,12
 507 355 507 355 489 309 c 128,-1,13
 471 263 471 263 435 232 c 1,14,-1
 513 0 l 1,0,-1
188 300 m 1,15,-1
 289 300 l 2,16,17
 320 300 320 300 341.5 312 c 128,-1,18
 363 324 363 324 373 338.5 c 128,-1,19
 383 353 383 353 389 379.5 c 128,-1,20
 395 406 395 406 395.5 421 c 128,-1,21
 396 436 396 436 396 462 c 0,22,23
 396 539 396 539 365 564 c 128,-1,24
 334 589 334 589 269 589 c 2,25,-1
 188 589 l 1,26,-1
 188 300 l 1,15,-1
EndSplineSet
EndChar

StartChar: S
Encoding: 83 83 52
Width: 561
Flags: HMW
HStem: -17 80 651 80
VStem: 37 118<178 195> 54 119 391 35 391 121<167 282>
LayerCount: 2
Fore
SplineSet
37 178 m 1,0,-1
 155 195 l 1,1,2
 160 151 160 151 191 124 c 128,-1,3
 222 97 222 97 272 97 c 0,4,5
 333 97 333 97 362 124.5 c 128,-1,6
 391 152 391 152 391 184 c 0,7,8
 391 224 391 224 372.5 253 c 128,-1,9
 354 282 354 282 324 300.5 c 128,-1,10
 294 319 294 319 258.5 334 c 128,-1,11
 223 349 223 349 187 365.5 c 128,-1,12
 151 382 151 382 121 402.5 c 128,-1,13
 91 423 91 423 72.5 457 c 128,-1,14
 54 491 54 491 54 537 c 0,15,16
 54 607 54 607 112.5 658.5 c 128,-1,17
 171 710 171 710 280 710 c 0,18,19
 363 710 363 710 426 680 c 1,20,-1
 420 662 l 2,21,22
 414 644 414 644 405 617 c 128,-1,23
 396 590 396 590 391 576 c 1,24,25
 323 598 323 598 281 598 c 0,26,27
 224 598 224 598 197 578 c 0,28,29
 172.7 560 172.7 560 172.7 533.09 c 0,30,31
 172.7 530.1 172.7 530.1 173 527 c 0,32,33
 176 501 176 501 212 479 c 128,-1,34
 248 457 248 457 297.5 436 c 128,-1,35
 347 415 347 415 395.5 387.5 c 128,-1,36
 444 360 444 360 478 310.5 c 128,-1,37
 512 261 512 261 512 194 c 0,38,39
 512 105 512 105 453 47 c 128,-1,40
 394 -11 394 -11 273 -11 c 0,41,42
 164 -11 164 -11 101.5 46.5 c 128,-1,43
 39 104 39 104 37 178 c 1,0,-1
EndSplineSet
EndChar

StartChar: T
Encoding: 84 84 53
Width: 402
Flags: HMW
HStem: 0 21G<144 254 144 144> 634 80
VStem: 144 110<0 589>
LayerCount: 2
Fore
SplineSet
254 0 m 1,0,-1
 144 0 l 1,1,-1
 144 589 l 1,2,-1
 0 589 l 1,3,-1
 0 700 l 1,4,-1
 402 700 l 1,5,-1
 402 589 l 1,6,-1
 254 589 l 1,7,-1
 254 0 l 1,0,-1
EndSplineSet
EndChar

StartChar: U
Encoding: 85 85 54
Width: 566
Flags: HMW
HStem: -17 80 694 20G
VStem: 74 110<188 230 230 701> 385 110<230 701>
LayerCount: 2
Fore
SplineSet
385 230 m 2,0,-1
 385 701 l 1,1,-1
 495 701 l 1,2,-1
 495 186 l 2,3,4
 495 133 495 133 476.5 94 c 128,-1,5
 458 55 458 55 426.5 34 c 128,-1,6
 395 13 395 13 360 3 c 128,-1,7
 325 -7 325 -7 285 -7 c 128,-1,8
 245 -7 245 -7 209.5 3 c 128,-1,9
 174 13 174 13 142.5 34 c 128,-1,10
 111 55 111 55 92.5 94 c 128,-1,11
 74 133 74 133 74 186 c 2,12,-1
 74 701 l 1,13,-1
 184 701 l 1,14,-1
 184 230 l 2,15,16
 184 162 184 162 204.5 131.5 c 128,-1,17
 225 101 225 101 284 101 c 0,18,19
 344 101 344 101 364.5 131.5 c 128,-1,20
 385 162 385 162 385 230 c 2,0,-1
EndSplineSet
EndChar

StartChar: V
Encoding: 86 86 55
Width: 595
Flags: HMW
HStem: 0 21G<253 382 253 253> 0 95 694 20G
VStem: 202 227<700 700>
LayerCount: 2
Fore
SplineSet
382 0 m 1,0,-1
 253 0 l 1,1,-1
 78 700 l 1,2,-1
 202 700 l 1,3,-1
 317 216 l 1,4,-1
 429 700 l 1,5,-1
 556 700 l 1,6,-1
 382 0 l 1,0,-1
EndSplineSet
EndChar

StartChar: W
Encoding: 87 87 56
Width: 813
Flags: HMW
HStem: 0 21G<212 340 212 212 516 640 516 516> 0 120 600 114 694 20G
VStem: 78 696<700 700>
LayerCount: 2
Fore
SplineSet
640 0 m 1,0,-1
 516 0 l 1,1,-1
 427 353 l 1,2,-1
 340 0 l 1,3,-1
 212 0 l 1,4,-1
 78 700 l 1,5,-1
 199 700 l 1,6,-1
 281 252 l 1,7,-1
 388 700 l 1,8,-1
 466 700 l 1,9,-1
 573 252 l 1,10,-1
 648 700 l 1,11,-1
 774 700 l 1,12,-1
 640 0 l 1,0,-1
EndSplineSet
EndChar

StartChar: X
Encoding: 88 88 57
Width: 694
Flags: HMW
HStem: 0 21G<78 215 78 78 514 655 514 514> 694 20G
VStem: 90 548<700 700>
LayerCount: 2
Fore
SplineSet
655 0 m 1,0,-1
 514 0 l 1,1,-1
 362 244 l 1,2,-1
 215 0 l 1,3,-1
 78 0 l 1,4,-1
 296 350 l 1,5,-1
 90 700 l 1,6,-1
 220 700 l 1,7,-1
 367 468 l 1,8,-1
 507 700 l 1,9,-1
 638 700 l 1,10,-1
 433 359 l 1,11,-1
 655 0 l 1,0,-1
EndSplineSet
EndChar

StartChar: Y
Encoding: 89 89 58
Width: 548
Flags: HMW
HStem: 0 21G 694 20G
VStem: 48 110<413 423 423 700> 382 110<164 220 220 220 343 700>
LayerCount: 2
Fore
SplineSet
342 -19 m 1,0,-1
 307 65 l 1,1,2
 340 69 340 69 361 90 c 128,-1,3
 382 111 382 111 382 164 c 2,4,-1
 382 220 l 1,5,6
 332 195 332 195 277 195 c 0,7,8
 174 195 174 195 111 254 c 128,-1,9
 48 313 48 313 48 413 c 2,10,-1
 48 700 l 1,11,-1
 158 700 l 1,12,-1
 158 423 l 2,13,14
 158 303 158 303 277 303 c 0,15,16
 289 303 289 303 299.5 304 c 128,-1,17
 310 305 310 305 318.5 307 c 128,-1,18
 327 309 327 309 334 311 c 128,-1,19
 341 313 341 313 347.5 316.5 c 128,-1,20
 354 320 354 320 358 322 c 128,-1,21
 362 324 362 324 366.5 328 c 128,-1,22
 371 332 371 332 373 334 c 128,-1,23
 375 336 375 336 378.5 339.5 c 2,24,-1
 382 343 l 1,25,-1
 382 700 l 1,26,-1
 492 700 l 1,27,-1
 492 156 l 2,28,29
 492 77 492 77 458 33 c 128,-1,30
 424 -11 424 -11 342 -19 c 1,0,-1
EndSplineSet
EndChar

StartChar: Z
Encoding: 90 90 59
Width: 550
Flags: HMW
HStem: 0 80 634 80
VStem: 31 487<0 101 101 101>
LayerCount: 2
Fore
SplineSet
518 0 m 1,0,-1
 31 0 l 1,1,-1
 31 101 l 1,2,-1
 373 590 l 1,3,-1
 44 590 l 1,4,-1
 44 700 l 1,5,-1
 512 700 l 1,6,-1
 512 590 l 1,7,-1
 168 104 l 1,8,-1
 518 104 l 1,9,-1
 518 0 l 1,0,-1
EndSplineSet
EndChar

StartChar: bracketleft
Encoding: 91 91 60
Width: 319
Flags: HMW
HStem: -198 68 663 68
VStem: 78 110<1 702 1 817>
LayerCount: 2
Fore
SplineSet
239 -114 m 1,0,-1
 78 -114 l 1,1,-1
 78 817 l 1,2,-1
 239 817 l 1,3,-1
 239 712 l 1,4,-1
 188 702 l 1,5,-1
 188 1 l 1,6,-1
 239 -9 l 1,7,-1
 239 -114 l 1,0,-1
EndSplineSet
EndChar

StartChar: backslash
Encoding: 92 92 61
Width: 561
Flags: HMW
HStem: -17 21G 711 20G
VStem: 50 274 106 456
LayerCount: 2
Fore
SplineSet
522 -114 m 1,0,-1
 405 -114 l 1,1,-1
 78 817 l 1,2,-1
 198 817 l 1,3,-1
 522 -114 l 1,0,-1
EndSplineSet
EndChar

StartChar: bracketright
Encoding: 93 93 62
Width: 319
Flags: HMW
HStem: -198 68 663 68
VStem: 129 110<1 702 702 702> 191 56
LayerCount: 2
Fore
SplineSet
239 -114 m 1,0,-1
 78 -114 l 1,1,-1
 78 -9 l 1,2,-1
 129 1 l 1,3,-1
 129 702 l 1,4,-1
 78 712 l 1,5,-1
 78 817 l 1,6,-1
 239 817 l 1,7,-1
 239 -114 l 1,0,-1
EndSplineSet
EndChar

StartChar: asciicircum
Encoding: 94 94 63
Width: 407
Flags: HMW
HStem: 264 433
VStem: 78 290<758 758>
LayerCount: 2
Fore
SplineSet
368 758 m 1,0,-1
 301 719 l 1,1,-1
 225 802 l 1,2,-1
 144 719 l 1,3,-1
 78 758 l 1,4,-1
 226 899 l 1,5,-1
 368 758 l 1,0,-1
EndSplineSet
EndChar

StartChar: underscore
Encoding: 95 95 64
Width: 344
Flags: HMW
HStem: -125 50
VStem: 67 320<-75 0 -75 0>
LayerCount: 2
Fore
SplineSet
387 -75 m 1,0,-1
 67 -75 l 1,1,-1
 67 0 l 1,2,-1
 387 0 l 1,3,-1
 387 -75 l 1,0,-1
EndSplineSet
EndChar

StartChar: quoteleft
Encoding: 8216 8216 65
Width: 144
Flags: HMW
HStem: 456 111 519 111 633 84
VStem: 4 106<581 586.5 566.5 615> 14 104
LayerCount: 2
Fore
SplineSet
68 633 m 1,0,-1
 80 630 l 1,1,2
 110 616 110 616 110 582 c 0,3,4
 110 559 110 559 94 543.5 c 0,5,6
 78.9696969697 528.939393939 78.9696969697 528.939393939 56.8797061524 528.939393939 c 0,7,8
 55.4545454545 528.939393939 55.4545454545 528.939393939 54 529 c 0,9,10
 28 530 28 530 16 550 c 128,-1,11
 4 570 4 570 4 592 c 0,12,13
 4 626 4 626 19.5 653 c 128,-1,14
 35 680 35 680 71 714 c 1,15,-1
 140 685 l 1,16,17
 119 673 119 673 101 660 c 128,-1,18
 83 647 83 647 75.5 640 c 2,19,-1
 68 633 l 1,0,-1
EndSplineSet
EndChar

StartChar: a
Encoding: 97 97 66
Width: 458
Flags: HMW
HStem: -12 51 433 76<214 230>
VStem: 37 275<169 252 97 288> 148 274<150.5 183 183 238>
LayerCount: 2
Fore
SplineSet
422 298 m 2,0,-1
 422 0 l 1,1,2
 317.792170503 -9.83092731104 317.792170503 -9.83092731104 256.334339872 -9.83092731104 c 0,3,4
 228.03817299 -9.83092731104 228.03817299 -9.83092731104 208.804273479 -7.7469391435 c 0,5,6
 44.666146513 10.0373855713 44.666146513 10.0373855713 37.3564102415 154.592082901 c 0,7,8
 37 161.640322765 37 161.640322765 37 169 c 2,9,-1
 37 252 l 2,10,11
 37 351 37 351 106 385 c 1,12,13
 134.975609756 400.804878049 134.975609756 400.804878049 172.431885782 400.804878049 c 0,14,15
 177.634146341 400.804878049 177.634146341 400.804878049 183 400.5 c 0,16,17
 227 398 227 398 259 389.5 c 128,-1,18
 291 381 291 381 312 369 c 1,19,20
 312 433 312 433 205 433 c 1,21,-1
 214 509 l 1,22,23
 252 509 252 509 282.5 504.5 c 128,-1,24
 313 500 313 500 334 489.5 c 128,-1,25
 355 479 355 479 371 468 c 128,-1,26
 387 457 387 457 396 439 c 128,-1,27
 405 421 405 421 411 407.5 c 128,-1,28
 417 394 417 394 419 371 c 128,-1,29
 421 348 421 348 421.5 335 c 128,-1,30
 422 322 422 322 422 298 c 2,0,-1
312 97 m 1,31,-1
 312 252 l 1,32,33
 296 263 296 263 270.5 272.5 c 128,-1,34
 245 282 245 282 216.5 287 c 0,35,36
 208.117647059 288.470588235 208.117647059 288.470588235 200.470588235 288.470588235 c 0,37,38
 182.117647059 288.470588235 182.117647059 288.470588235 168 280 c 0,39,40
 148 268 148 268 148 238 c 2,41,-1
 148 183 l 2,42,43
 148 91.4788732394 148 91.4788732394 253.700456259 91.4788732394 c 0,44,45
 279.661971831 91.4788732394 279.661971831 91.4788732394 312 97 c 1,31,-1
EndSplineSet
EndChar

StartChar: b
Encoding: 98 98 67
Width: 486
Flags: HMW
HStem: 680 20G<78 188 188 188>
VStem: 78 110<96 382 500 700> 338 109<155 157 157 315 315 346>
LayerCount: 2
Fore
SplineSet
447 346 m 2,0,-1
 447 157 l 2,1,2
 447 58 447 58 369 18 c 0,3,4
 310 -12 310 -12 237 -12 c 128,-1,5
 164 -12 164 -12 78 0 c 1,6,-1
 78 700 l 1,7,-1
 188 700 l 1,8,-1
 188 500 l 1,9,10
 230.777777778 508.962962963 230.777777778 508.962962963 267.580246914 508.962962963 c 0,11,12
 321.111111111 508.962962963 321.111111111 508.962962963 362 490 c 0,13,14
 447 451 447 451 447 346 c 2,0,-1
338 155 m 2,15,-1
 338 315 l 2,16,17
 338 353 338 353 318 374 c 128,-1,18
 298 395 298 395 272 397.5 c 0,19,20
 262.714285714 398.392857143 262.714285714 398.392857143 253.683673469 398.392857143 c 0,21,22
 237.428571429 398.392857143 237.428571429 398.392857143 222 395.5 c 0,23,24
 198 391 198 391 188 382 c 1,25,-1
 188 96 l 1,26,27
 205.076923077 90.4615384615 205.076923077 90.4615384615 226.307692308 90.4615384615 c 0,28,29
 251.076923077 90.4615384615 251.076923077 90.4615384615 281.5 98 c 0,30,31
 338 112 338 112 338 155 c 2,15,-1
EndSplineSet
EndChar

StartChar: c
Encoding: 99 99 68
Width: 383
Flags: HMW
HStem: -12 51 460 69
VStem: 36 110<180 308 308 314>
LayerCount: 2
Fore
SplineSet
328 114 m 1,0,-1
 358 6 l 1,1,2
 294 -11.0666666667 294 -11.0666666667 238.533333333 -11.0666666667 c 0,3,4
 190 -11.0666666667 190 -11.0666666667 148 2 c 1,5,6
 89 22 89 22 62.5 63.5 c 128,-1,7
 36 105 36 105 36 180 c 2,8,-1
 36 308 l 2,9,10
 36 379 36 379 64 427 c 128,-1,11
 92 475 92 475 138 494 c 0,12,13
 176 509.695652174 176 509.695652174 221.506616257 509.695652174 c 0,14,15
 231.086956522 509.695652174 231.086956522 509.695652174 241 509 c 0,16,17
 298 505 298 505 356 478 c 1,18,-1
 326 383 l 1,19,20
 273.943396226 401.132075472 273.943396226 401.132075472 236.768778925 401.132075472 c 0,21,22
 210.386792453 401.132075472 210.386792453 401.132075472 191.5 392 c 0,23,24
 146 370 146 370 146 314 c 2,25,-1
 146 169 l 2,26,27
 146 136 146 136 169 118.5 c 128,-1,28
 192 101 192 101 224 100 c 0,29,30
 230.4 99.8 230.4 99.8 236.64 99.8 c 0,31,32
 261.6 99.8 261.6 99.8 284 103 c 0,33,34
 312 107 312 107 328 114 c 1,0,-1
EndSplineSet
EndChar

StartChar: d
Encoding: 100 100 69
Width: 486
Flags: HMW
HStem: -11 50 0 63 459 50 694 20G
VStem: 78 260<157 346 346 382 97 384> 338 109<97 382 382 382 498 700 0 700>
LayerCount: 2
Fore
SplineSet
78 157 m 2,0,-1
 78 346 l 2,1,2
 78 451 78 451 163 490 c 0,3,4
 193 504 193 504 230.5 508 c 0,5,6
 250.5 510.133333333 250.5 510.133333333 267.228888889 510.133333333 c 0,7,8
 281.866666667 510.133333333 281.866666667 510.133333333 294 508.5 c 0,9,10
 320 505 320 505 338 498 c 1,11,-1
 338 700 l 1,12,-1
 447 700 l 1,13,-1
 447 0 l 1,14,15
 361 -12 361 -12 288 -12 c 128,-1,16
 215 -12 215 -12 156 18 c 0,17,18
 78 58 78 58 78 157 c 2,0,-1
338 97 m 1,19,-1
 338 382 l 1,20,21
 314 394 314 394 288 397 c 0,22,23
 279.789473684 397.947368421 279.789473684 397.947368421 271.878116343 397.947368421 c 0,24,25
 254.736842105 397.947368421 254.736842105 397.947368421 239 393.5 c 0,26,27
 216 387 216 387 201.5 364.5 c 128,-1,28
 187 342 187 342 187 306 c 2,29,-1
 187 150 l 2,30,31
 187 116 187 116 233 99 c 0,32,33
 257.4375 89.96875 257.4375 89.96875 285.543945312 89.96875 c 0,34,35
 310.34375 89.96875 310.34375 89.96875 338 97 c 1,19,-1
EndSplineSet
EndChar

StartChar: e
Encoding: 101 101 70
Width: 434
Flags: HMW
HStem: -12 51 177 225<146 235.5> 278 232<146 274.5>
VStem: 35 249<287 339 339 340 340 361 287 394> 146 249<116.5 190 149 190 278 278 278 338>
LayerCount: 2
Fore
SplineSet
395 190 m 1,0,-1
 146 177 l 1,1,-1
 146 149 l 2,2,3
 146 98 146 98 192.5 91 c 0,4,5
 198.641509434 90.0754716981 198.641509434 90.0754716981 205.559273763 90.0754716981 c 0,6,7
 251.018867925 90.0754716981 251.018867925 90.0754716981 330 130 c 1,8,-1
 370 35 l 1,9,10
 296 -10 296 -10 205 -12 c 0,11,12
 200.948051948 -12.1038961039 200.948051948 -12.1038961039 196.982459099 -12.1038961039 c 0,13,14
 124.61038961 -12.1038961039 124.61038961 -12.1038961039 81 22.5 c 0,15,16
 35 59 35 59 35 134 c 2,17,-1
 35 339 l 2,18,19
 35 420 35 420 85.5 465 c 128,-1,20
 136 510 136 510 219 510 c 128,-1,21
 302 510 302 510 348.5 465.5 c 128,-1,22
 395 421 395 421 395 342 c 2,23,-1
 395 190 l 1,0,-1
284 287 m 1,24,-1
 284 340 l 2,25,26
 284 370 284 370 265 386 c 128,-1,27
 246 402 246 402 218 402 c 0,28,29
 180 402 180 402 163 382 c 128,-1,30
 146 362 146 362 146 338 c 2,31,-1
 146 278 l 1,32,-1
 284 287 l 1,24,-1
EndSplineSet
EndChar

StartChar: f
Encoding: 102 102 71
Width: 325
Flags: HMW
HStem: 0 21G<78 190 78 78> 398 103<190 253 190 277> 607 100<268 286>
VStem: 78 112<0 398 501 549>
LayerCount: 2
Fore
SplineSet
190 0 m 1,0,-1
 78 0 l 1,1,-1
 78 549 l 2,2,3
 78 594 78 594 91.5 627.5 c 128,-1,4
 105 661 105 661 127 677.5 c 128,-1,5
 149 694 149 694 177 703.5 c 0,6,7
 201.181818182 711.704545455 201.181818182 711.704545455 224.990702479 711.704545455 c 0,8,9
 228.75 711.704545455 228.75 711.704545455 232.5 711.5 c 0,10,11
 260 710 260 710 286 707 c 1,12,-1
 268 607 l 1,13,14
 258 609 258 609 240.5 612 c 0,15,16
 237.736842105 612.473684211 237.736842105 612.473684211 234.998614958 612.473684211 c 0,17,18
 220.394736842 612.473684211 220.394736842 612.473684211 206.5 599 c 0,19,20
 190 583 190 583 190 549 c 2,21,-1
 190 501 l 1,22,-1
 277 501 l 1,23,-1
 253 398 l 1,24,-1
 190 398 l 1,25,-1
 190 0 l 1,0,-1
EndSplineSet
EndChar

StartChar: g
Encoding: 103 103 72
Width: 448
Flags: HMW
HStem: -210 86<231 315> -12 413<193 248.5> 94 416<192 248 170 257.5>
VStem: 37 267<231 315 315 325 325 339> 304 110<-46 8 8 8 231 315 315 339>
LayerCount: 2
Fore
SplineSet
257 -210 m 1,0,-1
 231 -124 l 1,1,2
 265 -124 265 -124 284.5 -104.5 c 128,-1,3
 304 -85 304 -85 304 -46 c 2,4,-1
 304 8 l 1,5,6
 277 -12 277 -12 223 -12 c 0,7,8
 135 -12 135 -12 86 36 c 128,-1,9
 37 84 37 84 37 176 c 2,10,-1
 37 325 l 2,11,12
 37 413 37 413 88.5 461.5 c 128,-1,13
 140 510 140 510 227 510 c 0,14,15
 255 510 255 510 277 503.5 c 128,-1,16
 299 497 299 497 305 490 c 1,17,-1
 326 501 l 1,18,-1
 414 501 l 1,19,-1
 414 -64 l 2,20,21
 414 -210 414 -210 257 -210 c 1,0,-1
304 231 m 2,22,-1
 304 315 l 2,23,24
 304 401 304 401 223 401 c 0,25,26
 182 401 182 401 164.5 377.5 c 128,-1,27
 147 354 147 354 147 320 c 2,28,-1
 147 191 l 2,29,30
 147 94 147 94 223 94 c 0,31,32
 272 94 272 94 288 126 c 128,-1,33
 304 158 304 158 304 231 c 2,22,-1
EndSplineSet
EndChar

StartChar: h
Encoding: 104 104 73
Width: 493
Flags: HMW
HStem: 0 21G<64 174 64 64 323 433 323 323> 460 49 694 20G
VStem: 64 110<0 389 0 497 497 700> 323 110<0 307 307 346>
LayerCount: 2
Fore
SplineSet
433 0 m 1,0,-1
 323 0 l 1,1,-1
 323 307 l 2,2,3
 323 353 323 353 304.5 378 c 128,-1,4
 286 403 286 403 260 405.5 c 0,5,6
 251.333333333 406.333333333 251.333333333 406.333333333 243 406.333333333 c 0,7,8
 226.333333333 406.333333333 226.333333333 406.333333333 211 403 c 0,9,10
 188 398 188 398 174 389 c 1,11,-1
 174 0 l 1,12,-1
 64 0 l 1,13,-1
 64 700 l 1,14,-1
 174 700 l 1,15,-1
 174 497 l 1,16,17
 202 509 202 509 248 510 c 0,18,19
 250.19047619 510.047619048 250.19047619 510.047619048 252.399092971 510.047619048 c 0,20,21
 296.571428571 510.047619048 296.571428571 510.047619048 348 491 c 1,22,23
 433 452 433 452 433 346 c 2,24,-1
 433 0 l 1,0,-1
EndSplineSet
EndChar

StartChar: i
Encoding: 105 105 74
Width: 276
Flags: HMW
HStem: 501 21G<80 190 190 190> 610 104
VStem: 80 110<0 501>
LayerCount: 2
Fore
SplineSet
138 592 m 0,0,1
 114 592 114 592 96 610 c 128,-1,2
 78 628 78 628 78 652 c 0,3,4
 78 675 78 675 96 692.5 c 128,-1,5
 114 710 114 710 138 710 c 0,6,7
 161 710 161 710 178.5 692.5 c 128,-1,8
 196 675 196 675 196 652 c 0,9,10
 196 628 196 628 178.5 610 c 128,-1,11
 161 592 161 592 138 592 c 0,0,1
190 0 m 1,12,-1
 80 0 l 1,13,-1
 80 501 l 1,14,-1
 190 501 l 1,15,-1
 190 0 l 1,12,-1
EndSplineSet
EndChar

StartChar: j
Encoding: 106 106 75
Width: 236
Flags: HMW
HStem: -209 85<1 67.5> 457 52 654 67
VStem: 72 110<-35 399 399 399>
LayerCount: 2
Fore
SplineSet
72 -35 m 2,0,-1
 72 399 l 1,1,-1
 21 409 l 1,2,-1
 -1 501 l 1,3,-1
 182 501 l 1,4,-1
 182 -75 l 1,5,6
 180 -131 180 -131 133.5 -170 c 128,-1,7
 87 -209 87 -209 31 -209 c 1,8,-1
 1 -124 l 1,9,10
 4 -124 4 -124 8.5 -123 c 128,-1,11
 13 -122 13 -122 25.5 -116.5 c 128,-1,12
 38 -111 38 -111 47.5 -102.5 c 128,-1,13
 57 -94 57 -94 64.5 -76.5 c 128,-1,14
 72 -59 72 -59 72 -35 c 2,0,-1
129 592 m 128,-1,16
 105 592 105 592 87 610 c 128,-1,17
 69 628 69 628 69 652 c 128,-1,18
 69 676 69 676 87 693 c 128,-1,19
 105 710 105 710 129 710 c 128,-1,20
 153 710 153 710 170 693 c 128,-1,21
 187 676 187 676 187 652 c 128,-1,22
 187 628 187 628 170 610 c 128,-1,15
 153 592 153 592 129 592 c 128,-1,16
EndSplineSet
EndChar

StartChar: k
Encoding: 107 107 76
Width: 474
Flags: HMW
HStem: 0 21G<64 174 64 64 338 476 338 338> 500 20G<323 323> 694 20G
VStem: 64 110<0 240 382 700>
LayerCount: 2
Fore
SplineSet
476 0 m 1,0,-1
 338 0 l 1,1,-1
 188 254 l 1,2,-1
 174 240 l 1,3,-1
 174 0 l 1,4,-1
 64 0 l 1,5,-1
 64 700 l 1,6,-1
 174 700 l 1,7,-1
 174 382 l 1,8,-1
 323 520 l 1,9,-1
 404 443 l 1,10,-1
 273 332 l 1,11,12
 419 91 419 91 476 0 c 1,0,-1
EndSplineSet
EndChar

StartChar: l
Encoding: 108 108 77
Width: 268
Flags: HMW
HStem: 0 21G<78 188 78 78> 694 20G
VStem: 78 110<0 700>
LayerCount: 2
Fore
SplineSet
188 0 m 1,0,-1
 78 0 l 1,1,-1
 78 700 l 1,2,-1
 188 700 l 1,3,-1
 188 0 l 1,0,-1
EndSplineSet
EndChar

StartChar: m
Encoding: 109 109 78
Width: 741
Flags: HMW
HStem: 0 21G<78 188 78 78 346 456 346 346 592 702 592 592> 454 63 454 75
VStem: 78 97<0 501 501 501> 346 110<0 301 301 350> 592 110<0 304 304 346>
LayerCount: 2
Fore
SplineSet
702 0 m 1,0,-1
 592 0 l 1,1,-1
 592 304 l 2,2,3
 592 378 592 378 563 397.5 c 0,4,5
 550.292134831 406.04494382 550.292134831 406.04494382 530.671506123 406.04494382 c 0,6,7
 505.516853933 406.04494382 505.516853933 406.04494382 469 392 c 1,8,-1
 452 385 l 1,9,10
 456 375 456 375 456 356 c 2,11,-1
 456 0 l 1,12,-1
 346 0 l 1,13,-1
 346 301 l 2,14,15
 346 373 346 373 299 396.5 c 0,16,17
 280.743801653 405.628099174 280.743801653 405.628099174 259.922682877 405.628099174 c 0,18,19
 227.140495868 405.628099174 227.140495868 405.628099174 188 383 c 1,20,-1
 188 0 l 1,21,-1
 78 0 l 1,22,-1
 78 501 l 1,23,-1
 175 501 l 1,24,-1
 188 494 l 1,25,26
 215 506 215 506 249 509 c 0,27,28
 255.8 509.6 255.8 509.6 262.76 509.6 c 0,29,30
 290.6 509.6 290.6 509.6 321 500 c 0,31,32
 359 488 359 488 385 461 c 1,33,34
 399 469 399 469 427 483 c 1,35,36
 490.529411765 509.470588235 490.529411765 509.470588235 545.884083045 509.470588235 c 0,37,38
 553.264705882 509.470588235 553.264705882 509.470588235 560.5 509 c 0,39,40
 622 505 622 505 662 461 c 128,-1,41
 702 417 702 417 702 346 c 2,42,-1
 702 0 l 1,0,-1
EndSplineSet
EndChar

StartChar: n
Encoding: 110 110 79
Width: 500
Flags: HMW
HStem: 0 21G<64 173 64 64 323 433 323 323> 472 55
VStem: 64 97<0 501 501 501> 323 110<0 315 315 346>
LayerCount: 2
Fore
SplineSet
433 0 m 1,0,-1
 323 0 l 1,1,-1
 323 315 l 2,2,3
 323 373 323 373 280 395 c 0,4,5
 262.150943396 404.132075472 262.150943396 404.132075472 240.683517266 404.132075472 c 0,6,7
 210.433962264 404.132075472 210.433962264 404.132075472 173 386 c 1,8,-1
 173 0 l 1,9,-1
 64 0 l 1,10,-1
 64 501 l 1,11,-1
 161 501 l 1,12,-1
 174 495 l 1,13,14
 219.647058824 510.058823529 219.647058824 510.058823529 260.865051903 510.058823529 c 0,15,16
 307.235294118 510.058823529 307.235294118 510.058823529 348 491 c 0,17,18
 433 452 433 452 433 346 c 2,19,-1
 433 0 l 1,0,-1
EndSplineSet
EndChar

StartChar: o
Encoding: 111 111 80
Width: 490
Flags: HMW
HStem: -10 411<249 280.5 249 332> 98 414<245.5 286.5>
VStem: 78 264<184 316 316 356.5 174 379> 188 263<145 174 174 184 184 316>
LayerCount: 2
Fore
SplineSet
451 316 m 2,0,-1
 451 184 l 2,1,2
 451 100 451 100 405 45 c 128,-1,3
 359 -10 359 -10 266 -10 c 128,-1,4
 173 -10 173 -10 125.5 45.5 c 128,-1,5
 78 101 78 101 78 184 c 2,6,-1
 78 316 l 2,7,8
 78 411 78 411 126.5 461.5 c 128,-1,9
 175 512 175 512 266 512 c 0,10,11
 353 512 353 512 402 459.5 c 128,-1,12
 451 407 451 407 451 316 c 2,0,-1
342 174 m 2,13,-1
 342 316 l 2,14,15
 342 345 342 345 335 363.5 c 128,-1,16
 328 382 328 382 314.5 389.5 c 128,-1,17
 301 397 301 397 290.5 399 c 128,-1,18
 280 401 280 401 266 401 c 0,19,20
 188 401 188 401 188 316 c 2,21,-1
 188 174 l 2,22,23
 188 98 188 98 266 98 c 0,24,25
 299 98 299 98 320.5 117 c 128,-1,26
 342 136 342 136 342 174 c 2,13,-1
EndSplineSet
EndChar

StartChar: p
Encoding: 112 112 81
Width: 494
Flags: HMW
HStem: -198 21G -12 75 454 63 454 75
VStem: 78 104<-210 501 501 501> 167 21 188 267<-188 176 165.5 176 176 188 188 315 113.5 324>
LayerCount: 2
Fore
SplineSet
188 -188 m 1,0,-1
 78 -210 l 1,1,-1
 78 501 l 1,2,-1
 182 501 l 1,3,-1
 188 494 l 1,4,5
 221 509 221 509 265 509 c 0,6,7
 358 509 358 509 406.5 455 c 128,-1,8
 455 401 455 401 455 315 c 2,9,-1
 455 176 l 2,10,11
 455 85 455 85 404 36.5 c 128,-1,12
 353 -12 353 -12 269 -12 c 0,13,14
 245 -12 245 -12 231 -10 c 128,-1,15
 217 -8 217 -8 203.5 -3 c 128,-1,16
 190 2 190 2 188 2 c 1,17,-1
 188 -188 l 1,0,-1
345 202 m 2,18,-1
 345 319 l 2,19,20
 345 401 345 401 269 401 c 0,21,22
 228 401 228 401 208 380.5 c 128,-1,23
 188 360 188 360 188 324 c 2,24,-1
 188 188 l 2,25,26
 188 98 188 98 269 98 c 0,27,28
 315 98 315 98 330 122 c 128,-1,29
 345 146 345 146 345 202 c 2,18,-1
EndSplineSet
EndChar

StartChar: q
Encoding: 113 113 82
Width: 448
Flags: HMW
HStem: -198 21G -12 75 454 63
VStem: 37 268<193 313 313 314 314 355> 305 109<-188 3 3 3 193 313 313 355 491 491>
LayerCount: 2
Fore
SplineSet
414 -210 m 1,0,-1
 305 -188 l 1,1,-1
 305 3 l 1,2,3
 303 2 303 2 294.5 -1 c 128,-1,4
 286 -4 286 -4 279 -6 c 128,-1,5
 272 -8 272 -8 256.5 -10 c 128,-1,6
 241 -12 241 -12 223 -12 c 0,7,8
 139 -12 139 -12 88 36.5 c 128,-1,9
 37 85 37 85 37 176 c 2,10,-1
 37 314 l 2,11,12
 37 400 37 400 85.5 454.5 c 128,-1,13
 134 509 134 509 227 509 c 0,14,15
 243 509 243 509 256.5 507 c 128,-1,16
 270 505 270 505 276.5 502.5 c 128,-1,17
 283 500 283 500 292.5 496 c 128,-1,18
 302 492 302 492 305 491 c 1,19,-1
 312 501 l 1,20,-1
 414 501 l 1,21,-1
 414 -210 l 1,0,-1
305 193 m 2,22,-1
 305 313 l 2,23,24
 305 401 305 401 223 401 c 0,25,26
 146 401 146 401 146 303 c 2,27,-1
 146 179 l 2,28,29
 146 98 146 98 223 98 c 0,30,31
 273 98 273 98 289 123 c 128,-1,32
 305 148 305 148 305 193 c 2,22,-1
EndSplineSet
EndChar

StartChar: r
Encoding: 114 114 83
Width: 380
Flags: HMW
HStem: 0 21G<61 171 61 61> 439 90 497 20G
VStem: 61 102<0 501 501 501>
LayerCount: 2
Fore
SplineSet
171 0 m 1,0,-1
 61 0 l 1,1,-1
 61 501 l 1,2,-1
 163 501 l 1,3,-1
 171 497 l 1,4,5
 204 508 204 508 238 509 c 0,6,7
 249.333333333 509.333333333 249.333333333 509.333333333 258.444444444 509.333333333 c 0,8,9
 276.666666667 509.333333333 276.666666667 509.333333333 286 508 c 0,10,11
 300 506 300 506 341 497 c 1,12,-1
 315 390 l 1,13,14
 287.340425532 404.382978723 287.340425532 404.382978723 260.598913536 404.382978723 c 0,15,16
 239 404.382978723 239 404.382978723 218 395 c 0,17,18
 171 374 171 374 171 322 c 2,19,-1
 171 0 l 1,0,-1
EndSplineSet
EndChar

StartChar: s
Encoding: 115 115 84
Width: 431
Flags: HMW
HStem: 454 75
VStem: 36 110<127 138> 48 119 290 116<130 195.5> 299 32
LayerCount: 2
Fore
SplineSet
36 127 m 1,0,-1
 146 138 l 1,1,2
 146 120 146 120 164.5 104 c 128,-1,3
 183 88 183 88 221 88 c 0,4,5
 254 88 254 88 272 104.5 c 128,-1,6
 290 121 290 121 290 143 c 0,7,8
 290 172 290 172 266.5 189.5 c 128,-1,9
 243 207 243 207 209 217.5 c 128,-1,10
 175 228 175 228 140.5 241.5 c 128,-1,11
 106 255 106 255 79.5 286 c 128,-1,12
 53 317 53 317 48 365 c 0,13,14
 47.4736842105 370.894736842 47.4736842105 370.894736842 47.4736842105 376.67867036 c 0,15,16
 47.4736842105 425.842105263 47.4736842105 425.842105263 85.5 467 c 0,17,18
 128 513 128 513 219 513 c 0,19,20
 251 513 251 513 279 505.5 c 128,-1,21
 307 498 307 498 319 491 c 2,22,-1
 331 484 l 1,23,-1
 299 382 l 1,24,25
 276 405 276 405 219 405 c 0,26,27
 191 405 191 405 177.5 397 c 128,-1,28
 164 389 164 389 165.5 379.5 c 128,-1,29
 167 370 167 370 167 363 c 1,30,31
 170 348 170 348 196.5 335.5 c 128,-1,32
 223 323 223 323 257 311 c 128,-1,33
 291 299 291 299 325 281 c 128,-1,34
 359 263 359 263 382.5 227 c 128,-1,35
 406 191 406 191 406 141 c 0,36,37
 406 76 406 76 359 30.5 c 128,-1,38
 312 -15 312 -15 221 -15 c 0,39,40
 136 -15 136 -15 87 26 c 128,-1,41
 38 67 38 67 36 127 c 1,0,-1
EndSplineSet
EndChar

StartChar: t
Encoding: 116 116 85
Width: 274
Flags: HMW
HStem: 0 75 442 75
VStem: -122 401 44 85
LayerCount: 2
Fore
SplineSet
229 75 m 1,0,-1
 196 -13 l 1,1,2
 44 -10 44 -10 44 132 c 2,3,-1
 44 700 l 1,4,-1
 156 700 l 1,5,-1
 156 501 l 1,6,-1
 251 501 l 1,7,-1
 227 398 l 1,8,-1
 156 398 l 1,9,-1
 156 132 l 2,10,11
 156 98 156 98 175 86.5 c 128,-1,12
 194 75 194 75 229 75 c 1,0,-1
EndSplineSet
EndChar

StartChar: u
Encoding: 117 117 86
Width: 447
Flags: HMW
HStem: -12 75 0 21G<306 409 306 306> 497 20G
VStem: 36 110<172 188 188 501> 299 110<6 6 192 501>
LayerCount: 2
Fore
SplineSet
409 0 m 1,0,-1
 306 0 l 1,1,-1
 299 6 l 1,2,3
 254 -11 254 -11 224 -11 c 0,4,5
 36 -11 36 -11 36 172 c 2,6,-1
 36 501 l 1,7,-1
 146 501 l 1,8,-1
 146 188 l 2,9,10
 146 142 146 142 162.5 120 c 128,-1,11
 179 98 179 98 224 98 c 128,-1,12
 269 98 269 98 284 122.5 c 128,-1,13
 299 147 299 147 299 192 c 2,14,-1
 299 501 l 1,15,-1
 409 501 l 1,16,-1
 409 0 l 1,0,-1
EndSplineSet
EndChar

StartChar: v
Encoding: 118 118 87
Width: 453
Flags: HMW
HStem: 0 86 497 20G
VStem: 12 423<501 501> 225 53
LayerCount: 2
Fore
SplineSet
278 0 m 1,0,-1
 172 0 l 1,1,-1
 12 501 l 1,2,-1
 132 501 l 1,3,-1
 225 195 l 1,4,-1
 316 501 l 1,5,-1
 435 501 l 1,6,-1
 278 0 l 1,0,-1
EndSplineSet
EndChar

StartChar: w
Encoding: 119 119 88
Width: 710
Flags: HMW
HStem: 0 94 411 106 497 20G
VStem: 12 680<501 501>
LayerCount: 2
Fore
SplineSet
530 0 m 1,0,-1
 425 0 l 1,1,-1
 353 267 l 1,2,-1
 280 0 l 1,3,-1
 173 0 l 1,4,-1
 12 501 l 1,5,-1
 132 501 l 1,6,-1
 223 195 l 1,7,-1
 304 501 l 1,8,-1
 408 501 l 1,9,-1
 492 195 l 1,10,-1
 574 501 l 1,11,-1
 692 501 l 1,12,-1
 530 0 l 1,0,-1
EndSplineSet
EndChar

StartChar: x
Encoding: 120 120 89
Width: 551
Flags: HMW
HStem: 0 21G<61 198 61 61 373 504 373 373> 272 21G 279 21G 497 20G
VStem: 61 451<501 501>
LayerCount: 2
Fore
SplineSet
504 0 m 1,0,-1
 373 0 l 1,1,-1
 285 140 l 1,2,-1
 198 0 l 1,3,-1
 61 0 l 1,4,-1
 217 249 l 1,5,-1
 61 501 l 1,6,-1
 200 501 l 1,7,-1
 286 358 l 1,8,-1
 376 501 l 1,9,-1
 512 501 l 1,10,-1
 353 250 l 1,11,-1
 504 0 l 1,0,-1
EndSplineSet
EndChar

StartChar: y
Encoding: 121 121 90
Width: 506
Flags: HMW
HStem: -207 75 497 20G
VStem: 37 375<176 347> 302 110<-56 2 2 2 206 347>
LayerCount: 2
Fore
SplineSet
278 -210 m 1,0,-1
 235 -123 l 1,1,2
 261 -123 261 -123 281.5 -107 c 128,-1,3
 302 -91 302 -91 302 -56 c 2,4,-1
 302 2 l 1,5,6
 257 -12 257 -12 220 -12 c 0,7,8
 132 -12 132 -12 84.5 35.5 c 128,-1,9
 37 83 37 83 37 176 c 2,10,-1
 37 501 l 1,11,-1
 147 501 l 1,12,-1
 147 206 l 2,13,14
 147 143 147 143 163.5 120.5 c 128,-1,15
 180 98 180 98 220 98 c 0,16,17
 264 98 264 98 283 119.5 c 128,-1,18
 302 141 302 141 302 206 c 2,19,-1
 302 363 l 2,20,21
 302 416 302 416 338.5 460.5 c 128,-1,22
 375 505 375 505 431 510 c 1,23,-1
 472 420 l 1,24,25
 443 413 443 413 427.5 392.5 c 128,-1,26
 412 372 412 372 412 347 c 2,27,-1
 412 -61 l 2,28,29
 412 -126 412 -126 381.5 -163.5 c 128,-1,30
 351 -201 351 -201 278 -210 c 1,0,-1
EndSplineSet
EndChar

StartChar: z
Encoding: 122 122 91
Width: 484
Flags: HMW
HStem: 0 75 442 75
VStem: 87 358
LayerCount: 2
Fore
SplineSet
445 0 m 1,0,-1
 78 0 l 1,1,-1
 78 104 l 1,2,-1
 287 397 l 1,3,-1
 87 397 l 1,4,-1
 87 501 l 1,5,-1
 435 501 l 1,6,-1
 435 401 l 1,7,-1
 225 104 l 1,8,-1
 445 104 l 1,9,-1
 445 0 l 1,0,-1
EndSplineSet
EndChar

StartChar: braceleft
Encoding: 123 123 92
Width: 363
Flags: HMW
HStem: -116 99<293 324> 232 68 730 92<293 322>
VStem: 78 124<354 354> 152 110<120 247 247 253> 293 31
LayerCount: 2
Fore
SplineSet
324 -17 m 1,0,-1
 293 -116 l 1,1,2
 238 -101 238 -101 209.5 -78 c 128,-1,3
 181 -55 181 -55 166.5 -8.5 c 128,-1,4
 152 38 152 38 152 120 c 2,5,-1
 152 247 l 2,6,7
 152 266 152 266 136 290.5 c 128,-1,8
 120 315 120 315 109.5 325 c 128,-1,9
 99 335 99 335 78 354 c 1,10,11
 102 373 102 373 126 404 c 128,-1,12
 150 435 150 435 150 462 c 2,13,-1
 150 567 l 2,14,15
 150 693 150 693 181 751.5 c 128,-1,16
 212 810 212 810 293 822 c 1,17,-1
 322 730 l 1,18,19
 296 730 296 730 278 705 c 128,-1,20
 260 680 260 680 260 625 c 2,21,-1
 260 456 l 2,22,23
 260 413 260 413 202 355 c 1,24,25
 262 295 262 295 262 253 c 2,26,-1
 262 87 l 2,27,28
 262 30 262 30 277.5 6.5 c 128,-1,29
 293 -17 293 -17 324 -17 c 1,0,-1
EndSplineSet
EndChar

StartChar: bar
Encoding: 124 124 93
Width: 268
Flags: HMW
HStem: -214 1000
VStem: 78 110<-114 817>
LayerCount: 2
Fore
SplineSet
188 -114 m 1,0,-1
 78 -114 l 1,1,-1
 78 817 l 1,2,-1
 188 817 l 1,3,-1
 188 -114 l 1,0,-1
EndSplineSet
EndChar

StartChar: braceright
Encoding: 125 125 94
Width: 363
Flags: HMW
HStem: -116 37 -116 99<78 109> 232 68 253 203<140 142> 730 92<80 109> 785 37
VStem: 46 60 78 31 140 110<87 120 120 247> 200 124<355 355>
LayerCount: 2
Fore
SplineSet
109 -116 m 1,0,-1
 78 -17 l 1,1,2
 109 -17 109 -17 124.5 6.5 c 128,-1,3
 140 30 140 30 140 87 c 2,4,-1
 140 253 l 2,5,6
 140 295 140 295 200 355 c 1,7,8
 142 413 142 413 142 456 c 2,9,-1
 142 625 l 2,10,11
 142 680 142 680 124 705 c 128,-1,12
 106 730 106 730 80 730 c 1,13,-1
 109 822 l 1,14,15
 190 810 190 810 221 751.5 c 128,-1,16
 252 693 252 693 252 567 c 2,17,-1
 252 462 l 2,18,19
 252 435 252 435 276 404 c 128,-1,20
 300 373 300 373 324 354 c 1,21,22
 303 335 303 335 292.5 325 c 128,-1,23
 282 315 282 315 266 290.5 c 128,-1,24
 250 266 250 266 250 247 c 2,25,-1
 250 120 l 2,26,27
 250 38 250 38 235.5 -8.5 c 128,-1,28
 221 -55 221 -55 192.5 -78 c 128,-1,29
 164 -101 164 -101 109 -116 c 1,0,-1
EndSplineSet
EndChar

StartChar: asciitilde
Encoding: 126 126 95
Width: 539
Flags: HMW
HStem: 183 98 297 81
VStem: 82 401
LayerCount: 2
Fore
SplineSet
456 379 m 1,0,-1
 500 308 l 1,1,2
 468 267 468 267 427 256.5 c 0,3,4
 406.976744186 251.372093023 406.976744186 251.372093023 387.191995673 251.372093023 c 0,5,6
 366.465116279 251.372093023 366.465116279 251.372093023 346 257 c 0,7,8
 306 268 306 268 267 280 c 0,9,10
 239.470588235 288.470588235 239.470588235 288.470588235 211.692041522 288.470588235 c 0,11,12
 200.117647059 288.470588235 200.117647059 288.470588235 188.5 287 c 0,13,14
 149 282 149 282 120 249 c 1,15,-1
 78 319 l 1,16,17
 111 360 111 360 153 370.5 c 0,18,19
 174.512195122 375.87804878 174.512195122 375.87804878 195.499702558 375.87804878 c 0,20,21
 215.487804878 375.87804878 215.487804878 375.87804878 235 371 c 0,22,23
 275 361 275 361 314.5 350 c 0,24,25
 343.466666667 341.933333333 343.466666667 341.933333333 371.357777778 341.933333333 c 0,26,27
 381.5 341.933333333 381.5 341.933333333 391.5 343 c 0,28,29
 429 347 429 347 456 379 c 1,0,-1
EndSplineSet
EndChar

StartChar: exclamdown
Encoding: 161 161 96
Width: 274
Flags: HMW
HStem: -198 21G 0 127 406 111
VStem: 101 67 111 47
LayerCount: 2
Fore
SplineSet
78 69 m 1,0,-1
 97 590 l 1,1,-1
 173 590 l 1,2,-1
 194 68 l 1,3,4
 194 0 194 0 134 0 c 0,5,6
 78 0 78 0 78 69 c 1,0,-1
136 609 m 0,7,8
 116 609 116 609 101 624 c 128,-1,9
 86 639 86 639 86 660 c 0,10,11
 86 680 86 680 101 695 c 128,-1,12
 116 710 116 710 136 710 c 0,13,14
 157 710 157 710 172 695 c 128,-1,15
 187 680 187 680 187 660 c 0,16,17
 187 639 187 639 172 624 c 128,-1,18
 157 609 157 609 136 609 c 0,7,8
EndSplineSet
EndChar

StartChar: cent
Encoding: 162 162 97
Width: 439
Flags: HMW
HStem: -12 75 454 75
VStem: 78 141<180 308 308 366.5> 88 90 219 109<-114 -7 -114 -5 113 382 382 382 505 623> 314 39
LayerCount: 2
Fore
SplineSet
328 -114 m 1,0,-1
 219 -114 l 1,1,-1
 219 -5 l 1,2,3
 199 -1 199 -1 190 2 c 0,4,5
 131 22 131 22 104.5 63.5 c 128,-1,6
 78 105 78 105 78 180 c 2,7,-1
 78 308 l 2,8,9
 78 392 78 392 116.5 442 c 128,-1,10
 155 492 155 492 219 505 c 1,11,-1
 219 623 l 1,12,-1
 328 623 l 1,13,-1
 328 502 l 1,14,15
 362 495 362 495 398 478 c 1,16,-1
 368 383 l 1,17,18
 340 393 340 393 328 396 c 1,19,-1
 328 103 l 1,20,21
 356 108 356 108 370 114 c 1,22,-1
 400 6 l 1,23,24
 358 -4 358 -4 328 -7 c 1,25,-1
 328 -114 l 1,0,-1
219 113 m 1,26,-1
 219 382 l 1,27,28
 188 358 188 358 188 314 c 2,29,-1
 188 169 l 2,30,31
 188 129 188 129 219 113 c 1,26,-1
EndSplineSet
EndChar

StartChar: fraction
Encoding: 8260 8260 98
Width: 554
Flags: HMW
HStem: 705 20G
VStem: 20 499
LayerCount: 2
Fore
SplineSet
196 -114 m 1,0,-1
 78 -114 l 1,1,-1
 402 817 l 1,2,-1
 515 817 l 1,3,-1
 196 -114 l 1,0,-1
EndSplineSet
EndChar

StartChar: yen
Encoding: 165 165 99
Width: 589
Flags: HMW
HStem: 0 21G<258 369 258 258> 174 60 287 80 309 60 694 20G
VStem: 156 320<204 309 204 309 357 462 204 462> 258 111<0 204 309 315>
LayerCount: 2
Fore
SplineSet
369 0 m 1,0,-1
 258 0 l 1,1,-1
 258 204 l 1,2,-1
 156 204 l 1,3,-1
 156 309 l 1,4,-1
 258 309 l 1,5,-1
 258 315 l 1,6,-1
 238 357 l 1,7,-1
 156 357 l 1,8,-1
 156 462 l 1,9,-1
 189 462 l 1,10,-1
 78 700 l 1,11,-1
 194 700 l 1,12,-1
 300 462 l 1,13,-1
 326 462 l 1,14,-1
 433 700 l 1,15,-1
 550 700 l 1,16,-1
 438 462 l 1,17,-1
 476 462 l 1,18,-1
 476 357 l 1,19,-1
 388 357 l 1,20,-1
 369 315 l 1,21,-1
 369 309 l 1,22,-1
 476 309 l 1,23,-1
 476 204 l 1,24,-1
 369 204 l 1,25,-1
 369 0 l 1,0,-1
EndSplineSet
EndChar

StartChar: section
Encoding: 167 167 100
Width: 594
Flags: HMW
HStem: -198 75 656 75
VStem: 76 82 124 85 421 85
LayerCount: 2
Fore
SplineSet
78 -8 m 1,0,-1
 192 -8 l 1,1,2
 192 -40 192 -40 222.5 -68.5 c 128,-1,3
 253 -97 253 -97 313 -97 c 0,4,5
 341 -97 341 -97 366.5 -91.5 c 128,-1,6
 392 -86 392 -86 416 -64 c 128,-1,7
 440 -42 440 -42 440 -6 c 0,8,9
 440 26 440 26 420 48.5 c 128,-1,10
 400 71 400 71 368 85 c 128,-1,11
 336 99 336 99 298 111.5 c 128,-1,12
 260 124 260 124 222.5 141.5 c 128,-1,13
 185 159 185 159 154.5 183.5 c 128,-1,14
 124 208 124 208 106.5 250 c 0,15,16
 91.5609756098 285.853658537 91.5609756098 285.853658537 91.5609756098 332.638310529 c 0,17,18
 91.5609756098 340.658536585 91.5609756098 340.658536585 92 349 c 0,19,20
 95 404 95 404 128 445 c 1,21,22
 96 485 96 485 96 540 c 0,23,24
 96 610 96 610 154 661 c 128,-1,25
 212 712 212 712 321 712 c 0,26,27
 404 712 404 712 467 682 c 1,28,-1
 460.5 664 l 2,29,30
 454 646 454 646 444.5 620.5 c 128,-1,31
 435 595 435 595 430 579 c 1,32,33
 375 607 375 607 323 607 c 0,34,35
 256 607 256 607 232.5 587.5 c 128,-1,36
 209 568 209 568 209 537 c 0,37,38
 209 512 209 512 233 493.5 c 128,-1,39
 257 475 257 475 293 464 c 128,-1,40
 329 453 329 453 372 435 c 128,-1,41
 415 417 415 417 453 396 c 128,-1,42
 491 375 491 375 519 333.5 c 128,-1,43
 547 292 547 292 553 236 c 0,44,45
 554.391304348 223.47826087 554.391304348 223.47826087 554.391304348 210.170132325 c 0,46,47
 554.391304348 185.217391304 554.391304348 185.217391304 549.5 157.5 c 0,48,49
 542 115 542 115 530 92 c 1,50,51
 553 57 553 57 553 6 c 0,52,53
 553 -86 553 -86 494.5 -141.5 c 128,-1,54
 436 -197 436 -197 314 -197 c 0,55,56
 205 -197 205 -197 142.5 -139.5 c 128,-1,57
 80 -82 80 -82 78 -8 c 1,0,-1
439 171 m 1,58,59
 446 197 446 197 446 220 c 0,60,61
 446 258 446 258 414 288.5 c 128,-1,62
 382 319 382 319 343.5 334 c 128,-1,63
 305 349 305 349 264.5 363.5 c 128,-1,64
 224 378 224 378 216 384 c 1,65,66
 203 364 203 364 203 326 c 0,67,68
 203 279 203 279 240 253 c 128,-1,69
 277 227 277 227 345 206.5 c 128,-1,70
 413 186 413 186 439 171 c 1,58,59
EndSplineSet
EndChar

StartChar: currency
Encoding: 164 164 101
Width: 507
Flags: HMW
HStem: 101 75 524 75
VStem: 25 85 440 85
LayerCount: 2
Fore
SplineSet
390 126 m 1,0,-1
 351 166 l 1,1,2
 317 148 317 148 274 148 c 0,3,4
 228 148 228 148 197 166 c 1,5,-1
 160 125 l 1,6,-1
 85 202 l 1,7,-1
 121 235 l 1,8,9
 99 265 99 265 99 323 c 0,10,11
 99 359 99 359 118 402 c 1,12,-1
 78 440 l 1,13,-1
 161 517 l 1,14,-1
 194 480 l 1,15,16
 224 499 224 499 274 499 c 0,17,18
 332 499 332 499 351 480 c 1,19,-1
 389 518 l 1,20,-1
 468 440 l 1,21,-1
 429 407 l 1,22,23
 431 402 431 402 435 391.5 c 128,-1,24
 439 381 439 381 441 376 c 128,-1,25
 443 371 443 371 445.5 362 c 128,-1,26
 448 353 448 353 449 344 c 128,-1,27
 450 335 450 335 450 323 c 0,28,29
 450 308 450 308 448 295.5 c 128,-1,30
 446 283 446 283 444 276.5 c 128,-1,31
 442 270 442 270 436.5 256.5 c 128,-1,32
 431 243 431 243 429 236 c 1,33,-1
 464 203 l 1,34,-1
 390 126 l 1,0,-1
347 323 m 0,35,36
 347 354 347 354 325.5 375.5 c 128,-1,37
 304 397 304 397 274 397 c 0,38,39
 243 397 243 397 221.5 375.5 c 128,-1,40
 200 354 200 354 200 323 c 0,41,42
 200 293 200 293 221.5 272 c 128,-1,43
 243 251 243 251 274 251 c 0,44,45
 304 251 304 251 325.5 272 c 128,-1,46
 347 293 347 293 347 323 c 0,35,36
EndSplineSet
EndChar

StartChar: quotesingle
Encoding: 39 39 102
Width: 174
Flags: HMW
HStem: 456 258 694 20G
VStem: 46 90<695 721.5>
LayerCount: 2
Fore
SplineSet
122 589 m 1,0,-1
 60 589 l 1,1,-1
 46 695 l 1,2,3
 46 720 46 720 68.5 731.5 c 0,4,5
 80.2613636364 737.511363636 80.2613636364 737.511363636 92.0227272727 737.511363636 c 0,6,-1
 113.5 732.5 l 0,7,8
 136 722 136 722 136 695 c 1,9,-1
 122 589 l 1,0,-1
EndSplineSet
EndChar

StartChar: quotedblleft
Encoding: 8220 8220 103
Width: 294
Flags: HMW
HStem: 456 111 523 111 664 50
VStem: 4 106<585 590.5 570.5 619> 52 69 154 106<585 590.5 570.5 619> 202 69
LayerCount: 2
Fore
SplineSet
218 637 m 1,0,-1
 230 634 l 1,1,2
 260 620 260 620 260 586 c 0,3,4
 260 563 260 563 244 547.5 c 0,5,6
 228.96969697 532.939393939 228.96969697 532.939393939 206.879706152 532.939393939 c 0,7,8
 205.454545455 532.939393939 205.454545455 532.939393939 204 533 c 0,9,10
 178 534 178 534 166 554 c 128,-1,11
 154 574 154 574 154 596 c 0,12,13
 154 630 154 630 169.5 657 c 128,-1,14
 185 684 185 684 221 718 c 1,15,-1
 290 689 l 1,16,17
 269 677 269 677 251 664 c 128,-1,18
 233 651 233 651 225.5 644 c 2,19,-1
 218 637 l 1,0,-1
68 637 m 1,20,-1
 80 634 l 1,21,22
 110 620 110 620 110 586 c 0,23,24
 110 563 110 563 94 547.5 c 0,25,26
 78.9696969697 532.939393939 78.9696969697 532.939393939 56.8797061524 532.939393939 c 0,27,28
 55.4545454545 532.939393939 55.4545454545 532.939393939 54 533 c 0,29,30
 28 534 28 534 16 554 c 128,-1,31
 4 574 4 574 4 596 c 0,32,33
 4 630 4 630 19.5 657 c 128,-1,34
 35 684 35 684 71 718 c 1,35,-1
 140 689 l 1,36,37
 119 677 119 677 101 664 c 128,-1,38
 83 651 83 651 75.5 644 c 2,39,-1
 68 637 l 1,20,-1
EndSplineSet
EndChar

StartChar: guillemotleft
Encoding: 171 171 104
Width: 523
Flags: HMW
HStem: 278 21G
VStem: 50 152 246 152
LayerCount: 2
Fore
SplineSet
301 148 m 1,0,-1
 229 80 l 1,1,-1
 42 267 l 1,2,-1
 42 268 l 1,3,-1
 229 455 l 1,4,-1
 302 383 l 1,5,-1
 182 267 l 1,6,-1
 301 148 l 1,0,-1
521 148 m 1,7,-1
 449 80 l 1,8,-1
 262 267 l 1,9,-1
 262 268 l 1,10,-1
 449 455 l 1,11,-1
 522 383 l 1,12,-1
 402 267 l 1,13,-1
 521 148 l 1,7,-1
EndSplineSet
EndChar

StartChar: guilsinglleft
Encoding: 8249 8249 105
Width: 303
Flags: HMW
HStem: 278 21G
VStem: 50 152
LayerCount: 2
Fore
SplineSet
301 148 m 1,0,-1
 229 80 l 1,1,-1
 42 267 l 1,2,-1
 42 268 l 1,3,-1
 229 455 l 1,4,-1
 302 383 l 1,5,-1
 182 267 l 1,6,-1
 301 148 l 1,0,-1
EndSplineSet
EndChar

StartChar: guilsinglright
Encoding: 8250 8250 106
Width: 299
Flags: HMW
HStem: 278 21G
VStem: 15 152 100 152
LayerCount: 2
Fore
SplineSet
73 80 m 1,0,-1
 1 148 l 1,1,-1
 120 267 l 1,2,-1
 0 383 l 1,3,-1
 73 455 l 1,4,-1
 260 268 l 1,5,-1
 260 267 l 1,6,-1
 73 80 l 1,0,-1
EndSplineSet
EndChar

StartChar: paragraph
Encoding: 182 182 107
Width: 722
Flags: HMW
HStem: 659 55
VStem: 319 68 512 68<-198 636 -199 637 -198 -198>
LayerCount: 2
Fore
SplineSet
683 -199 m 1,0,-1
 580 -199 l 1,1,-1
 580 636 l 1,2,-1
 512 637 l 1,3,-1
 512 -198 l 1,4,-1
 407 -199 l 1,5,-1
 407 246 l 1,6,-1
 255 246 l 2,7,8
 223 246 223 246 197 252.5 c 128,-1,9
 171 259 171 259 153 272.5 c 128,-1,10
 135 286 135 286 121.5 300.5 c 128,-1,11
 108 315 108 315 100.5 339 c 128,-1,12
 93 363 93 363 88 381 c 128,-1,13
 83 399 83 399 81 429 c 128,-1,14
 79 459 79 459 78.5 476 c 128,-1,15
 78 493 78 493 78 524 c 0,16,17
 78 624 78 624 124 687 c 128,-1,18
 170 750 170 750 264 750 c 2,19,-1
 683 750 l 1,20,-1
 683 -199 l 1,0,-1
EndSplineSet
EndChar

StartChar: bullet
Encoding: 8226 8226 108
Width: 474
Flags: HMW
HStem: 178 357
VStem: 78 357<287.5 386.5>
LayerCount: 2
Fore
SplineSet
256 158 m 128,-1,1
 182 158 182 158 130 210.5 c 128,-1,2
 78 263 78 263 78 337 c 128,-1,3
 78 411 78 411 130 463 c 128,-1,4
 182 515 182 515 256 515 c 128,-1,5
 330 515 330 515 382.5 463 c 128,-1,6
 435 411 435 411 435 337 c 128,-1,7
 435 263 435 263 382.5 210.5 c 128,-1,0
 330 158 330 158 256 158 c 128,-1,1
EndSplineSet
EndChar

StartChar: quotesinglbase
Encoding: 8218 8218 109
Width: 178
Flags: HMW
HStem: -147 50 0 111
VStem: 48 69
LayerCount: 2
Fore
SplineSet
70 -84 m 1,0,-1
 1 -55 l 1,1,2
 22 -43 22 -43 40 -30 c 128,-1,3
 58 -17 58 -17 65.5 -10 c 2,4,-1
 73 -3 l 1,5,-1
 61 0 l 1,6,7
 31 14 31 14 31 48 c 0,8,9
 31 71 31 71 47 86.5 c 0,10,11
 62.0303030303 101.060606061 62.0303030303 101.060606061 84.1202938476 101.060606061 c 0,12,13
 85.5454545455 101.060606061 85.5454545455 101.060606061 87 101 c 0,14,15
 113 100 113 100 125 80 c 128,-1,16
 137 60 137 60 137 38 c 0,17,18
 137 4 137 4 121.5 -23 c 128,-1,19
 106 -50 106 -50 70 -84 c 1,0,-1
EndSplineSet
EndChar

StartChar: quotedblbase
Encoding: 8222 8222 110
Width: 328
Flags: HMW
HStem: -147 50 0 111
VStem: 31 42 50 69 181 106<43.5 49 15 63.5> 200 69
LayerCount: 2
Fore
SplineSet
220 -84 m 1,0,-1
 151 -55 l 1,1,2
 172 -43 172 -43 190 -30 c 128,-1,3
 208 -17 208 -17 215.5 -10 c 2,4,-1
 223 -3 l 1,5,-1
 211 0 l 1,6,7
 181 14 181 14 181 48 c 0,8,9
 181 71 181 71 197 86.5 c 0,10,11
 212.03030303 101.060606061 212.03030303 101.060606061 234.120293848 101.060606061 c 0,12,13
 235.545454545 101.060606061 235.545454545 101.060606061 237 101 c 0,14,15
 263 100 263 100 275 80 c 128,-1,16
 287 60 287 60 287 38 c 0,17,18
 287 4 287 4 271.5 -23 c 128,-1,19
 256 -50 256 -50 220 -84 c 1,0,-1
70 -84 m 1,20,-1
 1 -55 l 1,21,22
 22 -43 22 -43 40 -30 c 128,-1,23
 58 -17 58 -17 65.5 -10 c 2,24,-1
 73 -3 l 1,25,-1
 61 0 l 1,26,27
 31 14 31 14 31 48 c 0,28,29
 31 71 31 71 47 86.5 c 0,30,31
 62.0303030303 101.060606061 62.0303030303 101.060606061 84.1202938476 101.060606061 c 0,32,33
 85.5454545455 101.060606061 85.5454545455 101.060606061 87 101 c 0,34,35
 113 100 113 100 125 80 c 128,-1,36
 137 60 137 60 137 38 c 0,37,38
 137 4 137 4 121.5 -23 c 128,-1,39
 106 -50 106 -50 70 -84 c 1,20,-1
EndSplineSet
EndChar

StartChar: quotedblright
Encoding: 8221 8221 111
Width: 294
Flags: HMW
HStem: 456 50 603 111 609 111
VStem: 34 42 51 104 184 106<652.5 658 624 672.5> 236 69
LayerCount: 2
Fore
SplineSet
223 525 m 1,0,-1
 154 554 l 1,1,2
 175 566 175 566 193 579 c 128,-1,3
 211 592 211 592 218.5 599 c 2,4,-1
 226 606 l 1,5,-1
 214 609 l 1,6,7
 184 623 184 623 184 657 c 0,8,9
 184 680 184 680 200 695.5 c 0,10,11
 215.03030303 710.060606061 215.03030303 710.060606061 237.120293848 710.060606061 c 0,12,13
 238.545454545 710.060606061 238.545454545 710.060606061 240 710 c 0,14,15
 266 709 266 709 278 689 c 128,-1,16
 290 669 290 669 290 647 c 0,17,18
 290 613 290 613 274.5 586 c 128,-1,19
 259 559 259 559 223 525 c 1,0,-1
73 525 m 1,20,-1
 4 554 l 1,21,22
 25 566 25 566 43 579 c 128,-1,23
 61 592 61 592 68.5 599 c 2,24,-1
 76 606 l 1,25,-1
 64 609 l 1,26,27
 34 623 34 623 34 657 c 0,28,29
 34 680 34 680 50 695.5 c 0,30,31
 65.0303030303 710.060606061 65.0303030303 710.060606061 87.1202938476 710.060606061 c 0,32,33
 88.5454545455 710.060606061 88.5454545455 710.060606061 90 710 c 0,34,35
 116 709 116 709 128 689 c 128,-1,36
 140 669 140 669 140 647 c 0,37,38
 140 613 140 613 124.5 586 c 128,-1,39
 109 559 109 559 73 525 c 1,20,-1
EndSplineSet
EndChar

StartChar: guillemotright
Encoding: 187 187 112
Width: 519
Flags: HMW
HStem: 278 21G
VStem: 17 152 213 152
LayerCount: 2
Fore
SplineSet
293 80 m 1,0,-1
 221 148 l 1,1,-1
 340 267 l 1,2,-1
 220 383 l 1,3,-1
 293 455 l 1,4,-1
 480 268 l 1,5,-1
 480 267 l 1,6,-1
 293 80 l 1,0,-1
73 80 m 1,7,-1
 1 148 l 1,8,-1
 120 267 l 1,9,-1
 0 383 l 1,10,-1
 73 455 l 1,11,-1
 260 268 l 1,12,-1
 260 267 l 1,13,-1
 73 80 l 1,7,-1
EndSplineSet
EndChar

StartChar: ellipsis
Encoding: 8230 8230 113
Width: 504
Flags: HMW
HStem: 0 111
VStem: 1 101<36.5 64> 17 66 197 66 232 0<0 0 101 101> 377 66 412 0<0 0 101 101>
LayerCount: 2
Fore
SplineSet
102 50 m 0,0,1
 102 30 102 30 87 15 c 128,-1,2
 72 0 72 0 51 0 c 0,3,4
 31 0 31 0 16 15 c 128,-1,5
 1 30 1 30 1 50 c 0,6,7
 1 71 1 71 16 86 c 128,-1,8
 31 101 31 101 51 101 c 0,9,10
 72 101 72 101 87 86 c 128,-1,11
 102 71 102 71 102 50 c 0,0,1
283 50 m 0,12,13
 283 30 283 30 268 15 c 128,-1,14
 253 0 253 0 232 0 c 0,15,16
 212 0 212 0 197 15 c 128,-1,17
 182 30 182 30 182 50 c 0,18,19
 182 71 182 71 197 86 c 128,-1,20
 212 101 212 101 232 101 c 0,21,22
 253 101 253 101 268 86 c 128,-1,23
 283 71 283 71 283 50 c 0,12,13
463 50 m 0,24,25
 463 30 463 30 448 15 c 128,-1,26
 433 0 433 0 412 0 c 0,27,28
 392 0 392 0 377 15 c 128,-1,29
 362 30 362 30 362 50 c 0,30,31
 362 71 362 71 377 86 c 128,-1,32
 392 101 392 101 412 101 c 0,33,34
 433 101 433 101 448 86 c 128,-1,35
 463 71 463 71 463 50 c 0,24,25
EndSplineSet
EndChar

StartChar: perthousand
Encoding: 8240 8240 114
Width: 1050
Flags: HMW
HStem: -11 176<857 877 857 907> 99 34 133 34 133 546 274 55 368 55 548 35 583 35 654 55 702 20G 711 20G
VStem: 131 56 198 35 233 35 375 50 448 50 510 34 544 34 686 50
LayerCount: 2
Fore
SplineSet
867 -11 m 128,-1,1
 807 -11 807 -11 765 31 c 128,-1,2
 723 73 723 73 723 133 c 128,-1,3
 723 193 723 193 765 235 c 128,-1,4
 807 277 807 277 867 277 c 128,-1,5
 927 277 927 277 969 235 c 128,-1,6
 1011 193 1011 193 1011 133 c 128,-1,7
 1011 73 1011 73 969 31 c 128,-1,0
 927 -11 927 -11 867 -11 c 128,-1,1
899 133 m 128,-1,9
 899 146 899 146 890 155.5 c 128,-1,10
 881 165 881 165 867 165 c 128,-1,11
 853 165 853 165 844 155.5 c 128,-1,12
 835 146 835 146 835 133 c 128,-1,13
 835 120 835 120 844 110.5 c 128,-1,14
 853 101 853 101 867 101 c 128,-1,15
 881 101 881 101 890 110.5 c 128,-1,8
 899 120 899 120 899 133 c 128,-1,9
161 -1 m 1,16,-1
 78 69 l 1,17,-1
 609 745 l 1,18,-1
 698 679 l 1,19,-1
 161 -1 l 1,16,-1
544 -11 m 128,-1,21
 484 -11 484 -11 442 31 c 128,-1,22
 400 73 400 73 400 133 c 128,-1,23
 400 193 400 193 442 235 c 128,-1,24
 484 277 484 277 544 277 c 128,-1,25
 604 277 604 277 646 235 c 128,-1,26
 688 193 688 193 688 133 c 128,-1,27
 688 73 688 73 646 31 c 128,-1,20
 604 -11 604 -11 544 -11 c 128,-1,21
578 133 m 128,-1,29
 578 147 578 147 569 157 c 128,-1,30
 560 167 560 167 544 167 c 128,-1,31
 528 167 528 167 519 157 c 128,-1,32
 510 147 510 147 510 133 c 128,-1,33
 510 119 510 119 519 109 c 128,-1,34
 528 99 528 99 544 99 c 128,-1,35
 560 99 560 99 569 109 c 128,-1,28
 578 119 578 119 578 133 c 128,-1,29
233 439 m 128,-1,37
 173 439 173 439 131 481 c 128,-1,38
 89 523 89 523 89 583 c 128,-1,39
 89 643 89 643 131 685 c 128,-1,40
 173 727 173 727 233 727 c 128,-1,41
 293 727 293 727 335 685 c 128,-1,42
 377 643 377 643 377 583 c 128,-1,43
 377 523 377 523 335 481 c 128,-1,36
 293 439 293 439 233 439 c 128,-1,37
268 583 m 0,44,45
 268 596 268 596 258 607 c 128,-1,46
 248 618 248 618 233 618 c 128,-1,47
 218 618 218 618 208 607 c 128,-1,48
 198 596 198 596 198 583 c 0,49,50
 198 569 198 569 208 558.5 c 128,-1,51
 218 548 218 548 233 548 c 128,-1,52
 248 548 248 548 258 558.5 c 128,-1,53
 268 569 268 569 268 583 c 0,44,45
EndSplineSet
EndChar

StartChar: questiondown
Encoding: 191 191 115
Width: 487
Flags: HMW
HStem: -210 75 406 111
VStem: -12 90 146 111 161 85 296 85
LayerCount: 2
Fore
SplineSet
336 177 m 1,0,-1
 448 177 l 1,1,2
 448 102 448 102 401.5 51 c 128,-1,3
 355 0 355 0 270 0 c 0,4,5
 218 0 218 0 173.5 27 c 128,-1,6
 129 54 129 54 104 95 c 0,7,8
 79.4901960784 135.196078431 79.4901960784 135.196078431 79.4901960784 186.926182238 c 0,9,10
 79.4901960784 241.258467023 79.4901960784 241.258467023 113 290 c 0,11,12
 131 316 131 316 157 344 c 128,-1,13
 183 372 183 372 195 387 c 128,-1,14
 207 402 207 402 216.5 437 c 128,-1,15
 226 472 226 472 227 527 c 1,16,-1
 227 590 l 1,17,-1
 336 590 l 1,18,-1
 336 497 l 2,19,20
 336 451 336 451 321.5 410.5 c 128,-1,21
 307 370 307 370 290 347 c 128,-1,22
 273 324 273 324 247.5 292.5 c 128,-1,23
 222 261 222 261 211 244 c 0,24,25
 190.166666667 209.833333333 190.166666667 209.833333333 190.166666667 182.958333333 c 0,26,27
 190.166666667 177.583333333 190.166666667 177.583333333 191 172.5 c 0,28,29
 196 142 196 142 216 123.5 c 128,-1,30
 236 105 236 105 259 105 c 0,31,32
 298 105 298 105 317 125 c 128,-1,33
 336 145 336 145 336 177 c 1,0,-1
283 608 m 0,34,35
 262 608 262 608 247 623 c 128,-1,36
 232 638 232 638 232 659 c 0,37,38
 232 679 232 679 247 694 c 128,-1,39
 262 709 262 709 283 709 c 0,40,41
 303 709 303 709 318 694 c 128,-1,42
 333 679 333 679 333 659 c 0,43,44
 333 638 333 638 318 623 c 128,-1,45
 303 608 303 608 283 608 c 0,34,35
EndSplineSet
EndChar

StartChar: grave
Encoding: 96 96 116
Width: 222
Flags: HMW
HStem: 588 143 730 143
VStem: 65 119 280 109
LayerCount: 2
Fore
SplineSet
184 590 m 1,0,-1
 111 590 l 1,1,-1
 62 653 l 2,2,3
 46.3043478261 674.47826087 46.3043478261 674.47826087 46.3043478261 691.520793951 c 0,4,5
 46.3043478261 695.108695652 46.3043478261 695.108695652 47 698.5 c 0,6,7
 51 718 51 718 71 728 c 1,8,9
 76.6774193548 732.129032258 76.6774193548 732.129032258 85.551508845 732.129032258 c 0,10,11
 93.8709677419 732.129032258 93.8709677419 732.129032258 105 728.5 c 0,12,13
 128 721 128 721 138 698 c 2,14,-1
 184 590 l 1,0,-1
EndSplineSet
EndChar

StartChar: acute
Encoding: 180 180 117
Width: 222
Flags: HMW
HStem: 588 143
VStem: 50 109
LayerCount: 2
Fore
SplineSet
119 588 m 1,0,-1
 46 588 l 1,1,-1
 92 696 l 2,2,3
 102 719 102 719 125 726.5 c 0,4,5
 136.129032258 730.129032258 136.129032258 730.129032258 144.448491155 730.129032258 c 0,6,7
 153.322580645 730.129032258 153.322580645 730.129032258 159 726 c 1,8,9
 179 716 179 716 183 696.5 c 0,10,11
 183.695652174 693.108695652 183.695652174 693.108695652 183.695652174 689.520793951 c 0,12,13
 183.695652174 672.47826087 183.695652174 672.47826087 168 651 c 2,14,-1
 119 588 l 1,0,-1
EndSplineSet
EndChar

StartChar: circumflex
Encoding: 710 710 118
Width: 374
Flags: HMW
HStem: 588 142 683 47
VStem: 64 251
LayerCount: 2
Fore
SplineSet
336 628 m 1,0,-1
 269 589 l 1,1,-1
 193 672 l 1,2,-1
 112 589 l 1,3,-1
 46 628 l 1,4,-1
 194 769 l 1,5,-1
 336 628 l 1,0,-1
EndSplineSet
EndChar

StartChar: tilde
Encoding: 732 732 119
Width: 468
Flags: HMW
HStem: 620 36 632 65<387 429>
VStem: 78 351<632 650>
LayerCount: 2
Fore
SplineSet
387 697 m 1,0,-1
 429 632 l 1,1,2
 395 592 395 592 361 583 c 0,3,4
 346.428571429 579.142857143 346.428571429 579.142857143 332.775510204 579.142857143 c 0,5,6
 314.571428571 579.142857143 314.571428571 579.142857143 298 586 c 0,7,8
 269 598 269 598 240.5 611 c 0,9,10
 218.045454545 621.242424242 218.045454545 621.242424242 193.107897153 621.242424242 c 0,11,12
 186.393939394 621.242424242 186.393939394 621.242424242 179.5 620.5 c 0,13,14
 147 617 147 617 117 585 c 1,15,-1
 78 650 l 1,16,17
 113 689 113 689 148 698.5 c 0,18,19
 163.833333333 702.797619048 163.833333333 702.797619048 178.43877551 702.797619048 c 0,20,21
 196.119047619 702.797619048 196.119047619 702.797619048 212 696.5 c 0,22,23
 241 685 241 685 269.5 672.5 c 0,24,25
 292.483870968 662.419354839 292.483870968 662.419354839 316.768470343 662.419354839 c 0,26,27
 322.596774194 662.419354839 322.596774194 662.419354839 328.5 663 c 0,28,29
 359 666 359 666 387 697 c 1,0,-1
EndSplineSet
EndChar

StartChar: macron
Encoding: 175 175 120
Width: 338
Flags: HMW
HStem: 619 91<78 299 78 299>
VStem: 18 341
LayerCount: 2
Fore
SplineSet
299 619 m 1,0,-1
 78 619 l 1,1,-1
 78 710 l 1,2,-1
 299 710 l 1,3,-1
 299 619 l 1,0,-1
EndSplineSet
EndChar

StartChar: breve
Encoding: 728 728 121
Width: 310
Flags: HMW
HStem: 582 78<151 168 151 190> 711 20G
VStem: 46 226<695 700 664 700>
LayerCount: 2
Fore
SplineSet
272 700 m 1,0,-1
 272 695 l 2,1,2
 272 648 272 648 239 615 c 128,-1,3
 206 582 206 582 159 582 c 128,-1,4
 112 582 112 582 79 615 c 128,-1,5
 46 648 46 648 46 695 c 2,6,-1
 46 700 l 1,7,-1
 129 700 l 1,8,-1
 129 695 l 2,9,10
 129 660 129 660 159 660 c 0,11,12
 173 660 173 660 181.5 669.5 c 128,-1,13
 190 679 190 679 190 695 c 2,14,-1
 190 700 l 1,15,-1
 272 700 l 1,0,-1
EndSplineSet
EndChar

StartChar: dotaccent
Encoding: 729 729 122
Width: 118
Flags: HMW
HStem: 592 104
VStem: -6 119
LayerCount: 2
Fore
SplineSet
60 643 m 0,0,1
 36 643 36 643 18 661 c 128,-1,2
 0 679 0 679 0 703 c 0,3,4
 0 726 0 726 18 743.5 c 128,-1,5
 36 761 36 761 60 761 c 0,6,7
 83 761 83 761 100.5 743.5 c 128,-1,8
 118 726 118 726 118 703 c 0,9,10
 118 679 118 679 100.5 661 c 128,-1,11
 83 643 83 643 60 643 c 0,0,1
EndSplineSet
EndChar

StartChar: ring
Encoding: 730 730 123
Width: 222
Flags: HMW
HStem: 632 30 662 29
VStem: 81 30
LayerCount: 2
Fore
SplineSet
111 632 m 128,-1,1
 124 632 124 632 132 640.5 c 128,-1,2
 140 649 140 649 140 662 c 128,-1,3
 140 675 140 675 132 683 c 128,-1,4
 124 691 124 691 111 691 c 128,-1,5
 98 691 98 691 89.5 683 c 128,-1,6
 81 675 81 675 81 662 c 128,-1,7
 81 649 81 649 89.5 640.5 c 128,-1,0
 98 632 98 632 111 632 c 128,-1,1
111 555 m 128,-1,9
 67 555 67 555 35.5 586.5 c 128,-1,10
 4 618 4 618 4 662 c 128,-1,11
 4 706 4 706 35.5 737.5 c 128,-1,12
 67 769 67 769 111 769 c 128,-1,13
 155 769 155 769 186.5 737.5 c 128,-1,14
 218 706 218 706 218 662 c 128,-1,15
 218 618 218 618 186.5 586.5 c 128,-1,8
 155 555 155 555 111 555 c 128,-1,9
EndSplineSet
EndChar

StartChar: cedilla
Encoding: 184 184 124
Width: 266
Flags: HMW
HStem: -232 69<168.5 192.5 168.5 196.5> -98 50
VStem: 216 93
LayerCount: 2
Fore
SplineSet
67 -211 m 1,0,-1
 101 -138 l 1,1,2
 138 -163 138 -163 179 -163 c 0,3,4
 203 -163 203 -163 221 -153.5 c 128,-1,5
 239 -144 239 -144 239 -123 c 128,-1,6
 239 -102 239 -102 219 -96 c 0,7,8
 213.545454545 -94.3636363636 213.545454545 -94.3636363636 206.975206612 -94.3636363636 c 0,9,10
 189.454545455 -94.3636363636 189.454545455 -94.3636363636 164 -106 c 1,11,-1
 120 -128 l 1,12,-1
 85 -78 l 1,13,-1
 146 0 l 1,14,-1
 216 0 l 1,15,-1
 189 -38 l 1,16,17
 208 -31 208 -31 223 -31 c 0,18,19
 257 -31 257 -31 283 -55.5 c 128,-1,20
 309 -80 309 -80 309 -123 c 0,21,22
 309 -178 309 -178 264.5 -205 c 128,-1,23
 220 -232 220 -232 169 -232 c 0,24,25
 124 -232 124 -232 67 -211 c 1,0,-1
EndSplineSet
EndChar

StartChar: hungarumlaut
Encoding: 733 733 125
Width: 288
Flags: HMW
HStem: 568 143 570 143 588 143
VStem: 8 109 28 239 34 109 150 109 154 109
LayerCount: 2
Fore
SplineSet
219 570 m 1,0,-1
 146 570 l 1,1,-1
 192 678 l 2,2,3
 202 701 202 701 225 708.5 c 0,4,5
 236.129032258 712.129032258 236.129032258 712.129032258 244.448491155 712.129032258 c 0,6,7
 253.322580645 712.129032258 253.322580645 712.129032258 259 708 c 1,8,9
 279 698 279 698 283 678.5 c 0,10,11
 283.695652174 675.108695652 283.695652174 675.108695652 283.695652174 671.520793951 c 0,12,13
 283.695652174 654.47826087 283.695652174 654.47826087 268 633 c 2,14,-1
 219 570 l 1,0,-1
77 568 m 1,15,-1
 4 568 l 1,16,-1
 50 676 l 2,17,18
 60 699 60 699 83 706.5 c 0,19,20
 94.1290322581 710.129032258 94.1290322581 710.129032258 102.448491155 710.129032258 c 0,21,22
 111.322580645 710.129032258 111.322580645 710.129032258 117 706 c 1,23,24
 137 696 137 696 141 676.5 c 0,25,26
 141.695652174 673.108695652 141.695652174 673.108695652 141.695652174 669.520793951 c 0,27,28
 141.695652174 652.47826087 141.695652174 652.47826087 126 631 c 2,29,-1
 77 568 l 1,15,-1
EndSplineSet
EndChar

StartChar: ogonek
Encoding: 731 731 126
Width: 222
Flags: HMW
HStem: -210 50
VStem: 76 68
LayerCount: 2
Fore
SplineSet
216 -107 m 1,0,-1
 265 -160 l 1,1,2
 247 -188 247 -188 221.5 -199 c 128,-1,3
 196 -210 196 -210 155 -210 c 0,4,5
 139 -210 139 -210 119.5 -202 c 128,-1,6
 100 -194 100 -194 83 -170.5 c 0,7,8
 67.7894736842 -149.473684211 67.7894736842 -149.473684211 67.7894736842 -120.842105263 c 0,9,10
 67.7894736842 -117.473684211 67.7894736842 -117.473684211 68 -114 c 0,11,12
 71 -52 71 -52 161 3 c 1,13,-1
 230 3 l 1,14,15
 139.647058824 -71.3529411765 139.647058824 -71.3529411765 139.647058824 -112.930795848 c 0,16,17
 139.647058824 -115.529411765 139.647058824 -115.529411765 140 -118 c 0,18,19
 144 -142 144 -142 173 -142 c 0,20,21
 182 -142 182 -142 194.5 -133.5 c 128,-1,22
 207 -125 207 -125 216 -107 c 1,0,-1
EndSplineSet
EndChar

StartChar: caron
Encoding: 711 711 127
Width: 374
Flags: HMW
HStem: 537 142 633 47
VStem: 13 300 38 251
LayerCount: 2
Fore
SplineSet
336 730 m 1,0,-1
 194 589 l 1,1,-1
 46 730 l 1,2,-1
 112 769 l 1,3,-1
 193 686 l 1,4,-1
 269 769 l 1,5,-1
 336 730 l 1,0,-1
EndSplineSet
EndChar

StartChar: ordfeminine
Encoding: 170 170 128
Width: 386
Flags: HMW
HStem: 380 50 659 50
VStem: 76 68 308 60
LayerCount: 2
Fore
SplineSet
347 555 m 2,0,-1
 347 391 l 1,1,2
 299 383 299 383 265 380.5 c 0,3,4
 251.923076923 379.538461538 251.923076923 379.538461538 238.25443787 379.538461538 c 0,5,6
 216.384615385 379.538461538 216.384615385 379.538461538 193 382 c 0,7,8
 155 386 155 386 132 400 c 128,-1,9
 109 414 109 414 93.5 444 c 128,-1,10
 78 474 78 474 78 519 c 0,11,12
 78 596 78 596 135.5 622.5 c 0,13,14
 158.763358779 633.221374046 158.763358779 633.221374046 183.418040907 633.221374046 c 0,15,16
 219.702290076 633.221374046 219.702290076 633.221374046 259 610 c 1,17,18
 259 611 259 611 259.012977305 613.243633645 c 0,19,20
 259 626 259 626 257.5 631 c 128,-1,21
 256 636 256 636 248 644 c 128,-1,22
 240 652 240 652 222 650.5 c 128,-1,23
 204 649 204 649 171 648 c 1,24,-1
 181 709 l 1,25,26
 194.116883117 709.649350649 194.116883117 709.649350649 206.078428065 709.649350649 c 0,27,28
 286.220779221 709.649350649 286.220779221 709.649350649 314.5 680.5 c 0,29,30
 347 647 347 647 347 555 c 2,0,-1
259 461 m 1,31,-1
 259 535 l 1,32,33
 234 549 234 549 213 554.5 c 0,34,35
 205.3 556.516666667 205.3 556.516666667 198.272222222 556.516666667 c 0,36,37
 186.133333333 556.516666667 186.133333333 556.516666667 176 550.5 c 0,38,39
 160 541 160 541 160 513 c 0,40,41
 160 457.952380952 160 457.952380952 224.87755102 457.952380952 c 0,42,43
 240.142857143 457.952380952 240.142857143 457.952380952 259 461 c 1,31,-1
EndSplineSet
EndChar

StartChar: Lslash
Encoding: 321 321 129
Width: 586
Flags: HMW
HStem: 0 80 694 20G
VStem: 186 95 186 110<101 309 309 309 457 700>
LayerCount: 2
Fore
SplineSet
547 0 m 1,0,-1
 186 0 l 1,1,-1
 186 309 l 1,2,-1
 114 277 l 1,3,-1
 78 358 l 1,4,-1
 186 407 l 1,5,-1
 186 700 l 1,6,-1
 296 700 l 1,7,-1
 296 457 l 1,8,-1
 369 490 l 1,9,-1
 406 409 l 1,10,-1
 296 359 l 1,11,-1
 296 101 l 1,12,-1
 547 101 l 1,13,-1
 547 0 l 1,0,-1
EndSplineSet
EndChar

StartChar: lslash
Encoding: 322 322 130
Width: 445
Flags: HMW
HStem: 0 21G<191 301 191 191> 496 20G 694 20G
VStem: 177 85 191 110<0 312 312 312 459 592 592 592>
LayerCount: 2
Fore
SplineSet
301 0 m 1,0,-1
 191 0 l 1,1,-1
 191 312 l 1,2,-1
 114 277 l 1,3,-1
 78 358 l 1,4,-1
 191 409 l 1,5,-1
 191 592 l 1,6,-1
 129 594 l 1,7,-1
 129 700 l 1,8,-1
 301 700 l 1,9,-1
 301 459 l 1,10,-1
 369 490 l 1,11,-1
 406 409 l 1,12,-1
 301 361 l 1,13,-1
 301 0 l 1,0,-1
EndSplineSet
EndChar

StartChar: mu
Encoding: 181 181 131
Width: 478
Flags: HMW
HStem: -201 21G<37 37> -12 75 497 20G
VStem: 306 111<195 497 497 497> 380 85
LayerCount: 2
Fore
SplineSet
444 27 m 1,0,-1
 344 -6 l 1,1,-1
 342.5 -4.5 l 2,2,3
 341 -3 341 -3 337.5 0.5 c 128,-1,4
 334 4 334 4 331 7 c 1,5,6
 306.357142857 -11.8928571429 306.357142857 -11.8928571429 258.098214286 -11.8928571429 c 0,7,8
 247.607142857 -11.8928571429 247.607142857 -11.8928571429 236 -11 c 1,9,10
 185 -4 185 -4 147 12 c 1,11,-1
 147 -210 l 1,12,-1
 37 -201 l 1,13,-1
 37 501 l 1,14,-1
 147 501 l 1,15,-1
 147 111 l 1,16,17
 152 106 152 106 185 98.5 c 0,18,19
 214.117647059 91.8823529412 214.117647059 91.8823529412 237.006920415 91.8823529412 c 0,20,21
 240.058823529 91.8823529412 240.058823529 91.8823529412 243 92 c 0,22,23
 306 96 306 96 306 195 c 2,24,-1
 306 497 l 1,25,-1
 417 510 l 1,26,-1
 417 69 l 1,27,28
 420 41 420 41 444 27 c 1,0,-1
EndSplineSet
EndChar

StartChar: trademark
Encoding: 8482 8482 132
Width: 565
Flags: HMW
HStem: 659 55
VStem: 105 63<512 700 512 700> 205 67 375 102<592 592>
LayerCount: 2
Fore
SplineSet
477 512 m 1,0,-1
 431 512 l 1,1,-1
 431 632 l 1,2,-1
 391 512 l 1,3,-1
 360 512 l 1,4,-1
 320 632 l 1,5,-1
 320 512 l 1,6,-1
 272 512 l 1,7,-1
 272 654 l 1,8,-1
 216 654 l 1,9,-1
 216 512 l 1,10,-1
 168 512 l 1,11,-1
 168 654 l 1,12,-1
 105 654 l 1,13,-1
 105 700 l 1,14,-1
 336 700 l 1,15,-1
 375 592 l 1,16,-1
 413 700 l 1,17,-1
 477 700 l 1,18,-1
 477 512 l 1,0,-1
EndSplineSet
EndChar

StartChar: plusminus
Encoding: 177 177 133
Width: 437
Flags: HMW
HStem: 0 68 271 68
VStem: 295 68
LayerCount: 2
Fore
SplineSet
398 208 m 1,0,-1
 78 208 l 1,1,-1
 78 306 l 1,2,-1
 187 306 l 1,3,-1
 187 348 l 1,4,-1
 78 348 l 1,5,-1
 78 437 l 1,6,-1
 187 437 l 1,7,-1
 187 545 l 1,8,-1
 288 545 l 1,9,-1
 288 437 l 1,10,-1
 398 437 l 1,11,-1
 398 348 l 1,12,-1
 288 348 l 1,13,-1
 288 306 l 1,14,-1
 398 306 l 1,15,-1
 398 208 l 1,0,-1
EndSplineSet
EndChar

StartChar: divide
Encoding: 247 247 134
Width: 437
Flags: HMW
HStem: -17 21G 219 68 503 20G
VStem: 171 128
LayerCount: 2
Fore
SplineSet
398 339 m 1,0,-1
 78 339 l 1,1,-1
 78 428 l 1,2,-1
 398 428 l 1,3,-1
 398 339 l 1,0,-1
241 447 m 128,-1,5
 219 447 219 447 203 463 c 128,-1,6
 187 479 187 479 187 501 c 128,-1,7
 187 523 187 523 203 539 c 128,-1,8
 219 555 219 555 241 555 c 128,-1,9
 263 555 263 555 279 539 c 128,-1,10
 295 523 295 523 295 501 c 128,-1,11
 295 479 295 479 279 463 c 128,-1,4
 263 447 263 447 241 447 c 128,-1,5
241 208 m 128,-1,13
 219 208 219 208 203 224 c 128,-1,14
 187 240 187 240 187 262 c 128,-1,15
 187 284 187 284 203 300 c 128,-1,16
 219 316 219 316 241 316 c 128,-1,17
 263 316 263 316 279 300 c 128,-1,18
 295 284 295 284 295 262 c 128,-1,19
 295 240 295 240 279 224 c 128,-1,12
 263 208 263 208 241 208 c 128,-1,13
EndSplineSet
EndChar

StartChar: degree
Encoding: 176 176 135
Width: 405
Flags: HMW
HStem: 421 195<206 238 206 262> 514 195<206 238>
VStem: 78 195<552 577.5 552 605> 171 195<552 577.5>
LayerCount: 2
Fore
SplineSet
222 421 m 128,-1,1
 162 421 162 421 120 463 c 128,-1,2
 78 505 78 505 78 565 c 128,-1,3
 78 625 78 625 120 667 c 128,-1,4
 162 709 162 709 222 709 c 128,-1,5
 282 709 282 709 324 667 c 128,-1,6
 366 625 366 625 366 565 c 128,-1,7
 366 505 366 505 324 463 c 128,-1,0
 282 421 282 421 222 421 c 128,-1,1
273 565 m 0,8,9
 273 585 273 585 259 600.5 c 128,-1,10
 245 616 245 616 222 616 c 128,-1,11
 199 616 199 616 185 600.5 c 128,-1,12
 171 585 171 585 171 565 c 0,13,14
 171 544 171 544 185 529 c 128,-1,15
 199 514 199 514 222 514 c 128,-1,16
 245 514 245 514 259 529 c 128,-1,17
 273 544 273 544 273 565 c 0,8,9
EndSplineSet
EndChar

StartChar: registered
Encoding: 174 174 136
Width: 800
Flags: HMW
HStem: -17 55 327 55 521 55 676 55
VStem: 24 68 255 68 509 68 708 68
LayerCount: 2
Fore
SplineSet
555 39 m 1,0,-1
 447 39 l 1,1,-1
 388 229 l 1,2,-1
 382 229 l 1,3,-1
 382 39 l 1,4,-1
 278 39 l 1,5,-1
 278 476 l 1,6,-1
 391 476 l 2,7,8
 547 476 547 476 547 351 c 0,9,10
 547 327 547 327 544 311 c 128,-1,11
 541 295 541 295 526 275 c 128,-1,12
 511 255 511 255 483 241 c 1,13,-1
 555 39 l 1,0,-1
382 313 m 1,14,-1
 404 313 l 2,15,16
 440 313 440 313 440 349 c 0,17,18
 440 365 440 365 433 377 c 128,-1,19
 426 389 426 389 413 389 c 2,20,-1
 382 389 l 1,21,-1
 382 313 l 1,14,-1
401 -127 m 0,22,23
 245 -127 245 -127 135 -19 c 128,-1,24
 25 89 25 89 25 249 c 0,25,26
 25 407 25 407 134 514 c 128,-1,27
 243 621 243 621 401 621 c 0,28,29
 558 621 558 621 666 514 c 128,-1,30
 774 407 774 407 774 249 c 0,31,32
 774 89 774 89 665 -19 c 128,-1,33
 556 -127 556 -127 401 -127 c 0,22,23
401 -20 m 0,34,35
 512 -20 512 -20 588 56 c 128,-1,36
 664 132 664 132 664 249 c 0,37,38
 664 360 664 360 587 437 c 128,-1,39
 510 514 510 514 401 514 c 0,40,41
 289 514 289 514 212.5 439 c 128,-1,42
 136 364 136 364 136 249 c 0,43,44
 136 131 136 131 212.5 55.5 c 128,-1,45
 289 -20 289 -20 401 -20 c 0,34,35
EndSplineSet
EndChar

StartChar: multiply
Encoding: 215 215 137
Width: 432
Flags: HMW
HStem: 24 458
VStem: 81 311<218 218>
LayerCount: 2
Fore
SplineSet
392 218 m 1,0,-1
 322 157 l 1,1,-1
 235 260 l 1,2,-1
 149 156 l 1,3,-1
 81 218 l 1,4,-1
 175 333 l 1,5,-1
 78 448 l 1,6,-1
 149 508 l 1,7,-1
 235 405 l 1,8,-1
 321 509 l 1,9,-1
 393 451 l 1,10,-1
 295 333 l 1,11,-1
 392 218 l 1,0,-1
EndSplineSet
EndChar

StartChar: copyright
Encoding: 169 169 138
Width: 800
Flags: HMW
HStem: -17 55 128 55 530 55 676 55
VStem: 24 68 191 68 708 68
LayerCount: 2
Fore
SplineSet
401 -127 m 0,0,1
 245 -127 245 -127 135 -19 c 128,-1,2
 25 89 25 89 25 249 c 0,3,4
 25 407 25 407 134 514 c 128,-1,5
 243 621 243 621 401 621 c 0,6,7
 558 621 558 621 666 514 c 128,-1,8
 774 407 774 407 774 249 c 0,9,10
 774 89 774 89 665 -19 c 128,-1,11
 556 -127 556 -127 401 -127 c 0,0,1
401 -20 m 0,12,13
 512 -20 512 -20 588 56 c 128,-1,14
 664 132 664 132 664 249 c 0,15,16
 664 360 664 360 587 437 c 128,-1,17
 510 514 510 514 401 514 c 0,18,19
 289 514 289 514 212.5 439 c 128,-1,20
 136 364 136 364 136 249 c 0,21,22
 136 131 136 131 212.5 55.5 c 128,-1,23
 289 -20 289 -20 401 -20 c 0,12,13
492 175 m 1,24,-1
 599 175 l 1,25,26
 583 103 583 103 529 59.5 c 128,-1,27
 475 16 475 16 405 16 c 0,28,29
 306 16 306 16 248.5 81 c 128,-1,30
 191 146 191 146 191 247 c 0,31,32
 191 343 191 343 248 410.5 c 128,-1,33
 305 478 305 478 403 478 c 0,34,35
 476 478 476 478 531 435 c 128,-1,36
 586 392 586 392 598 323 c 1,37,-1
 492 323 l 1,38,39
 487 340 487 340 460.5 353.5 c 128,-1,40
 434 367 434 367 401 367 c 0,41,42
 348 367 348 367 322 333 c 128,-1,43
 296 299 296 299 296 248 c 0,44,45
 296 196 296 196 323.5 161 c 128,-1,46
 351 126 351 126 402 126 c 0,47,48
 437 126 437 126 464.5 140 c 128,-1,49
 492 154 492 154 492 175 c 1,24,-1
EndSplineSet
EndChar

StartChar: Delta
Encoding: 8710 8710 139
Width: 622
Flags: HMW
HStem: 0 65 622 91
VStem: 97 586
LayerCount: 2
Fore
SplineSet
583 0 m 1,0,-1
 78 0 l 1,1,-1
 269 700 l 1,2,-1
 379 700 l 1,3,-1
 583 0 l 1,0,-1
434 101 m 1,4,-1
 329 482 l 1,5,-1
 227 101 l 1,6,-1
 434 101 l 1,4,-1
EndSplineSet
EndChar

StartChar: Omega
Encoding: 8486 8486 140
Width: 631
Flags: HMW
HStem: 0 66 639 67
VStem: 469 110<196 469 469 503> 628 81
LayerCount: 2
Fore
SplineSet
592 0 m 1,0,-1
 364 0 l 1,1,-1
 364 101 l 1,2,3
 365 101 365 101 374.5 100.5 c 128,-1,4
 384 100 384 100 390 100 c 128,-1,5
 396 100 396 100 407 102 c 128,-1,6
 418 104 418 104 425.5 107.5 c 128,-1,7
 433 111 433 111 442 118 c 128,-1,8
 451 125 451 125 456 135 c 128,-1,9
 461 145 461 145 465 160.5 c 128,-1,10
 469 176 469 176 469 196 c 2,11,-1
 469 469 l 2,12,13
 469 526 469 526 445 558 c 128,-1,14
 421 590 421 590 376 590 c 2,15,-1
 299 590 l 2,16,17
 247 590 247 590 223.5 563 c 128,-1,18
 200 536 200 536 200 469 c 2,19,-1
 200 195 l 2,20,21
 200 172 200 172 204.5 155 c 128,-1,22
 209 138 209 138 217.5 128 c 128,-1,23
 226 118 226 118 234.5 111.5 c 128,-1,24
 243 105 243 105 256 103 c 128,-1,25
 269 101 269 101 275.5 100.5 c 128,-1,26
 282 100 282 100 293.5 100.5 c 128,-1,27
 305 101 305 101 306 101 c 1,28,-1
 306 0 l 1,29,-1
 78 0 l 1,30,-1
 95 101 l 1,31,-1
 113 101 l 1,32,33
 91 136 91 136 91 196 c 2,34,-1
 91 503 l 2,35,36
 91 595 91 595 138 651 c 128,-1,37
 185 707 185 707 279 707 c 2,38,-1
 391 707 l 2,39,40
 485 707 485 707 532 651 c 128,-1,41
 579 595 579 595 579 503 c 2,42,-1
 579 196 l 2,43,44
 579 168 579 168 575 149.5 c 128,-1,45
 571 131 571 131 564.5 118 c 128,-1,46
 558 105 558 105 557 101 c 1,47,-1
 575 101 l 1,48,-1
 592 0 l 1,0,-1
EndSplineSet
EndChar

StartChar: pi
Encoding: 960 960 141
Width: 511
Flags: HMW
HStem: 0 21G<66 176 66 66> 449 68
VStem: 335 111 387 80
LayerCount: 2
Fore
SplineSet
474 62 m 1,0,-1
 409 -16 l 1,1,2
 406 -15 406 -15 401 -13 c 128,-1,3
 396 -11 396 -11 383 -3 c 128,-1,4
 370 5 370 5 360 15 c 128,-1,5
 350 25 350 25 342 44 c 128,-1,6
 334 63 334 63 334 85 c 2,7,-1
 335 398 l 1,8,-1
 176 398 l 1,9,-1
 176 0 l 1,10,-1
 66 0 l 1,11,-1
 66 501 l 1,12,-1
 445 501 l 1,13,-1
 445 104 l 1,14,15
 450 76 450 76 474 62 c 1,0,-1
EndSplineSet
EndChar

StartChar: uni00AD
Encoding: 173 173 142
Width: 410
Flags: HMW
HStem: 238 80
VStem: 50 289
LayerCount: 2
Fore
SplineSet
365 308 m 1,0,-1
 45 308 l 1,1,-1
 45 413 l 1,2,-1
 365 413 l 1,3,-1
 365 308 l 1,0,-1
EndSplineSet
EndChar

StartChar: f_l
Encoding: 64258 64258 143
Width: 454
Flags: HMW
HStem: 0 21G<78 190 78 78 303 415 303 303> 442 75 647 75 694 20G
VStem: 141 85 407 85
LayerCount: 2
Fore
SplineSet
415 0 m 1,0,-1
 303 0 l 1,1,-1
 303 593 l 1,2,3
 292 608 292 608 265 611 c 0,4,5
 260.736842105 611.473684211 260.736842105 611.473684211 256.548476454 611.473684211 c 0,6,7
 234.210526316 611.473684211 234.210526316 611.473684211 214 598 c 0,8,9
 190 582 190 582 190 549 c 2,10,-1
 190 501 l 1,11,-1
 277 501 l 1,12,-1
 253 398 l 1,13,-1
 190 398 l 1,14,-1
 190 0 l 1,15,-1
 78 0 l 1,16,-1
 78 517 l 2,17,18
 78 633 78 633 161 684 c 0,19,20
 203.33 710.01 203.33 710.01 268.5488 710.01 c 0,21,22
 331.21 710.01 331.21 710.01 415 686 c 1,23,-1
 415 0 l 1,0,-1
EndSplineSet
EndChar

StartChar: Epsilontonos
Encoding: 904 904 144
Width: 618
Flags: HMW
HStem: 0 50 100 208<355 461 355 577 355 577> 568 143 569 143 648 52
VStem: 82 109 88 109 245 56 577 2
LayerCount: 2
Fore
SplineSet
151 568 m 1,0,-1
 78 568 l 1,1,-1
 124 676 l 2,2,3
 134 699 134 699 157 706.5 c 0,4,5
 168.129032258 710.129032258 168.129032258 710.129032258 176.448491155 710.129032258 c 0,6,7
 185.322580645 710.129032258 185.322580645 710.129032258 191 706 c 1,8,9
 211 696 211 696 215 676.5 c 0,10,11
 215.695652174 673.108695652 215.695652174 673.108695652 215.695652174 669.520793951 c 0,12,13
 215.695652174 652.47826087 215.695652174 652.47826087 200 631 c 2,14,-1
 151 568 l 1,0,-1
577 0 m 1,15,-1
 245 0 l 1,16,-1
 245 700 l 1,17,-1
 579 700 l 1,18,-1
 579 590 l 1,19,-1
 355 590 l 1,20,-1
 355 413 l 1,21,-1
 492 413 l 1,22,-1
 461 308 l 1,23,-1
 355 308 l 1,24,-1
 355 100 l 1,25,-1
 577 100 l 1,26,-1
 577 0 l 1,15,-1
EndSplineSet
EndChar

StartChar: Etatonos
Encoding: 905 905 145
Width: 716
Flags: HMW
HStem: 568 143 569 143
VStem: 80 109 82 109 239 56 568 109<0 308 308 308 413 700> 613 56
LayerCount: 2
Fore
SplineSet
151 568 m 1,0,-1
 78 568 l 1,1,-1
 124 676 l 2,2,3
 134 699 134 699 157 706.5 c 0,4,5
 168.129032258 710.129032258 168.129032258 710.129032258 176.448491155 710.129032258 c 0,6,7
 185.322580645 710.129032258 185.322580645 710.129032258 191 706 c 1,8,9
 211 696 211 696 215 676.5 c 0,10,11
 215.695652174 673.108695652 215.695652174 673.108695652 215.695652174 669.520793951 c 0,12,13
 215.695652174 652.47826087 215.695652174 652.47826087 200 631 c 2,14,-1
 151 568 l 1,0,-1
677 0 m 1,15,-1
 568 0 l 1,16,-1
 568 308 l 1,17,-1
 357 308 l 1,18,-1
 357 0 l 1,19,-1
 247 0 l 1,20,-1
 247 700 l 1,21,-1
 357 700 l 1,22,-1
 357 413 l 1,23,-1
 568 413 l 1,24,-1
 568 700 l 1,25,-1
 677 700 l 1,26,-1
 677 0 l 1,15,-1
EndSplineSet
EndChar

StartChar: Iotatonos
Encoding: 906 906 146
Width: 447
Flags: HMW
HStem: 568 143 569 143
VStem: 82 109 141 109 298 110<0 592 592 592> 355 56
LayerCount: 2
Fore
SplineSet
408 0 m 1,0,-1
 298 0 l 1,1,-1
 298 592 l 1,2,-1
 236 594 l 1,3,-1
 236 700 l 1,4,-1
 408 700 l 1,5,-1
 408 0 l 1,0,-1
151 568 m 1,6,-1
 78 568 l 1,7,-1
 124 676 l 2,8,9
 134 699 134 699 157 706.5 c 0,10,11
 168.129032258 710.129032258 168.129032258 710.129032258 176.448491155 710.129032258 c 0,12,13
 185.322580645 710.129032258 185.322580645 710.129032258 191 706 c 1,14,15
 211 696 211 696 215 676.5 c 0,16,17
 215.695652174 673.108695652 215.695652174 673.108695652 215.695652174 669.520793951 c 0,18,19
 215.695652174 652.47826087 215.695652174 652.47826087 200 631 c 2,20,-1
 151 568 l 1,6,-1
EndSplineSet
EndChar

StartChar: Omicrontonos
Encoding: 908 908 147
Width: 654
Flags: HMW
HStem: 0 42 568 143 569 143 597 119<361 449.5>
VStem: 82 109 87 109 195 56 195 110<185 204 204 471> 505 110<206 470 470 506> 560 55
LayerCount: 2
Fore
SplineSet
615 506 m 2,0,-1
 615 185 l 2,1,2
 615 84 615 84 553.5 36.5 c 128,-1,3
 492 -11 492 -11 406 -11 c 128,-1,4
 320 -11 320 -11 257.5 36.5 c 128,-1,5
 195 84 195 84 195 185 c 2,6,-1
 195 507 l 2,7,8
 195 610 195 610 251.5 663 c 128,-1,9
 308 716 308 716 407 716 c 128,-1,10
 506 716 506 716 560.5 660 c 128,-1,11
 615 604 615 604 615 506 c 2,0,-1
505 206 m 2,12,-1
 505 470 l 2,13,14
 505 534 505 534 485.5 565.5 c 128,-1,15
 466 597 466 597 405 597 c 128,-1,16
 344 597 344 597 324.5 566.5 c 128,-1,17
 305 536 305 536 305 471 c 2,18,-1
 305 204 l 2,19,20
 305 156 305 156 329.5 128.5 c 128,-1,21
 354 101 354 101 405 101 c 0,22,23
 452 101 452 101 478.5 130 c 128,-1,24
 505 159 505 159 505 206 c 2,12,-1
151 568 m 1,25,-1
 78 568 l 1,26,-1
 124 676 l 2,27,28
 134 699 134 699 157 706.5 c 0,29,30
 168.129032258 710.129032258 168.129032258 710.129032258 176.448491155 710.129032258 c 0,31,32
 185.322580645 710.129032258 185.322580645 710.129032258 191 706 c 1,33,34
 211 696 211 696 215 676.5 c 0,35,36
 215.695652174 673.108695652 215.695652174 673.108695652 215.695652174 669.520793951 c 0,37,38
 215.695652174 652.47826087 215.695652174 652.47826087 200 631 c 2,39,-1
 151 568 l 1,25,-1
EndSplineSet
EndChar

StartChar: Upsilontonos
Encoding: 910 910 148
Width: 720
Flags: HMW
HStem: 0 21G 568 143 694 20G
VStem: 82 109 87 109 237 56 347 224<381 423 423 700> 496 35 624 57
LayerCount: 2
Fore
SplineSet
151 568 m 1,0,-1
 78 568 l 1,1,-1
 124 676 l 2,2,3
 134 699 134 699 157 706.5 c 0,4,5
 168.129032258 710.129032258 168.129032258 710.129032258 176.448491155 710.129032258 c 0,6,7
 185.322580645 710.129032258 185.322580645 710.129032258 191 706 c 1,8,9
 211 696 211 696 215 676.5 c 0,10,11
 215.695652174 673.108695652 215.695652174 673.108695652 215.695652174 669.520793951 c 0,12,13
 215.695652174 652.47826087 215.695652174 652.47826087 200 631 c 2,14,-1
 151 568 l 1,0,-1
531 -19 m 1,15,-1
 496 65 l 1,16,17
 529 69 529 69 550 90 c 128,-1,18
 571 111 571 111 571 164 c 2,19,-1
 571 220 l 1,20,21
 521 195 521 195 466 195 c 0,22,23
 363 195 363 195 300 254 c 128,-1,24
 237 313 237 313 237 413 c 2,25,-1
 237 700 l 1,26,-1
 347 700 l 1,27,-1
 347 423 l 2,28,29
 347 303 347 303 466 303 c 0,30,31
 478 303 478 303 488.5 304 c 128,-1,32
 499 305 499 305 507.5 307 c 128,-1,33
 516 309 516 309 523 311 c 128,-1,34
 530 313 530 313 536.5 316.5 c 128,-1,35
 543 320 543 320 547 322 c 128,-1,36
 551 324 551 324 555.5 328 c 128,-1,37
 560 332 560 332 562 334 c 128,-1,38
 564 336 564 336 567.5 339.5 c 2,39,-1
 571 343 l 1,40,-1
 571 700 l 1,41,-1
 681 700 l 1,42,-1
 681 156 l 2,43,44
 681 77 681 77 647 33 c 128,-1,45
 613 -11 613 -11 531 -19 c 1,15,-1
EndSplineSet
EndChar

StartChar: Omegatonos
Encoding: 911 911 149
Width: 725
Flags: HMW
HStem: 0 66 568 143 569 143 639 67
VStem: 80 109 82 109 209 81 563 110<196 469 469 503> 722 81
LayerCount: 2
Fore
SplineSet
686 0 m 1,0,-1
 458 0 l 1,1,-1
 458 101 l 1,2,3
 459 101 459 101 468.5 100.5 c 128,-1,4
 478 100 478 100 484 100 c 128,-1,5
 490 100 490 100 501 102 c 128,-1,6
 512 104 512 104 519.5 107.5 c 128,-1,7
 527 111 527 111 536 118 c 128,-1,8
 545 125 545 125 550 135 c 128,-1,9
 555 145 555 145 559 160.5 c 128,-1,10
 563 176 563 176 563 196 c 2,11,-1
 563 469 l 2,12,13
 563 526 563 526 539 558 c 128,-1,14
 515 590 515 590 470 590 c 2,15,-1
 393 590 l 2,16,17
 341 590 341 590 317.5 563 c 128,-1,18
 294 536 294 536 294 469 c 2,19,-1
 294 195 l 2,20,21
 294 172 294 172 298.5 155 c 128,-1,22
 303 138 303 138 311.5 128 c 128,-1,23
 320 118 320 118 328.5 111.5 c 128,-1,24
 337 105 337 105 350 103 c 128,-1,25
 363 101 363 101 369.5 100.5 c 128,-1,26
 376 100 376 100 387.5 100.5 c 128,-1,27
 399 101 399 101 400 101 c 1,28,-1
 400 0 l 1,29,-1
 172 0 l 1,30,-1
 189 101 l 1,31,-1
 207 101 l 1,32,33
 185 136 185 136 185 196 c 2,34,-1
 185 503 l 2,35,36
 185 595 185 595 232 651 c 128,-1,37
 279 707 279 707 373 707 c 2,38,-1
 485 707 l 2,39,40
 579 707 579 707 626 651 c 128,-1,41
 673 595 673 595 673 503 c 2,42,-1
 673 196 l 2,43,44
 673 168 673 168 669 149.5 c 128,-1,45
 665 131 665 131 658.5 118 c 128,-1,46
 652 105 652 105 651 101 c 1,47,-1
 669 101 l 1,48,-1
 686 0 l 1,0,-1
151 568 m 1,49,-1
 78 568 l 1,50,-1
 124 676 l 2,51,52
 134 699 134 699 157 706.5 c 0,53,54
 168.129032258 710.129032258 168.129032258 710.129032258 176.448491155 710.129032258 c 0,55,56
 185.322580645 710.129032258 185.322580645 710.129032258 191 706 c 1,57,58
 211 696 211 696 215 676.5 c 0,59,60
 215.695652174 673.108695652 215.695652174 673.108695652 215.695652174 669.520793951 c 0,61,62
 215.695652174 652.47826087 215.695652174 652.47826087 200 631 c 2,63,-1
 151 568 l 1,49,-1
EndSplineSet
EndChar

StartChar: iotatonos
Encoding: 943 943 150
Width: 278
Flags: HMW
HStem: 0 21G<78 188 78 78> 497 20G 538 143 610 104
VStem: 102 109 103 85 105 109
LayerCount: 2
Fore
SplineSet
174 538 m 1,0,-1
 101 538 l 1,1,-1
 147 646 l 2,2,3
 157 669 157 669 180 676.5 c 0,4,5
 191.129032258 680.129032258 191.129032258 680.129032258 199.448491155 680.129032258 c 0,6,7
 208.322580645 680.129032258 208.322580645 680.129032258 214 676 c 1,8,9
 234 666 234 666 238 646.5 c 0,10,11
 238.695652174 643.108695652 238.695652174 643.108695652 238.695652174 639.520793951 c 0,12,13
 238.695652174 622.47826087 238.695652174 622.47826087 223 601 c 2,14,-1
 174 538 l 1,0,-1
188 0 m 1,15,-1
 78 0 l 1,16,-1
 78 501 l 1,17,-1
 188 501 l 1,18,-1
 188 0 l 1,15,-1
EndSplineSet
EndChar

StartChar: etatonos
Encoding: 942 942 151
Width: 486
Flags: HMW
HStem: 0 21G<78 187 78 78> 454 75 497 20G 538 143
VStem: 87 85 244 109 253 109 338 109<-186 343 343 346> 430 85
LayerCount: 2
Fore
SplineSet
322 538 m 1,0,-1
 249 538 l 1,1,-1
 295 646 l 2,2,3
 305 669 305 669 328 676.5 c 0,4,5
 339.129032258 680.129032258 339.129032258 680.129032258 347.448491155 680.129032258 c 0,6,7
 356.322580645 680.129032258 356.322580645 680.129032258 362 676 c 1,8,9
 382 666 382 666 386 646.5 c 0,10,11
 386.695652174 643.108695652 386.695652174 643.108695652 386.695652174 639.520793951 c 0,12,13
 386.695652174 622.47826087 386.695652174 622.47826087 371 601 c 2,14,-1
 322 538 l 1,0,-1
447 -210 m 1,15,-1
 338 -186 l 1,16,-1
 338 343 l 2,17,18
 338 391 338 391 294.5 405.5 c 0,19,20
 281.494845361 409.835051546 281.494845361 409.835051546 266.657349346 409.835051546 c 0,21,22
 231.865979381 409.835051546 231.865979381 409.835051546 187 386 c 1,23,-1
 187 0 l 1,24,-1
 78 0 l 1,25,-1
 78 501 l 1,26,-1
 179 501 l 1,27,-1
 187 497 l 1,28,29
 215 508 215 508 263 509 c 0,30,31
 265.4 509.05 265.4 509.05 267.8075 509.05 c 0,32,33
 313.55 509.05 313.55 509.05 362 491 c 1,34,35
 447 452 447 452 447 346 c 2,36,-1
 447 -210 l 1,15,-1
EndSplineSet
EndChar

StartChar: epsilontonos
Encoding: 941 941 152
Width: 462
Flags: HMW
HStem: -12 75 336 68 538 143 634 75
VStem: 58 85 79 109 229 109 418 90
LayerCount: 2
Fore
SplineSet
298 538 m 1,0,-1
 225 538 l 1,1,-1
 271 646 l 2,2,3
 281 669 281 669 304 676.5 c 0,4,5
 315.129032258 680.129032258 315.129032258 680.129032258 323.448491155 680.129032258 c 0,6,7
 332.322580645 680.129032258 332.322580645 680.129032258 338 676 c 1,8,9
 358 666 358 666 362 646.5 c 0,10,11
 362.695652174 643.108695652 362.695652174 643.108695652 362.695652174 639.520793951 c 0,12,13
 362.695652174 622.47826087 362.695652174 622.47826087 347 601 c 2,14,-1
 298 538 l 1,0,-1
390 129 m 1,15,-1
 423 23 l 1,16,17
 345 -11 345 -11 253 -11 c 0,18,19
 176 -11 176 -11 130 30 c 128,-1,20
 84 71 84 71 79 132 c 0,21,22
 78.3636363636 141 78.3636363636 141 78.3636363636 149.553719008 c 0,23,24
 78.3636363636 235.090909091 78.3636363636 235.090909091 142 276 c 1,25,26
 123 291 123 291 108 326.5 c 0,27,28
 96.75 353.125 96.75 353.125 96.75 380.03125 c 0,29,30
 96.75 389 96.75 389 98 398 c 0,31,32
 105 453 105 453 149 482.5 c 0,33,34
 191.557377049 511.032786885 191.557377049 511.032786885 243.469766192 511.032786885 c 0,35,36
 245.229508197 511.032786885 245.229508197 511.032786885 247 511 c 0,37,38
 301 510 301 510 353 496 c 1,39,-1
 356 398 l 1,40,41
 330 407 330 407 306 411 c 0,42,43
 288.545454545 413.909090909 288.545454545 413.909090909 271.090909091 413.909090909 c 0,44,-1
 258 413.5 l 0,45,46
 234 412 234 412 219.5 397.5 c 128,-1,47
 205 383 205 383 205 356 c 128,-1,48
 205 329 205 329 231 315 c 128,-1,49
 257 301 257 301 299 301 c 2,50,-1
 352 301 l 1,51,-1
 321 195 l 1,52,-1
 277 195 l 2,53,54
 188 195 188 195 188 153 c 0,55,56
 188 101.927272727 188 101.927272727 272.50214876 101.927272727 c 0,57,58
 275.690909091 101.927272727 275.690909091 101.927272727 279 102 c 0,59,60
 310 102 310 102 337.5 109 c 128,-1,61
 365 116 365 116 377.5 122.5 c 2,62,-1
 390 129 l 1,15,-1
EndSplineSet
EndChar

StartChar: omegatonos
Encoding: 974 974 153
Width: 649
Flags: HMW
HStem: 538 143
VStem: 327 109 328 109 500 109
LayerCount: 2
Fore
SplineSet
396 538 m 1,0,-1
 323 538 l 1,1,-1
 369 646 l 2,2,3
 379 669 379 669 402 676.5 c 0,4,5
 413.129032258 680.129032258 413.129032258 680.129032258 421.448491155 680.129032258 c 0,6,7
 430.322580645 680.129032258 430.322580645 680.129032258 436 676 c 1,8,9
 456 666 456 666 460 646.5 c 0,10,11
 460.695652174 643.108695652 460.695652174 643.108695652 460.695652174 639.520793951 c 0,12,13
 460.695652174 622.47826087 460.695652174 622.47826087 445 601 c 2,14,-1
 396 538 l 1,0,-1
500 195 m 2,15,-1
 500 327 l 2,16,17
 500 378 500 378 487 400.5 c 128,-1,18
 474 423 474 423 443 438 c 1,19,-1
 503 500 l 1,20,21
 610 460 610 460 610 317 c 2,22,-1
 610 188 l 2,23,24
 610 -12 610 -12 449 -12 c 0,25,26
 379 -12 379 -12 344 41 c 1,27,28
 307 -12 307 -12 239 -12 c 0,29,30
 78 -12 78 -12 78 188 c 2,31,-1
 78 317 l 2,32,33
 78 460 78 460 185 500 c 1,34,-1
 247 438 l 1,35,36
 217 425 217 425 202.5 401 c 128,-1,37
 188 377 188 377 188 327 c 2,38,-1
 188 195 l 2,39,40
 188 141 188 141 199.5 121 c 128,-1,41
 211 101 211 101 236 101 c 0,42,43
 264 101 264 101 275.5 120 c 128,-1,44
 287 139 287 139 288 195 c 1,45,-1
 288 299 l 1,46,-1
 397 299 l 1,47,-1
 397 195 l 1,48,49
 398 139 398 139 409.5 120 c 128,-1,50
 421 101 421 101 452 101 c 0,51,52
 479 101 479 101 489.5 122.5 c 128,-1,53
 500 144 500 144 500 195 c 2,15,-1
EndSplineSet
EndChar

StartChar: upsilontonos
Encoding: 973 973 154
Width: 497
Flags: HMW
HStem: -12 75 497 20G 538 143
VStem: 86 85 253 109 256 109 348 110<227 501> 429 85
LayerCount: 2
Fore
SplineSet
322 538 m 1,0,-1
 249 538 l 1,1,-1
 295 646 l 2,2,3
 305 669 305 669 328 676.5 c 0,4,5
 339.129032258 680.129032258 339.129032258 680.129032258 347.448491155 680.129032258 c 0,6,7
 356.322580645 680.129032258 356.322580645 680.129032258 362 676 c 1,8,9
 382 666 382 666 386 646.5 c 0,10,11
 386.695652174 643.108695652 386.695652174 643.108695652 386.695652174 639.520793951 c 0,12,13
 386.695652174 622.47826087 386.695652174 622.47826087 371 601 c 2,14,-1
 322 538 l 1,0,-1
348 227 m 2,15,-1
 348 501 l 1,16,-1
 458 501 l 1,17,-1
 458 172 l 2,18,19
 458 -10 458 -10 266 -10 c 0,20,21
 78 -10 78 -10 78 172 c 2,22,-1
 78 501 l 1,23,-1
 188 501 l 1,24,-1
 188 225 l 2,25,26
 188 150 188 150 200.5 125.5 c 128,-1,27
 213 101 213 101 266 101 c 0,28,29
 322 101 322 101 335 126 c 128,-1,30
 348 151 348 151 348 227 c 2,15,-1
EndSplineSet
EndChar

StartChar: omicrontonos
Encoding: 972 972 155
Width: 490
Flags: HMW
HStem: -12 75 -10 108<245.5 286.5 245.5 332> 401 111<249 280.5> 454 75 538 143
VStem: 58 90 78 110<184 316> 243 109 248 109 342 109<174 184 184 316> 470 90
LayerCount: 2
Fore
SplineSet
312 538 m 1,0,-1
 239 538 l 1,1,-1
 285 646 l 2,2,3
 295 669 295 669 318 676.5 c 0,4,5
 329.129032258 680.129032258 329.129032258 680.129032258 337.448491155 680.129032258 c 0,6,7
 346.322580645 680.129032258 346.322580645 680.129032258 352 676 c 1,8,9
 372 666 372 666 376 646.5 c 0,10,11
 376.695652174 643.108695652 376.695652174 643.108695652 376.695652174 639.520793951 c 0,12,13
 376.695652174 622.47826087 376.695652174 622.47826087 361 601 c 2,14,-1
 312 538 l 1,0,-1
451 316 m 2,15,-1
 451 184 l 2,16,17
 451 100 451 100 405 45 c 128,-1,18
 359 -10 359 -10 266 -10 c 128,-1,19
 173 -10 173 -10 125.5 45.5 c 128,-1,20
 78 101 78 101 78 184 c 2,21,-1
 78 316 l 2,22,23
 78 411 78 411 126.5 461.5 c 128,-1,24
 175 512 175 512 266 512 c 0,25,26
 353 512 353 512 402 459.5 c 128,-1,27
 451 407 451 407 451 316 c 2,15,-1
342 174 m 2,28,-1
 342 316 l 2,29,30
 342 345 342 345 335 363.5 c 128,-1,31
 328 382 328 382 314.5 389.5 c 128,-1,32
 301 397 301 397 290.5 399 c 128,-1,33
 280 401 280 401 266 401 c 0,34,35
 188 401 188 401 188 316 c 2,36,-1
 188 174 l 2,37,38
 188 98 188 98 266 98 c 0,39,40
 299 98 299 98 320.5 117 c 128,-1,41
 342 136 342 136 342 174 c 2,28,-1
EndSplineSet
EndChar

StartChar: alphatonos
Encoding: 940 940 156
Width: 512
Flags: HMW
HStem: -198 21G -12 75 454 63 538 143
VStem: 86 90 241 109 271 109 333 110 491 85
LayerCount: 2
Fore
SplineSet
473 35 m 1,0,-1
 362 0 l 1,1,-1
 348 8 l 1,2,3
 312 -8 312 -8 268.5 -10.5 c 0,4,5
 261.25 -10.9166666667 261.25 -10.9166666667 253.986111111 -10.9166666667 c 0,6,7
 217.666666667 -10.9166666667 217.666666667 -10.9166666667 181 -0.5 c 0,8,9
 137 12 137 12 107.5 55.5 c 128,-1,10
 78 99 78 99 78 169 c 2,11,-1
 78 354 l 2,12,13
 78 410 78 410 99 445.5 c 128,-1,14
 120 481 120 481 150.5 493.5 c 128,-1,15
 181 506 181 506 219.5 507 c 0,16,17
 224.633333333 507.133333333 224.633333333 507.133333333 229.606666667 507.133333333 c 0,18,19
 261.933333333 507.133333333 261.933333333 507.133333333 287.5 501.5 c 0,20,21
 317 495 317 495 342 486 c 1,22,-1
 351 511 l 1,23,-1
 450 486 l 1,24,25
 443 421 443 421 443 389 c 2,26,-1
 443 77 l 1,27,28
 449 49 449 49 473 35 c 1,0,-1
332 110 m 1,29,-1
 332 384 l 1,30,31
 316 392 316 392 293 397 c 128,-1,32
 270 402 270 402 245.5 402.5 c 0,33,34
 244.592592593 402.518518519 244.592592593 402.518518519 243.696159122 402.518518519 c 0,35,36
 220.388888889 402.518518519 220.388888889 402.518518519 204.5 390 c 0,37,38
 188 377 188 377 188 351 c 2,39,-1
 188 211 l 2,40,41
 188 195 188 195 188 188.5 c 128,-1,42
 188 182 188 182 189.5 167 c 128,-1,43
 191 152 191 152 193 145.5 c 128,-1,44
 195 139 195 139 200 127.5 c 128,-1,45
 205 116 205 116 212 111.5 c 128,-1,46
 219 107 219 107 230 101.5 c 128,-1,47
 241 96 241 96 255 96 c 128,-1,48
 269 96 269 96 288.5 99 c 128,-1,49
 308 102 308 102 332 110 c 1,29,-1
310 538 m 1,50,-1
 237 538 l 1,51,-1
 283 646 l 2,52,53
 293 669 293 669 316 676.5 c 0,54,55
 327.129032258 680.129032258 327.129032258 680.129032258 335.448491155 680.129032258 c 0,56,57
 344.322580645 680.129032258 344.322580645 680.129032258 350 676 c 1,58,59
 370 666 370 666 374 646.5 c 0,60,61
 374.695652174 643.108695652 374.695652174 643.108695652 374.695652174 639.520793951 c 0,62,63
 374.695652174 622.47826087 374.695652174 622.47826087 359 601 c 2,64,-1
 310 538 l 1,50,-1
EndSplineSet
EndChar

StartChar: Upsilondieresis
Encoding: 65539 -1 157
Width: 561
Flags: HMW
HStem: 0 21G 694 20G
VStem: 78 56 78 110<413 423 423 700> 412 110<164 220 220 220 343 700> 465 57
LayerCount: 2
Fore
SplineSet
372 -19 m 1,0,-1
 337 65 l 1,1,2
 370 69 370 69 391 90 c 128,-1,3
 412 111 412 111 412 164 c 2,4,-1
 412 220 l 1,5,6
 362 195 362 195 307 195 c 0,7,8
 204 195 204 195 141 254 c 128,-1,9
 78 313 78 313 78 413 c 2,10,-1
 78 700 l 1,11,-1
 188 700 l 1,12,-1
 188 423 l 2,13,14
 188 303 188 303 307 303 c 0,15,16
 319 303 319 303 329.5 304 c 128,-1,17
 340 305 340 305 348.5 307 c 128,-1,18
 357 309 357 309 364 311 c 128,-1,19
 371 313 371 313 377.5 316.5 c 128,-1,20
 384 320 384 320 388 322 c 128,-1,21
 392 324 392 324 396.5 328 c 128,-1,22
 401 332 401 332 403 334 c 128,-1,23
 405 336 405 336 408.5 339.5 c 2,24,-1
 412 343 l 1,25,-1
 412 700 l 1,26,-1
 522 700 l 1,27,-1
 522 156 l 2,28,29
 522 77 522 77 488 33 c 128,-1,30
 454 -11 454 -11 372 -19 c 1,0,-1
279 775 m 0,31,32
 279 757 279 757 266 744 c 128,-1,33
 253 731 253 731 234 731 c 0,34,35
 216 731 216 731 203 744 c 128,-1,36
 190 757 190 757 190 775 c 0,37,38
 190 794 190 794 203 807 c 128,-1,39
 216 820 216 820 234 820 c 0,40,41
 253 820 253 820 266 807 c 128,-1,42
 279 794 279 794 279 775 c 0,31,32
367 731 m 128,-1,44
 348 731 348 731 335 744 c 128,-1,45
 322 757 322 757 322 776 c 128,-1,46
 322 795 322 795 335 808 c 128,-1,47
 348 821 348 821 367 821 c 128,-1,48
 386 821 386 821 399 808 c 128,-1,49
 412 795 412 795 412 776 c 128,-1,50
 412 757 412 757 399 744 c 128,-1,43
 386 731 386 731 367 731 c 128,-1,44
EndSplineSet
EndChar

StartChar: iotadieresis
Encoding: 970 970 158
Width: 279
Flags: HMW
HStem: 0 21G<75 185 75 75> 497 20G 610 104
VStem: 75 110<0 501> 110 85
LayerCount: 2
Fore
SplineSet
185 0 m 1,0,-1
 75 0 l 1,1,-1
 75 501 l 1,2,-1
 185 501 l 1,3,-1
 185 0 l 1,0,-1
107 583 m 0,4,5
 107 565 107 565 94 552 c 128,-1,6
 81 539 81 539 62 539 c 0,7,8
 44 539 44 539 31 552 c 128,-1,9
 18 565 18 565 18 583 c 0,10,11
 18 602 18 602 31 615 c 128,-1,12
 44 628 44 628 62 628 c 0,13,14
 81 628 81 628 94 615 c 128,-1,15
 107 602 107 602 107 583 c 0,4,5
195 539 m 128,-1,17
 176 539 176 539 163 552 c 128,-1,18
 150 565 150 565 150 584 c 128,-1,19
 150 603 150 603 163 616 c 128,-1,20
 176 629 176 629 195 629 c 128,-1,21
 214 629 214 629 227 616 c 128,-1,22
 240 603 240 603 240 584 c 128,-1,23
 240 565 240 565 227 552 c 128,-1,16
 214 539 214 539 195 539 c 128,-1,17
EndSplineSet
EndChar

StartChar: upsilondieresis
Encoding: 971 971 159
Width: 497
Flags: HMW
HStem: -12 75 497 20G
VStem: 111 80 348 110<227 501> 452 85
LayerCount: 2
Fore
SplineSet
252 583 m 0,0,1
 252 565 252 565 239 552 c 128,-1,2
 226 539 226 539 207 539 c 0,3,4
 189 539 189 539 176 552 c 128,-1,5
 163 565 163 565 163 583 c 0,6,7
 163 602 163 602 176 615 c 128,-1,8
 189 628 189 628 207 628 c 0,9,10
 226 628 226 628 239 615 c 128,-1,11
 252 602 252 602 252 583 c 0,0,1
340 539 m 128,-1,13
 321 539 321 539 308 552 c 128,-1,14
 295 565 295 565 295 584 c 128,-1,15
 295 603 295 603 308 616 c 128,-1,16
 321 629 321 629 340 629 c 128,-1,17
 359 629 359 629 372 616 c 128,-1,18
 385 603 385 603 385 584 c 128,-1,19
 385 565 385 565 372 552 c 128,-1,12
 359 539 359 539 340 539 c 128,-1,13
348 227 m 2,20,-1
 348 501 l 1,21,-1
 458 501 l 1,22,-1
 458 172 l 2,23,24
 458 -10 458 -10 266 -10 c 0,25,26
 78 -10 78 -10 78 172 c 2,27,-1
 78 501 l 1,28,-1
 188 501 l 1,29,-1
 188 225 l 2,30,31
 188 150 188 150 200.5 125.5 c 128,-1,32
 213 101 213 101 266 101 c 0,33,34
 322 101 322 101 335 126 c 128,-1,35
 348 151 348 151 348 227 c 2,20,-1
EndSplineSet
EndChar

StartChar: Iotadieresis
Encoding: 938 938 160
Width: 380
Flags: HMW
VStem: 80 62<0 700> 144 56
LayerCount: 2
Fore
SplineSet
176 775 m 0,0,1
 176 757 176 757 163 744 c 128,-1,2
 150 731 150 731 131 731 c 0,3,4
 113 731 113 731 100 744 c 128,-1,5
 87 757 87 757 87 775 c 0,6,7
 87 794 87 794 100 807 c 128,-1,8
 113 820 113 820 131 820 c 0,9,10
 150 820 150 820 163 807 c 128,-1,11
 176 794 176 794 176 775 c 0,0,1
264 731 m 128,-1,13
 245 731 245 731 232 744 c 128,-1,14
 219 757 219 757 219 776 c 128,-1,15
 219 795 219 795 232 808 c 128,-1,16
 245 821 245 821 264 821 c 128,-1,17
 283 821 283 821 296 808 c 128,-1,18
 309 795 309 795 309 776 c 128,-1,19
 309 757 309 757 296 744 c 128,-1,12
 283 731 283 731 264 731 c 128,-1,13
252 0 m 1,20,-1
 142 0 l 1,21,-1
 142 592 l 1,22,-1
 80 594 l 1,23,-1
 80 700 l 1,24,-1
 252 700 l 1,25,-1
 252 0 l 1,20,-1
EndSplineSet
EndChar

StartChar: Psi
Encoding: 936 936 161
Width: 632
Flags: HMW
VStem: 472 109<443 549>
LayerCount: 2
Fore
SplineSet
370 0 m 1,0,-1
 262 0 l 1,1,-1
 261 212 l 1,2,-1
 242 212 l 2,3,4
 147 212 147 212 100.5 263.5 c 128,-1,5
 54 315 54 315 54 406 c 2,6,-1
 54 700 l 1,7,-1
 163 700 l 1,8,-1
 163 441 l 2,9,10
 163 363 163 363 176 335.5 c 128,-1,11
 189 308 189 308 242 308 c 2,12,-1
 261 308 l 1,13,-1
 261 700 l 1,14,-1
 370 700 l 1,15,-1
 370 308 l 1,16,-1
 393 308 l 2,17,18
 446 308 446 308 459 336.5 c 128,-1,19
 472 365 472 365 472 443 c 2,20,-1
 472 564 l 2,21,22
 472 589 472 589 470.5 605 c 128,-1,23
 469 621 469 621 462.5 632 c 128,-1,24
 456 643 456 643 454 646.5 c 128,-1,25
 452 650 452 650 439.5 657.5 c 128,-1,26
 427 665 427 665 425 667 c 1,27,-1
 525 709 l 1,28,29
 552 692 552 692 565 662.5 c 128,-1,30
 578 633 578 633 579.5 612 c 128,-1,31
 581 591 581 591 581 549 c 2,32,-1
 581 406 l 2,33,34
 581 315 581 315 534.5 263.5 c 128,-1,35
 488 212 488 212 393 212 c 2,36,-1
 370 212 l 1,37,-1
 370 0 l 1,0,-1
EndSplineSet
EndChar

StartChar: psi
Encoding: 968 968 162
Width: 645
Flags: HMW
VStem: 496 109<240 346>
LayerCount: 2
Fore
SplineSet
393 -219 m 1,0,-1
 284 -206 l 1,1,-1
 284 -5 l 1,2,-1
 266 -5 l 2,3,4
 171 -5 171 -5 124.5 46.5 c 128,-1,5
 78 98 78 98 78 189 c 2,6,-1
 78 500 l 1,7,-1
 186 500 l 1,8,-1
 186 240 l 2,9,10
 186 161 186 161 199.5 131 c 128,-1,11
 213 101 213 101 266 101 c 2,12,-1
 284 101 l 1,13,-1
 284 500 l 1,14,-1
 393 500 l 1,15,-1
 393 101 l 1,16,-1
 417 101 l 2,17,18
 470 101 470 101 483 131 c 128,-1,19
 496 161 496 161 496 240 c 2,20,-1
 496 361 l 2,21,22
 496 379 496 379 494.5 393 c 128,-1,23
 493 407 493 407 489.5 417.5 c 128,-1,24
 486 428 486 428 483.5 435 c 128,-1,25
 481 442 481 442 474 448 c 128,-1,26
 467 454 467 454 464.5 456.5 c 128,-1,27
 462 459 462 459 453.5 464.5 c 128,-1,28
 445 470 445 470 443 471 c 1,29,-1
 549 506 l 1,30,31
 576 489 576 489 589 459.5 c 128,-1,32
 602 430 602 430 603.5 409 c 128,-1,33
 605 388 605 388 605 346 c 2,34,-1
 605 189 l 2,35,36
 605 98 605 98 558.5 46.5 c 128,-1,37
 512 -5 512 -5 417 -5 c 2,38,-1
 393 -5 l 1,39,-1
 393 -219 l 1,0,-1
EndSplineSet
EndChar

StartChar: omega
Encoding: 969 969 163
Width: 635
Flags: HMW
VStem: 488 109
LayerCount: 2
Fore
SplineSet
488 195 m 2,0,-1
 488 327 l 2,1,2
 488 378 488 378 475 400.5 c 128,-1,3
 462 423 462 423 431 438 c 1,4,-1
 491 500 l 1,5,6
 598 460 598 460 598 317 c 2,7,-1
 598 188 l 2,8,9
 598 -12 598 -12 437 -12 c 0,10,11
 367 -12 367 -12 332 41 c 1,12,13
 295 -12 295 -12 227 -12 c 0,14,15
 66 -12 66 -12 66 188 c 2,16,-1
 66 317 l 2,17,18
 66 460 66 460 173 500 c 1,19,-1
 235 438 l 1,20,21
 205 425 205 425 190.5 401 c 128,-1,22
 176 377 176 377 176 327 c 2,23,-1
 176 195 l 2,24,25
 176 141 176 141 187.5 121 c 128,-1,26
 199 101 199 101 224 101 c 0,27,28
 252 101 252 101 263.5 120 c 128,-1,29
 275 139 275 139 276 195 c 1,30,-1
 276 299 l 1,31,-1
 385 299 l 1,32,-1
 385 195 l 1,33,34
 386 139 386 139 397.5 120 c 128,-1,35
 409 101 409 101 440 101 c 0,36,37
 467 101 467 101 477.5 122.5 c 128,-1,38
 488 144 488 144 488 195 c 2,0,-1
EndSplineSet
EndChar

StartChar: chi
Encoding: 967 967 164
Width: 650
Flags: HMW
HStem: 0 21G 272 21G 279 21G 497 20G
VStem: 153 500
LayerCount: 2
Fore
SplineSet
611 -139 m 1,0,-1
 559 -212 l 1,1,2
 558.163265306 -212.010204082 558.163265306 -212.010204082 557.329862557 -212.010204082 c 0,3,4
 476.489795918 -212.010204082 476.489795918 -212.010204082 427 -116 c 1,5,-1
 325 92 l 1,6,-1
 174 -204 l 1,7,-1
 78 -161 l 1,8,-1
 269 208 l 1,9,-1
 121 501 l 1,10,-1
 240 501 l 1,11,-1
 327 320 l 1,12,-1
 421 501 l 1,13,-1
 545 501 l 1,14,-1
 383 205 l 1,15,-1
 511 -59 l 1,16,17
 543 -139 543 -139 611 -139 c 1,0,-1
EndSplineSet
EndChar

StartChar: Chi
Encoding: 935 935 165
Width: 694
Flags: HMW
HStem: 0 21G<78 215 78 78 514 655 514 514> 694 20G
VStem: 85 472 90 548<700 700>
LayerCount: 2
Fore
SplineSet
655 0 m 1,0,-1
 514 0 l 1,1,-1
 362 244 l 1,2,-1
 215 0 l 1,3,-1
 78 0 l 1,4,-1
 296 350 l 1,5,-1
 90 700 l 1,6,-1
 220 700 l 1,7,-1
 367 468 l 1,8,-1
 507 700 l 1,9,-1
 638 700 l 1,10,-1
 433 359 l 1,11,-1
 655 0 l 1,0,-1
EndSplineSet
EndChar

StartChar: phi
Encoding: 966 966 166
Width: 644
Flags: HMW
VStem: 285 110<-203 -5 101 380>
LayerCount: 2
Fore
SplineSet
395 -216 m 1,0,-1
 285 -203 l 1,1,-1
 285 -5 l 1,2,-1
 266 -5 l 2,3,4
 171 -5 171 -5 124.5 46.5 c 128,-1,5
 78 98 78 98 78 189 c 2,6,-1
 78 314 l 2,7,8
 78 466 78 466 194 503 c 1,9,-1
 253 420 l 1,10,11
 219 413 219 413 203 392.5 c 128,-1,12
 187 372 187 372 187 314 c 2,13,-1
 187 238 l 2,14,15
 187 159 187 159 200 130 c 128,-1,16
 213 101 213 101 266 101 c 2,17,-1
 285 101 l 1,18,-1
 285 401 l 1,19,20
 288 449 288 449 328 478 c 128,-1,21
 368 507 368 507 418 507 c 0,22,23
 505 507 505 507 555 452.5 c 128,-1,24
 605 398 605 398 605 307 c 2,25,-1
 605 189 l 2,26,27
 605 98 605 98 558.5 46.5 c 128,-1,28
 512 -5 512 -5 417 -5 c 2,29,-1
 395 -5 l 1,30,-1
 395 -216 l 1,0,-1
395 101 m 1,31,-1
 417 101 l 2,32,33
 470 101 470 101 482.5 129 c 128,-1,34
 495 157 495 157 495 235 c 2,35,-1
 495 310 l 2,36,37
 495 372 495 372 480.5 396 c 128,-1,38
 466 420 466 420 440 420 c 0,39,40
 422 420 422 420 408.5 409 c 128,-1,41
 395 398 395 398 395 380 c 2,42,-1
 395 101 l 1,31,-1
EndSplineSet
EndChar

StartChar: upsilon
Encoding: 965 965 167
Width: 483
Flags: HMW
HStem: -12 75 497 20G
VStem: 336 110<227 501> 407 85
LayerCount: 2
Fore
SplineSet
336 227 m 2,0,-1
 336 501 l 1,1,-1
 446 501 l 1,2,-1
 446 172 l 2,3,4
 446 -10 446 -10 254 -10 c 0,5,6
 66 -10 66 -10 66 172 c 2,7,-1
 66 501 l 1,8,-1
 176 501 l 1,9,-1
 176 225 l 2,10,11
 176 150 176 150 188.5 125.5 c 128,-1,12
 201 101 201 101 254 101 c 0,13,14
 310 101 310 101 323 126 c 128,-1,15
 336 151 336 151 336 227 c 2,0,-1
EndSplineSet
EndChar

StartChar: Upsilon
Encoding: 933 933 168
Width: 556
Flags: HMW
HStem: 0 21G 694 20G
VStem: 60 56 60 110<413 423 423 700> 278 95 394 110<164 220 220 220 343 700> 447 57
LayerCount: 2
Fore
SplineSet
354 -19 m 1,0,-1
 319 65 l 1,1,2
 352 69 352 69 373 90 c 128,-1,3
 394 111 394 111 394 164 c 2,4,-1
 394 220 l 1,5,6
 344 195 344 195 289 195 c 0,7,8
 186 195 186 195 123 254 c 128,-1,9
 60 313 60 313 60 413 c 2,10,-1
 60 700 l 1,11,-1
 170 700 l 1,12,-1
 170 423 l 2,13,14
 170 303 170 303 289 303 c 0,15,16
 301 303 301 303 311.5 304 c 128,-1,17
 322 305 322 305 330.5 307 c 128,-1,18
 339 309 339 309 346 311 c 128,-1,19
 353 313 353 313 359.5 316.5 c 128,-1,20
 366 320 366 320 370 322 c 128,-1,21
 374 324 374 324 378.5 328 c 128,-1,22
 383 332 383 332 385 334 c 128,-1,23
 387 336 387 336 390.5 339.5 c 2,24,-1
 394 343 l 1,25,-1
 394 700 l 1,26,-1
 504 700 l 1,27,-1
 504 156 l 2,28,29
 504 77 504 77 470 33 c 128,-1,30
 436 -11 436 -11 354 -19 c 1,0,-1
EndSplineSet
EndChar

StartChar: Tau
Encoding: 932 932 169
Width: 519
Flags: HMW
HStem: 0 21G<222 332 222 222> 634 80
VStem: 222 110<0 589> 248 56 318 95
LayerCount: 2
Fore
SplineSet
332 0 m 1,0,-1
 222 0 l 1,1,-1
 222 589 l 1,2,-1
 78 589 l 1,3,-1
 78 700 l 1,4,-1
 480 700 l 1,5,-1
 480 589 l 1,6,-1
 332 589 l 1,7,-1
 332 0 l 1,0,-1
EndSplineSet
EndChar

StartChar: tau
Encoding: 964 964 170
Width: 418
Flags: HMW
HStem: 0 21G 497 20G 620 55
VStem: 120 85 171 109<132 147 147 398>
LayerCount: 2
Fore
SplineSet
343 56 m 1,0,-1
 297 -20 l 1,1,2
 237 -5 237 -5 204 34.5 c 128,-1,3
 171 74 171 74 171 132 c 2,4,-1
 171 398 l 1,5,-1
 78 398 l 1,6,-1
 78 500 l 1,7,-1
 379 500 l 1,8,-1
 379 398 l 1,9,-1
 280 398 l 1,10,-1
 280 147 l 2,11,12
 280 110 280 110 294 89 c 128,-1,13
 308 68 308 68 343 56 c 1,0,-1
EndSplineSet
EndChar

StartChar: Sigma
Encoding: 931 931 171
Width: 585
Flags: HMW
HStem: 0 80 634 80
VStem: 109 568 118 487
LayerCount: 2
Fore
SplineSet
401 0 m 2,0,-1
 78 0 l 1,1,-1
 304 384 l 1,2,-1
 94 702 l 1,3,-1
 522 702 l 1,4,-1
 488 590 l 1,5,-1
 297 590 l 1,6,-1
 434 387 l 1,7,-1
 265 101 l 1,8,-1
 370 101 l 2,9,10
 408 101 408 101 424 111.5 c 128,-1,11
 440 122 440 122 452 157 c 1,12,-1
 546 106 l 1,13,14
 530 50 530 50 495 25 c 128,-1,15
 460 0 460 0 401 0 c 2,0,-1
EndSplineSet
EndChar

StartChar: sigma
Encoding: 963 963 172
Width: 575
Flags: HMW
HStem: -12 75 398 80 620 55
VStem: 208 341 340 110 459 90
LayerCount: 2
Fore
SplineSet
451 310 m 2,0,-1
 451 175 l 2,1,2
 451 -19 451 -19 266 -19 c 0,3,4
 171 -19 171 -19 124.5 32.5 c 128,-1,5
 78 84 78 84 78 175 c 2,6,-1
 78 354 l 2,7,8
 78 402 78 402 96.5 435.5 c 128,-1,9
 115 469 115 469 145 484 c 128,-1,10
 175 499 175 499 212 505.5 c 0,11,12
 229.814814815 508.62962963 229.814814815 508.62962963 247.62962963 508.62962963 c 0,13,-1
 286 505 l 1,14,15
 318.625 499.9375 318.625 499.9375 345.23828125 499.9375 c 0,16,17
 365.9375 499.9375 365.9375 499.9375 383 503 c 0,18,19
 422 510 422 510 458 543 c 1,20,-1
 536 478 l 1,21,22
 527 454 527 454 496.5 430 c 128,-1,23
 466 406 466 406 436 398 c 1,24,-1
 438.5 392.5 l 2,25,26
 441 387 441 387 442.5 382 c 128,-1,27
 444 377 444 377 446.5 367.5 c 128,-1,28
 449 358 449 358 450 343 c 128,-1,29
 451 328 451 328 451 310 c 2,0,-1
340 198 m 2,30,-1
 340 294 l 2,31,32
 340 326 340 326 335.5 351.5 c 128,-1,33
 331 377 331 377 327 387 c 128,-1,34
 323 397 323 397 321 397 c 0,35,36
 280 404 280 404 250.5 404 c 128,-1,37
 221 404 221 404 205 385 c 128,-1,38
 189 366 189 366 189 325 c 2,39,-1
 189 198 l 2,40,41
 189 146 189 146 206.5 122.5 c 128,-1,42
 224 99 224 99 265 99 c 0,43,44
 307 99 307 99 323.5 121 c 128,-1,45
 340 143 340 143 340 198 c 2,30,-1
EndSplineSet
EndChar

StartChar: sigma1
Encoding: 962 962 173
Width: 435
Flags: HMW
HStem: -12 75 454 75
VStem: 78 111<227 255 255 311 210 367>
LayerCount: 2
Fore
SplineSet
364 -152 m 1,0,-1
 282 -106 l 1,1,2
 293 -90 293 -90 297 -72 c 0,3,4
 298.454545455 -65.4545454545 298.454545455 -65.4545454545 298.454545455 -58.5785123967 c 0,5,6
 298.454545455 -46.5454545455 298.454545455 -46.5454545455 294 -33.5 c 0,7,8
 287 -13 287 -13 265 1 c 0,9,10
 174.723192832 56.7890381373 174.723192832 56.7890381373 146.842124559 81.8447255764 c 0,11,12
 78 143.710603121 78 143.710603121 78 227 c 2,13,-1
 78 367 l 2,14,15
 78 420 78 420 119.5 462.5 c 128,-1,16
 161 505 161 505 250 505 c 0,17,18
 282 505 282 505 310 498.5 c 128,-1,19
 338 492 338 492 350 485 c 2,20,-1
 362 478 l 1,21,-1
 336 382 l 1,22,23
 303 406 303 406 246 406 c 0,24,25
 225 406 225 406 213 400.5 c 128,-1,26
 201 395 201 395 196 381 c 128,-1,27
 191 367 191 367 190 356.5 c 128,-1,28
 189 346 189 346 188.950328493 322.269316697 c 0,29,30
 189 315 189 315 189 311 c 2,31,-1
 189 255 l 2,32,33
 189 231 189 231 190 216 c 128,-1,34
 191 201 191 201 199 185 c 128,-1,35
 207 169 207 169 213 160.5 c 128,-1,36
 219 152 219 152 240.5 135 c 128,-1,37
 262 118 262 118 278 107.5 c 128,-1,38
 294 97 294 97 334 71 c 0,39,40
 376 44 376 44 389 -1 c 0,41,42
 396.681818182 -27.5909090909 396.681818182 -27.5909090909 396.681818182 -51.9121900826 c 0,43,44
 396.681818182 -68.75 396.681818182 -68.75 393 -84.5 c 0,45,46
 384 -123 384 -123 364 -152 c 1,0,-1
EndSplineSet
EndChar

StartChar: Rho
Encoding: 929 929 174
Width: 551
Flags: HMW
HStem: 0 21G<78 188 78 78> 0 590<78 278 78 278> 292 80 634 80 647 53
VStem: 70 56 78 95 188 0<0 0 195 195 300 300 590 590> 306 96 448 56 515 95
LayerCount: 2
Fore
SplineSet
188 300 m 1,0,-1
 282 300 l 2,1,2
 316 300 316 300 340.5 311 c 128,-1,3
 365 322 365 322 376.5 335.5 c 128,-1,4
 388 349 388 349 394.5 374 c 128,-1,5
 401 399 401 399 401.5 413.5 c 128,-1,6
 402 428 402 428 402.013311099 454.20851672 c 0,7,8
 402 459 402 459 402 461 c 0,9,10
 402 538 402 538 372 564 c 128,-1,11
 342 590 342 590 278 590 c 2,12,-1
 188 590 l 1,13,-1
 188 300 l 1,0,-1
188 0 m 1,14,-1
 78 0 l 1,15,-1
 78 700 l 1,16,-1
 306 700 l 2,17,18
 411 700 411 700 461.5 632.5 c 128,-1,19
 512 565 512 565 512 463 c 0,20,21
 512 195 512 195 315 195 c 2,22,-1
 188 195 l 1,23,-1
 188 0 l 1,14,-1
EndSplineSet
EndChar

StartChar: rho
Encoding: 961 961 175
Width: 490
Flags: HMW
HStem: -195 21G<188 188> -12 75 454 63 454 75
VStem: 78 110<-195 -195 -195 4 159 192 192 298>
LayerCount: 2
Fore
SplineSet
188 -195 m 1,0,-1
 78 -211 l 1,1,-1
 78 315 l 2,2,3
 78 404 78 404 127 455.5 c 128,-1,4
 176 507 176 507 265 507 c 0,5,6
 361 507 361 507 406 453.5 c 128,-1,7
 451 400 451 400 451 307 c 2,8,-1
 451 172 l 2,9,10
 451 84 451 84 404.5 37 c 128,-1,11
 358 -10 358 -10 266 -10 c 0,12,13
 233 -10 233 -10 188 4 c 1,14,-1
 188 -195 l 1,0,-1
340 192 m 2,15,-1
 340 297 l 2,16,17
 340 359 340 359 322 381.5 c 128,-1,18
 304 404 304 404 264 404 c 0,19,20
 226 404 226 404 207 381 c 128,-1,21
 188 358 188 358 188 298 c 2,22,-1
 188 192 l 2,23,24
 188 142 188 142 205.5 119.5 c 128,-1,25
 223 97 223 97 266 97 c 0,26,27
 308 97 308 97 324 118.5 c 128,-1,28
 340 140 340 140 340 192 c 2,15,-1
EndSplineSet
EndChar

StartChar: Pi
Encoding: 928 928 176
Width: 581
Flags: HMW
HStem: 0 21G<80 190 80 80 400 510 400 400> 327 80 634 80 694 20G
VStem: 80 110<0 590 0 700> 249 95 400 110<0 590 590 590>
LayerCount: 2
Fore
SplineSet
510 0 m 1,0,-1
 400 0 l 1,1,-1
 400 590 l 1,2,-1
 190 590 l 1,3,-1
 190 0 l 1,4,-1
 80 0 l 1,5,-1
 80 700 l 1,6,-1
 510 700 l 1,7,-1
 510 0 l 1,0,-1
EndSplineSet
EndChar

StartChar: Omicron
Encoding: 927 927 177
Width: 543
Flags: HMW
HStem: -17 80 597 119<228 316.5> 651 80
VStem: 54 56 62 95 62 110<185 204 204 471> 369 113 372 110<206 470 470 506> 419 55 651 95
LayerCount: 2
Fore
SplineSet
482 506 m 2,0,-1
 482 185 l 2,1,2
 482 84 482 84 420.5 36.5 c 128,-1,3
 359 -11 359 -11 273 -11 c 128,-1,4
 187 -11 187 -11 124.5 36.5 c 128,-1,5
 62 84 62 84 62 185 c 2,6,-1
 62 507 l 2,7,8
 62 610 62 610 118.5 663 c 128,-1,9
 175 716 175 716 274 716 c 128,-1,10
 373 716 373 716 427.5 660 c 128,-1,11
 482 604 482 604 482 506 c 2,0,-1
372 206 m 2,12,-1
 372 470 l 2,13,14
 372 534 372 534 352.5 565.5 c 128,-1,15
 333 597 333 597 272 597 c 128,-1,16
 211 597 211 597 191.5 566.5 c 128,-1,17
 172 536 172 536 172 471 c 2,18,-1
 172 204 l 2,19,20
 172 156 172 156 196.5 128.5 c 128,-1,21
 221 101 221 101 272 101 c 0,22,23
 319 101 319 101 345.5 130 c 128,-1,24
 372 159 372 159 372 206 c 2,12,-1
EndSplineSet
EndChar

StartChar: omicron
Encoding: 959 959 178
Width: 490
Flags: HMW
HStem: -12 75 -10 411<249 280.5 249 332> 98 414<245.5 286.5> 454 75
VStem: 78 90 78 264<184 316 316 356.5 174 379> 188 263<145 174 174 184 184 316> 490 90
LayerCount: 2
Fore
SplineSet
451 316 m 2,0,-1
 451 184 l 2,1,2
 451 100 451 100 405 45 c 128,-1,3
 359 -10 359 -10 266 -10 c 128,-1,4
 173 -10 173 -10 125.5 45.5 c 128,-1,5
 78 101 78 101 78 184 c 2,6,-1
 78 316 l 2,7,8
 78 411 78 411 126.5 461.5 c 128,-1,9
 175 512 175 512 266 512 c 0,10,11
 353 512 353 512 402 459.5 c 128,-1,12
 451 407 451 407 451 316 c 2,0,-1
342 174 m 2,13,-1
 342 316 l 2,14,15
 342 345 342 345 335 363.5 c 128,-1,16
 328 382 328 382 314.5 389.5 c 128,-1,17
 301 397 301 397 290.5 399 c 128,-1,18
 280 401 280 401 266 401 c 0,19,20
 188 401 188 401 188 316 c 2,21,-1
 188 174 l 2,22,23
 188 98 188 98 266 98 c 0,24,25
 299 98 299 98 320.5 117 c 128,-1,26
 342 136 342 136 342 174 c 2,13,-1
EndSplineSet
EndChar

StartChar: xi
Encoding: 958 958 179
Width: 419
Flags: HMW
VStem: 271 109<-192 -192 -192 -2 -2 -2>
LayerCount: 2
Fore
SplineSet
380 -192 m 1,0,-1
 271 -218 l 1,1,-1
 271 -2 l 1,2,3
 263.5 -2.5 263.5 -2.5 255.96875 -2.5 c 0,4,5
 233.375 -2.5 233.375 -2.5 210.5 2 c 0,6,7
 180 8 180 8 148.5 24.5 c 128,-1,8
 117 41 117 41 97.5 77 c 128,-1,9
 78 113 78 113 78 164 c 2,10,-1
 78 348 l 2,11,12
 78 413 78 413 111.5 452.5 c 128,-1,13
 145 492 145 492 180 504 c 1,14,15
 154 531 154 531 151.5 567 c 0,16,17
 151.171052632 571.736842105 151.171052632 571.736842105 151.171052632 576.387119114 c 0,18,19
 151.171052632 607.078947368 151.171052632 607.078947368 165.5 634 c 0,20,21
 182 665 182 665 218 686.5 c 128,-1,22
 254 708 254 708 300 708 c 2,23,-1
 345 708 l 1,24,-1
 324 590 l 1,25,-1
 306 590 l 2,26,27
 280 590 280 590 269.5 578 c 128,-1,28
 259 566 259 566 264.5 550.5 c 128,-1,29
 270 535 270 535 286 524 c 0,30,31
 303 512 303 512 358 494 c 1,32,-1
 327 398 l 1,33,34
 289.683544304 410.253164557 289.683544304 410.253164557 261.828392886 410.253164557 c 0,35,36
 239.670886076 410.253164557 239.670886076 410.253164557 223.5 402.5 c 0,37,38
 187 385 187 385 187 319 c 2,39,-1
 187 195 l 2,40,41
 187 160 187 160 196.5 138.5 c 128,-1,42
 206 117 206 117 222 107 c 128,-1,43
 238 97 238 97 264 97 c 128,-1,44
 290 97 290 97 316 102.5 c 128,-1,45
 342 108 342 108 380 120 c 1,46,-1
 380 -192 l 1,0,-1
EndSplineSet
EndChar

StartChar: Xi
Encoding: 926 926 180
Width: 626
Flags: HMW
HStem: 0 80 595 106 634 80 817 55
VStem: 109 568 165 56 442 121
LayerCount: 2
Fore
SplineSet
469 308 m 1,0,-1
 205 308 l 1,1,-1
 205 413 l 1,2,-1
 469 413 l 1,3,-1
 469 308 l 1,0,-1
527 590 m 1,4,-1
 244 590 l 2,5,6
 171 590 171 590 155 545 c 1,7,-1
 78 595 l 1,8,9
 94 651 94 651 129 676 c 128,-1,10
 164 701 164 701 223 701 c 2,11,-1
 548 701 l 1,12,-1
 527 590 l 1,4,-1
442 0 m 2,13,-1
 117 0 l 1,14,-1
 148 101 l 1,15,-1
 402 101 l 2,16,17
 442 101 442 101 463 112.5 c 128,-1,18
 484 124 484 124 495 157 c 1,19,-1
 587 106 l 1,20,21
 571 50 571 50 536 25 c 128,-1,22
 501 0 501 0 442 0 c 2,13,-1
EndSplineSet
EndChar

StartChar: Nu
Encoding: 925 925 181
Width: 643
Flags: HMW
HStem: 0 135 0 230<461 572 461 461> 473 227<80 190> 573 141 597 103
VStem: 80 110<0 473 0 700> 81 90 461 111<0 0 230 700> 560 90
LayerCount: 2
Fore
SplineSet
572 0 m 1,0,-1
 461 0 l 1,1,-1
 190 473 l 1,2,-1
 190 0 l 1,3,-1
 80 0 l 1,4,-1
 80 700 l 1,5,-1
 190 700 l 1,6,-1
 461 230 l 1,7,-1
 461 700 l 1,8,-1
 572 700 l 1,9,-1
 572 0 l 1,0,-1
EndSplineSet
EndChar

StartChar: nu
Encoding: 957 957 182
Width: 540
Flags: HMW
HStem: 0 86 497 20G
VStem: 78 423<501 501> 291 53
LayerCount: 2
Fore
SplineSet
344 0 m 1,0,-1
 238 0 l 1,1,-1
 78 501 l 1,2,-1
 198 501 l 1,3,-1
 291 195 l 1,4,-1
 382 501 l 1,5,-1
 501 501 l 1,6,-1
 344 0 l 1,0,-1
EndSplineSet
EndChar

StartChar: Mu
Encoding: 924 924 183
Width: 687
Flags: HMW
HStem: 0 114 0 237<80 347 347 347 347 389 305 347 347 616 347 506> 369 331<80 190> 535 165 594 120
VStem: 72 56 80 110<0 369 0 700> 506 110<0 370 370 370> 552 56 701 90
LayerCount: 2
Fore
SplineSet
616 0 m 1,0,-1
 506 0 l 1,1,-1
 506 370 l 1,2,-1
 389 0 l 1,3,-1
 305 0 l 1,4,-1
 190 369 l 1,5,-1
 190 0 l 1,6,-1
 80 0 l 1,7,-1
 80 700 l 1,8,-1
 190 700 l 1,9,-1
 347 237 l 1,10,-1
 506 700 l 1,11,-1
 616 700 l 1,12,-1
 616 0 l 1,0,-1
EndSplineSet
EndChar

StartChar: Lambda
Encoding: 923 923 184
Width: 532
Flags: HMW
HStem: 0 95 694 20G
VStem: 8 614 145 255<0 0>
LayerCount: 2
Fore
SplineSet
526 0 m 1,0,-1
 400 0 l 1,1,-1
 271 454 l 1,2,-1
 145 0 l 1,3,-1
 21 0 l 1,4,-1
 221 700 l 1,5,-1
 323 700 l 1,6,-1
 526 0 l 1,0,-1
EndSplineSet
EndChar

StartChar: lambda
Encoding: 955 955 185
Width: 601
Flags: HMW
HStem: -207 75 -198 21G 497 20G
VStem: 79 484
LayerCount: 2
Fore
SplineSet
562 46 m 1,0,-1
 493 -21 l 1,1,2
 441 -9 441 -9 408.5 18.5 c 128,-1,3
 376 46 376 46 360 101 c 2,4,-1
 287 342 l 1,5,6
 274 330 274 330 251 233 c 2,7,-1
 196 0 l 1,8,-1
 78 0 l 1,9,-1
 186 372 l 2,10,11
 196 403 196 403 207 425 c 128,-1,12
 218 447 218 447 224 455 c 128,-1,13
 230 463 230 463 237.5 470.5 c 128,-1,14
 245 478 245 478 247 480 c 1,15,-1
 224 551 l 2,16,17
 211 588 211 588 197 600 c 128,-1,18
 183 612 183 612 147 614 c 1,19,-1
 178 700 l 1,20,21
 180.392156863 700.039215686 180.392156863 700.039215686 182.741253364 700.039215686 c 0,22,23
 240.294117647 700.039215686 240.294117647 700.039215686 272 676.5 c 0,24,25
 305 652 305 652 325 593 c 1,26,-1
 458 154 l 1,27,28
 477 95 477 95 503.5 73.5 c 128,-1,29
 530 52 530 52 562 46 c 1,0,-1
EndSplineSet
EndChar

StartChar: kappa
Encoding: 954 954 186
Width: 520
Flags: HMW
HStem: 0 21G<78 188 78 78> 497 20G 694 20G
VStem: 78 110<0 195 333 499>
LayerCount: 2
Fore
SplineSet
481 96 m 1,0,-1
 448 -1 l 1,1,2
 413 -1 413 -1 383 17.5 c 128,-1,3
 353 36 353 36 337.5 54 c 128,-1,4
 322 72 322 72 294 110 c 2,5,-1
 215 219 l 1,6,-1
 188 195 l 1,7,-1
 188 0 l 1,8,-1
 78 0 l 1,9,-1
 78 512 l 1,10,-1
 188 499 l 1,11,-1
 188 333 l 1,12,-1
 342 501 l 1,13,-1
 478 501 l 1,14,-1
 296 300 l 1,15,-1
 395 160 l 2,16,17
 423 122 423 122 442 109.5 c 128,-1,18
 461 97 461 97 481 96 c 1,0,-1
EndSplineSet
EndChar

StartChar: Kappa
Encoding: 922 922 187
Width: 568
Flags: HMW
HStem: 0 21G<78 196 78 78 392 529 392 392> 694 20G
VStem: 77 95 78 118<0 268 460 701>
LayerCount: 2
Fore
SplineSet
529 0 m 1,0,-1
 392 0 l 1,1,-1
 203 278 l 1,2,-1
 196 268 l 1,3,-1
 196 0 l 1,4,-1
 78 0 l 1,5,-1
 78 701 l 1,6,-1
 196 701 l 1,7,-1
 196 460 l 1,8,-1
 358 701 l 1,9,-1
 490 701 l 1,10,-1
 268 376 l 1,11,-1
 529 0 l 1,0,-1
EndSplineSet
EndChar

StartChar: Iota
Encoding: 921 921 188
Width: 323
Flags: HMW
HStem: 0 21G<142 252 142 142> 694 20G
VStem: 142 110<0 592 592 592> 151 56 163 95
LayerCount: 2
Fore
SplineSet
252 0 m 1,0,-1
 142 0 l 1,1,-1
 142 592 l 1,2,-1
 80 594 l 1,3,-1
 80 700 l 1,4,-1
 252 700 l 1,5,-1
 252 0 l 1,0,-1
EndSplineSet
EndChar

StartChar: iota
Encoding: 953 953 189
Width: 213
Flags: HMW
HStem: 0 21G<66 176 66 66> 497 20G 610 104
VStem: 66 110<0 501> 104 85
LayerCount: 2
Fore
SplineSet
176 0 m 1,0,-1
 66 0 l 1,1,-1
 66 501 l 1,2,-1
 176 501 l 1,3,-1
 176 0 l 1,0,-1
EndSplineSet
EndChar

StartChar: theta
Encoding: 952 952 190
Width: 503
Flags: HMW
HStem: -12 75 634 75
VStem: 334 109 424 90
LayerCount: 2
Fore
SplineSet
442 505 m 2,0,-1
 442 191 l 2,1,2
 442 102 442 102 392.5 48 c 128,-1,3
 343 -6 343 -6 252 -6 c 0,4,5
 160 -5 160 -5 111 48.5 c 128,-1,6
 62 102 62 102 62 191 c 2,7,-1
 62 341 l 1,8,9
 64 405 64 405 115 438 c 1,10,11
 80.8947368421 504.315789474 80.8947368421 504.315789474 80.8947368421 562.105263158 c 0,12,13
 80.8947368421 565.315789474 80.8947368421 565.315789474 81 568.5 c 0,14,15
 83 629 83 629 129 669.5 c 128,-1,16
 175 710 175 710 250 710 c 1,17,18
 345 708 345 708 393.5 654 c 128,-1,19
 442 600 442 600 442 505 c 2,0,-1
334 195 m 2,20,-1
 334 399 l 1,21,22
 260 392 260 392 215 368 c 128,-1,23
 170 344 170 344 170 311 c 2,24,-1
 170 185 l 2,25,26
 170 138 170 138 211 119 c 0,27,28
 230.475 109.975 230.475 109.975 249.95 109.975 c 0,29,-1
 293 121 l 0,30,31
 334 142 334 142 334 195 c 2,20,-1
214 485 m 1,32,33
 277 506 277 506 334 506 c 1,34,35
 334 553 334 553 313 578 c 128,-1,36
 292 603 292 603 256 603 c 0,37,38
 209 603 209 603 194.5 571.5 c 0,39,40
 190.164948454 562.082474227 190.164948454 562.082474227 190.164948454 550.56445956 c 0,41,42
 190.164948454 523.556701031 190.164948454 523.556701031 214 485 c 1,32,33
EndSplineSet
EndChar

StartChar: Theta
Encoding: 920 920 191
Width: 537
Flags: HMW
HStem: -17 80 206 510<226 388> 238 80 651 80
VStem: 70 56 77 379 78 95 78 210 288 210 385 113 435 55 667 95
LayerCount: 2
Fore
SplineSet
498 506 m 2,0,-1
 498 185 l 2,1,2
 498 84 498 84 436.5 36.5 c 128,-1,3
 375 -11 375 -11 289 -11 c 128,-1,4
 203 -11 203 -11 140.5 36.5 c 128,-1,5
 78 84 78 84 78 185 c 2,6,-1
 78 507 l 2,7,8
 78 610 78 610 134.5 663 c 128,-1,9
 191 716 191 716 290 716 c 128,-1,10
 389 716 389 716 443.5 660 c 128,-1,11
 498 604 498 604 498 506 c 2,0,-1
388 206 m 2,12,-1
 388 308 l 1,13,-1
 188 308 l 1,14,-1
 188 204 l 2,15,16
 188 156 188 156 212.5 128.5 c 128,-1,17
 237 101 237 101 288 101 c 0,18,19
 335 101 335 101 361.5 130 c 128,-1,20
 388 159 388 159 388 206 c 2,12,-1
388 413 m 1,21,-1
 388 470 l 2,22,23
 388 534 388 534 368.5 565.5 c 128,-1,24
 349 597 349 597 288 597 c 128,-1,25
 227 597 227 597 207.5 566.5 c 128,-1,26
 188 536 188 536 188 471 c 2,27,-1
 188 413 l 1,28,-1
 388 413 l 1,21,-1
EndSplineSet
EndChar

StartChar: Eta
Encoding: 919 919 192
Width: 581
Flags: HMW
HStem: 0 21G<80 190 80 80 401 510 401 401> 327 80 694 20G
VStem: 72 56 80 110<0 308 0 413 413 700> 401 109<0 308 308 308 413 700> 446 56 551 95
LayerCount: 2
Fore
SplineSet
510 0 m 1,0,-1
 401 0 l 1,1,-1
 401 308 l 1,2,-1
 190 308 l 1,3,-1
 190 0 l 1,4,-1
 80 0 l 1,5,-1
 80 700 l 1,6,-1
 190 700 l 1,7,-1
 190 413 l 1,8,-1
 401 413 l 1,9,-1
 401 700 l 1,10,-1
 510 700 l 1,11,-1
 510 0 l 1,0,-1
EndSplineSet
EndChar

StartChar: eta
Encoding: 951 951 193
Width: 486
Flags: HMW
HStem: 0 21G<78 187 78 78> 454 75 497 20G
VStem: 338 109<-186 343 343 346> 421 85
LayerCount: 2
Fore
SplineSet
447 -210 m 1,0,-1
 338 -186 l 1,1,-1
 338 343 l 2,2,3
 338 391 338 391 294.5 405.5 c 0,4,5
 281.494845361 409.835051546 281.494845361 409.835051546 266.657349346 409.835051546 c 0,6,7
 231.865979381 409.835051546 231.865979381 409.835051546 187 386 c 1,8,-1
 187 0 l 1,9,-1
 78 0 l 1,10,-1
 78 501 l 1,11,-1
 179 501 l 1,12,-1
 187 497 l 1,13,14
 215 508 215 508 263 509 c 0,15,16
 265.4 509.05 265.4 509.05 267.8075 509.05 c 0,17,18
 313.55 509.05 313.55 509.05 362 491 c 1,19,20
 447 452 447 452 447 346 c 2,21,-1
 447 -210 l 1,0,-1
EndSplineSet
EndChar

StartChar: zeta
Encoding: 950 950 194
Width: 504
Flags: HMW
VStem: 297 110<-183 -183 -183 0 0 0>
LayerCount: 2
Fore
SplineSet
407 -183 m 1,0,-1
 297 -209 l 1,1,-1
 297 0 l 1,2,3
 282.230769231 -1.40659340659 282.230769231 -1.40659340659 268.203477841 -1.40659340659 c 0,4,5
 202.450549451 -1.40659340659 202.450549451 -1.40659340659 153 29.5 c 0,6,7
 93 67 93 67 81 138 c 0,8,9
 78.0303030303 156.666666667 78.0303030303 156.666666667 78.0303030303 177.313131313 c 0,10,11
 78.0303030303 205.333333333 78.0303030303 205.333333333 83.5 237 c 0,12,13
 93 292 93 292 114 336 c 0,14,15
 127 363 127 363 141.5 389 c 128,-1,16
 156 415 156 415 171.5 437.5 c 128,-1,17
 187 460 187 460 199.5 477 c 128,-1,18
 212 494 212 494 228.5 513.5 c 128,-1,19
 245 533 245 533 253.5 542.5 c 128,-1,20
 262 552 262 552 278 569 c 128,-1,21
 294 586 294 586 297 590 c 1,22,-1
 146 590 l 1,23,-1
 146 700 l 1,24,-1
 418 700 l 1,25,-1
 465 600 l 1,26,27
 343 504 343 504 244 332 c 0,28,29
 194.295454545 246.704545455 194.295454545 246.704545455 194.295454545 191.156508264 c 0,30,31
 194.295454545 156.181818182 194.295454545 156.181818182 214 133 c 0,32,33
 238.571428571 103.285714286 238.571428571 103.285714286 298.081632653 103.285714286 c 0,34,35
 342.714285714 103.285714286 342.714285714 103.285714286 407 120 c 1,36,-1
 407 -183 l 1,0,-1
EndSplineSet
EndChar

StartChar: Zeta
Encoding: 918 918 195
Width: 604
Flags: HMW
HStem: 0 80 634 80
VStem: 69 568 78 487<0 101 101 101>
LayerCount: 2
Fore
SplineSet
565 0 m 1,0,-1
 78 0 l 1,1,-1
 78 101 l 1,2,-1
 420 590 l 1,3,-1
 91 590 l 1,4,-1
 91 700 l 1,5,-1
 559 700 l 1,6,-1
 559 590 l 1,7,-1
 215 104 l 1,8,-1
 565 104 l 1,9,-1
 565 0 l 1,0,-1
EndSplineSet
EndChar

StartChar: Epsilon
Encoding: 917 917 196
Width: 451
Flags: HMW
HStem: 0 100<188 410 188 410> 327 80 590 110<188 412 188 188> 634 80
VStem: 78 110<100 308 413 590>
LayerCount: 2
Fore
SplineSet
410 0 m 1,0,-1
 78 0 l 1,1,-1
 78 700 l 1,2,-1
 412 700 l 1,3,-1
 412 590 l 1,4,-1
 188 590 l 1,5,-1
 188 413 l 1,6,-1
 325 413 l 1,7,-1
 294 308 l 1,8,-1
 188 308 l 1,9,-1
 188 100 l 1,10,-1
 410 100 l 1,11,-1
 410 0 l 1,0,-1
EndSplineSet
EndChar

StartChar: epsilon
Encoding: 949 949 197
Width: 462
Flags: HMW
HStem: -12 75 336 68 634 75
VStem: 68 85 79 109 428 90
LayerCount: 2
Fore
SplineSet
390 129 m 1,0,-1
 423 23 l 1,1,2
 345 -11 345 -11 253 -11 c 0,3,4
 176 -11 176 -11 130 30 c 128,-1,5
 84 71 84 71 79 132 c 0,6,7
 78.3636363636 141 78.3636363636 141 78.3636363636 149.553719008 c 0,8,9
 78.3636363636 235.090909091 78.3636363636 235.090909091 142 276 c 1,10,11
 123 291 123 291 108 326.5 c 0,12,13
 96.75 353.125 96.75 353.125 96.75 380.03125 c 0,14,15
 96.75 389 96.75 389 98 398 c 0,16,17
 105 453 105 453 149 482.5 c 0,18,19
 191.557377049 511.032786885 191.557377049 511.032786885 243.469766192 511.032786885 c 0,20,21
 245.229508197 511.032786885 245.229508197 511.032786885 247 511 c 0,22,23
 301 510 301 510 353 496 c 1,24,-1
 356 398 l 1,25,26
 330 407 330 407 306 411 c 0,27,28
 288.545454545 413.909090909 288.545454545 413.909090909 271.090909091 413.909090909 c 0,29,-1
 258 413.5 l 0,30,31
 234 412 234 412 219.5 397.5 c 128,-1,32
 205 383 205 383 205 356 c 128,-1,33
 205 329 205 329 231 315 c 128,-1,34
 257 301 257 301 299 301 c 2,35,-1
 352 301 l 1,36,-1
 321 195 l 1,37,-1
 277 195 l 2,38,39
 188 195 188 195 188 153 c 0,40,41
 188 101.927272727 188 101.927272727 272.50214876 101.927272727 c 0,42,43
 275.690909091 101.927272727 275.690909091 101.927272727 279 102 c 0,44,45
 310 102 310 102 337.5 109 c 128,-1,46
 365 116 365 116 377.5 122.5 c 2,47,-1
 390 129 l 1,0,-1
EndSplineSet
EndChar

StartChar: delta
Encoding: 948 948 198
Width: 490
Flags: HMW
HStem: -12 75 817 55
VStem: 127 341 343 109 459 90
LayerCount: 2
Fore
SplineSet
451 288 m 2,0,-1
 451 184 l 2,1,2
 451 -10 451 -10 266 -10 c 0,3,4
 171 -10 171 -10 124.5 41.5 c 128,-1,5
 78 93 78 93 78 184 c 2,6,-1
 78 310 l 2,7,8
 78 383 78 383 104.5 427 c 128,-1,9
 131 471 131 471 166 486 c 1,10,11
 140 511 140 511 132.5 548.5 c 0,12,13
 129.6875 562.5625 129.6875 562.5625 129.6875 576.203125 c 0,14,15
 129.6875 598.9375 129.6875 598.9375 137.5 620.5 c 0,16,17
 150 655 150 655 191 680 c 128,-1,18
 232 705 232 705 293 705 c 2,19,-1
 348 705 l 1,20,-1
 327 590 l 1,21,-1
 284 590 l 2,22,23
 269 590 269 590 258 582 c 128,-1,24
 247 574 247 574 250 558 c 128,-1,25
 253 542 253 542 279 524 c 0,26,27
 367.760277651 459.946191386 367.760277651 459.946191386 393.268216322 433.24390517 c 0,28,29
 451 372.80897033 451 372.80897033 451 288 c 2,0,-1
342 178 m 2,30,-1
 342 256 l 2,31,32
 342 312.996794312 342 312.996794312 322.29359349 345.61268865 c 0,33,34
 299.471294441 381.746666399 299.471294441 381.746666399 255 407 c 1,35,36
 235 405 235 405 221 398 c 128,-1,37
 207 391 207 391 200 383 c 128,-1,38
 193 375 193 375 189.5 359.5 c 128,-1,39
 186 344 186 344 186 336 c 128,-1,40
 186 328 186 328 186.5 309.5 c 128,-1,41
 187 291 187 291 187 287 c 2,42,-1
 187 178 l 2,43,44
 187 138 187 138 211.5 117.5 c 128,-1,45
 236 97 236 97 266 97 c 0,46,47
 295 97 295 97 318.5 115 c 128,-1,48
 342 133 342 133 342 178 c 2,30,-1
EndSplineSet
EndChar

StartChar: _196
Encoding: 65540 -1 199
Width: 622
Flags: HMW
HStem: 0 21G<78 583 78 78> 0 65 245 55 622 91
VStem: 97 586 137 386
LayerCount: 2
Fore
SplineSet
583 0 m 1,0,-1
 78 0 l 1,1,-1
 269 700 l 1,2,-1
 379 700 l 1,3,-1
 583 0 l 1,0,-1
434 101 m 1,4,-1
 329 482 l 1,5,-1
 227 101 l 1,6,-1
 434 101 l 1,4,-1
EndSplineSet
EndChar

StartChar: Gamma
Encoding: 915 915 200
Width: 451
Flags: HMW
HStem: 0 21G<78 189 78 78> 327 80 634 80
VStem: 79 110
LayerCount: 2
Fore
SplineSet
189 0 m 1,0,-1
 78 0 l 1,1,-1
 78 700 l 1,2,-1
 412 700 l 1,3,-1
 412 590 l 1,4,-1
 189 590 l 1,5,-1
 189 0 l 1,0,-1
EndSplineSet
EndChar

StartChar: gamma
Encoding: 947 947 201
Width: 479
Flags: HMW
HStem: 0 21G 0 86 497 20G
VStem: 14 472
LayerCount: 2
Fore
SplineSet
271 -167 m 1,0,-1
 174 -198 l 1,1,2
 149 -172 149 -172 144 -129 c 0,3,4
 142.684210526 -117.684210526 142.684210526 -117.684210526 142.684210526 -106.853185596 c 0,5,6
 142.684210526 -76.5263157895 142.684210526 -76.5263157895 153 -50 c 1,7,-1
 176 21 l 1,8,9
 174 23 174 23 166.5 30.5 c 128,-1,10
 159 38 159 38 153 46 c 128,-1,11
 147 54 147 54 136 76 c 128,-1,12
 125 98 125 98 115 129 c 2,13,-1
 7 501 l 1,14,-1
 125 501 l 1,15,-1
 180 268 l 2,16,17
 203 171 203 171 216 159 c 1,18,-1
 289 400 l 2,19,20
 305 455 305 455 337.5 482.5 c 128,-1,21
 370 510 370 510 422 522 c 1,22,-1
 491 455 l 1,23,24
 470 451 470 451 455.5 444 c 128,-1,25
 441 437 441 437 420.5 412.5 c 128,-1,26
 400 388 400 388 387 347 c 2,27,-1
 267 -50 l 1,28,29
 260 -69 260 -69 257 -84.5 c 128,-1,30
 254 -100 254 -100 252.5 -109 c 128,-1,31
 251 -118 251 -118 254 -129 c 128,-1,32
 257 -140 257 -140 257.5 -142.5 c 128,-1,33
 258 -145 258 -145 264 -155.5 c 128,-1,34
 270 -166 270 -166 271 -167 c 1,0,-1
EndSplineSet
EndChar

StartChar: beta
Encoding: 946 946 202
Width: 487
Flags: HMW
HStem: -18 21G<186 229.5> -12 75 359 68 656 75
VStem: 77 109 416 90 448 90
LayerCount: 2
Fore
SplineSet
186 -161 m 1,0,-1
 78 -161 l 1,1,-1
 78 537 l 2,2,3
 78 611 78 611 119.5 656 c 128,-1,4
 161 701 161 701 234 701 c 0,5,6
 282 701 282 701 318.5 677 c 128,-1,7
 355 653 355 653 370 619.5 c 0,8,9
 381.25 594.375 381.25 594.375 381.25 566.71875 c 0,10,11
 381.25 557.5 381.25 557.5 380 548 c 0,12,13
 375 510 375 510 346 485 c 1,14,15
 388 470 388 470 418 431.5 c 128,-1,16
 448 393 448 393 448 330 c 2,17,-1
 448 146 l 2,18,19
 448 112 448 112 438.5 85 c 128,-1,20
 429 58 429 58 416.5 41 c 128,-1,21
 404 24 404 24 379.5 11.5 c 128,-1,22
 355 -1 355 -1 338.5 -6.5 c 128,-1,23
 322 -12 322 -12 290.5 -15 c 128,-1,24
 259 -18 259 -18 246 -18 c 128,-1,25
 233 -18 233 -18 202.842589251 -18.0990327679 c 0,26,27
 191 -18 191 -18 186 -18 c 1,28,-1
 186 -161 l 1,0,-1
339 202 m 2,29,-1
 339 296 l 2,30,31
 339 396.075117371 339 396.075117371 267.115056536 396.075117371 c 0,32,33
 234.126760563 396.075117371 234.126760563 396.075117371 186 375 c 1,34,-1
 186 101 l 1,35,36
 233.058823529 93.4705882353 233.058823529 93.4705882353 265.944636678 93.4705882353 c 0,37,38
 268 93.4705882353 268 93.4705882353 270 93.5 c 0,39,40
 304 94 304 94 321.5 119.5 c 128,-1,41
 339 145 339 145 339 202 c 2,29,-1
186 524 m 2,42,-1
 186 486 l 1,43,44
 205 495 205 495 234 504 c 0,45,46
 264 514 264 514 271.5 535 c 0,47,48
 274.3125 542.875 274.3125 542.875 274.3125 550.1875 c 0,49,50
 274.3125 562.375 274.3125 562.375 266.5 573 c 0,51,52
 254 590 254 590 233 590 c 0,53,54
 211 590 211 590 200 580 c 128,-1,55
 189 570 189 570 187.5 559 c 128,-1,56
 186 548 186 548 186 524 c 2,42,-1
EndSplineSet
EndChar

StartChar: Beta
Encoding: 914 914 203
Width: 550
Flags: HMW
HStem: 0 80 101 0<188 188 249 249> 327 80 413 0<188 188 236 236> 413 234 634 80
VStem: 78 95 78 110<101 101 101 307 413 590> 188 287<101 582.5 413 582.5 503.5 582.5 503.5 590> 188 323<101 254 157.5 254 157.5 307 157.5 413 157.5 590> 417 58 515 95
LayerCount: 2
Fore
SplineSet
297 0 m 2,0,-1
 78 0 l 1,1,-1
 78 700 l 1,2,-1
 282 700 l 2,3,4
 365 700 365 700 420 654 c 128,-1,5
 475 608 475 608 475 523 c 0,6,7
 475 429 475 429 409 384 c 0,8,9
 408 383 408 383 408 382 c 2,10,-1
 408 381 l 1,11,12
 452 361 452 361 481.5 317 c 128,-1,13
 511 273 511 273 511 205 c 0,14,15
 511 167 511 167 500 132.5 c 128,-1,16
 489 98 489 98 465 67.5 c 128,-1,17
 441 37 441 37 398 18.5 c 128,-1,18
 355 0 355 0 297 0 c 2,0,-1
188 413 m 1,19,-1
 236 413 l 2,20,21
 293 413 293 413 320 434 c 128,-1,22
 347 455 347 455 347 506 c 0,23,24
 347 553 347 553 322 571.5 c 128,-1,25
 297 590 297 590 246 590 c 2,26,-1
 188 590 l 1,27,-1
 188 413 l 1,19,-1
188 101 m 1,28,-1
 249 101 l 2,29,30
 318 101 318 101 351.5 121.5 c 128,-1,31
 385 142 385 142 385 207 c 0,32,33
 385 307 385 307 258 307 c 2,34,-1
 188 307 l 1,35,-1
 188 101 l 1,28,-1
EndSplineSet
EndChar

StartChar: Alpha
Encoding: 913 913 204
Width: 523
Flags: HMW
HStem: 0 21G<21 145 21 21 386 517 386 386> 215 80 245 55 628 86
VStem: -7 663 145 241<0 0>
LayerCount: 2
Fore
SplineSet
517 0 m 1,0,-1
 386 0 l 1,1,-1
 345 183 l 1,2,-1
 184 183 l 1,3,-1
 145 0 l 1,4,-1
 21 0 l 1,5,-1
 185 700 l 1,6,-1
 340 700 l 1,7,-1
 517 0 l 1,0,-1
319 300 m 1,8,-1
 262 516 l 1,9,-1
 210 300 l 1,10,-1
 319 300 l 1,8,-1
EndSplineSet
EndChar

StartChar: alpha
Encoding: 945 945 205
Width: 512
Flags: HMW
HStem: -198 21G -12 75 454 63 454 75
VStem: 333 110 481 85
LayerCount: 2
Fore
SplineSet
473 35 m 1,0,-1
 362 0 l 1,1,-1
 348 8 l 1,2,3
 312 -8 312 -8 268.5 -10.5 c 0,4,5
 261.25 -10.9166666667 261.25 -10.9166666667 253.986111111 -10.9166666667 c 0,6,7
 217.666666667 -10.9166666667 217.666666667 -10.9166666667 181 -0.5 c 0,8,9
 137 12 137 12 107.5 55.5 c 128,-1,10
 78 99 78 99 78 169 c 2,11,-1
 78 354 l 2,12,13
 78 410 78 410 99 445.5 c 128,-1,14
 120 481 120 481 150.5 493.5 c 128,-1,15
 181 506 181 506 219.5 507 c 0,16,17
 224.633333333 507.133333333 224.633333333 507.133333333 229.606666667 507.133333333 c 0,18,19
 261.933333333 507.133333333 261.933333333 507.133333333 287.5 501.5 c 0,20,21
 317 495 317 495 342 486 c 1,22,-1
 351 511 l 1,23,-1
 450 486 l 1,24,25
 443 421 443 421 443 389 c 2,26,-1
 443 77 l 1,27,28
 449 49 449 49 473 35 c 1,0,-1
332 110 m 1,29,-1
 332 384 l 1,30,31
 316 392 316 392 293 397 c 128,-1,32
 270 402 270 402 245.5 402.5 c 0,33,34
 244.592592593 402.518518519 244.592592593 402.518518519 243.696159122 402.518518519 c 0,35,36
 220.388888889 402.518518519 220.388888889 402.518518519 204.5 390 c 0,37,38
 188 377 188 377 188 351 c 2,39,-1
 188 211 l 2,40,41
 188 195 188 195 188 188.5 c 128,-1,42
 188 182 188 182 189.5 167 c 128,-1,43
 191 152 191 152 193 145.5 c 128,-1,44
 195 139 195 139 200 127.5 c 128,-1,45
 205 116 205 116 212 111.5 c 128,-1,46
 219 107 219 107 230 101.5 c 128,-1,47
 241 96 241 96 255 96 c 128,-1,48
 269 96 269 96 288.5 99 c 128,-1,49
 308 102 308 102 332 110 c 1,29,-1
EndSplineSet
EndChar

StartChar: upsilondieresistonos
Encoding: 944 944 206
Width: 497
Flags: HMW
HStem: -12 75 497 20G
VStem: 73 82 348 110<227 501> 414 85
LayerCount: 2
Fore
SplineSet
211 586 m 0,0,1
 211 568 211 568 198 555 c 128,-1,2
 185 542 185 542 166 542 c 0,3,4
 148 542 148 542 135 555 c 128,-1,5
 122 568 122 568 122 586 c 0,6,7
 122 605 122 605 135 618 c 128,-1,8
 148 631 148 631 166 631 c 0,9,10
 185 631 185 631 198 618 c 128,-1,11
 211 605 211 605 211 586 c 0,0,1
386 542 m 128,-1,13
 367 542 367 542 354 555 c 128,-1,14
 341 568 341 568 341 587 c 128,-1,15
 341 606 341 606 354 619 c 128,-1,16
 367 632 367 632 386 632 c 128,-1,17
 405 632 405 632 418 619 c 128,-1,18
 431 606 431 606 431 587 c 128,-1,19
 431 568 431 568 418 555 c 128,-1,12
 405 542 405 542 386 542 c 128,-1,13
302 574 m 1,20,-1
 229 574 l 1,21,-1
 275 682 l 2,22,23
 285 705 285 705 308 712.5 c 0,24,25
 319.129032258 716.129032258 319.129032258 716.129032258 327.448491155 716.129032258 c 0,26,27
 336.322580645 716.129032258 336.322580645 716.129032258 342 712 c 1,28,29
 362 702 362 702 366 682.5 c 0,30,31
 366.695652174 679.108695652 366.695652174 679.108695652 366.695652174 675.520793951 c 0,32,33
 366.695652174 658.47826087 366.695652174 658.47826087 351 637 c 2,34,-1
 302 574 l 1,20,-1
348 227 m 2,35,-1
 348 501 l 1,36,-1
 458 501 l 1,37,-1
 458 172 l 2,38,39
 458 -10 458 -10 266 -10 c 0,40,41
 78 -10 78 -10 78 172 c 2,42,-1
 78 501 l 1,43,-1
 188 501 l 1,44,-1
 188 225 l 2,45,46
 188 150 188 150 200.5 125.5 c 128,-1,47
 213 101 213 101 266 101 c 0,48,49
 322 101 322 101 335 126 c 128,-1,50
 348 151 348 151 348 227 c 2,35,-1
EndSplineSet
EndChar

StartChar: iotadieresistonos
Encoding: 912 912 207
Width: 426
Flags: HMW
HStem: 0 21G<173 283 173 173> 497 20G 574 143 610 104
VStem: 179 85 189 109
LayerCount: 2
Fore
SplineSet
283 0 m 1,0,-1
 173 0 l 1,1,-1
 173 501 l 1,2,-1
 283 501 l 1,3,-1
 283 0 l 1,0,-1
258 574 m 1,4,-1
 185 574 l 1,5,-1
 231 682 l 2,6,7
 241 705 241 705 264 712.5 c 0,8,9
 275.129032258 716.129032258 275.129032258 716.129032258 283.448491155 716.129032258 c 0,10,11
 292.322580645 716.129032258 292.322580645 716.129032258 298 712 c 1,12,13
 318 702 318 702 322 682.5 c 0,14,15
 322.695652174 679.108695652 322.695652174 679.108695652 322.695652174 675.520793951 c 0,16,17
 322.695652174 658.47826087 322.695652174 658.47826087 307 637 c 2,18,-1
 258 574 l 1,4,-1
342 542 m 128,-1,20
 323 542 323 542 310 555 c 128,-1,21
 297 568 297 568 297 587 c 128,-1,22
 297 606 297 606 310 619 c 128,-1,23
 323 632 323 632 342 632 c 128,-1,24
 361 632 361 632 374 619 c 128,-1,25
 387 606 387 606 387 587 c 128,-1,26
 387 568 387 568 374 555 c 128,-1,19
 361 542 361 542 342 542 c 128,-1,20
167 586 m 0,27,28
 167 568 167 568 154 555 c 128,-1,29
 141 542 141 542 122 542 c 0,30,31
 104 542 104 542 91 555 c 128,-1,32
 78 568 78 568 78 586 c 0,33,34
 78 605 78 605 91 618 c 128,-1,35
 104 631 104 631 122 631 c 0,36,37
 141 631 141 631 154 618 c 128,-1,38
 167 605 167 605 167 586 c 0,27,28
EndSplineSet
EndChar

StartChar: Alphatonos
Encoding: 902 902 208
Width: 627
Flags: HMW
HStem: 0 21G<92 216 92 92 457 588 457 457> 245 55 567 143 569 143
VStem: 82 109 142 386 216 241<0 0>
LayerCount: 2
Fore
SplineSet
588 0 m 1,0,-1
 457 0 l 1,1,-1
 416 183 l 1,2,-1
 255 183 l 1,3,-1
 216 0 l 1,4,-1
 92 0 l 1,5,-1
 256 700 l 1,6,-1
 411 700 l 1,7,-1
 588 0 l 1,0,-1
390 300 m 1,8,-1
 333 516 l 1,9,-1
 281 300 l 1,10,-1
 390 300 l 1,8,-1
151 567 m 1,11,-1
 78 567 l 1,12,-1
 124 675 l 2,13,14
 134 698 134 698 157 705.5 c 0,15,16
 168.129032258 709.129032258 168.129032258 709.129032258 176.448491155 709.129032258 c 0,17,18
 185.322580645 709.129032258 185.322580645 709.129032258 191 705 c 1,19,20
 211 695 211 695 215 675.5 c 0,21,22
 215.695652174 672.108695652 215.695652174 672.108695652 215.695652174 668.520793951 c 0,23,24
 215.695652174 651.47826087 215.695652174 651.47826087 200 630 c 2,25,-1
 151 567 l 1,11,-1
EndSplineSet
EndChar

StartChar: sterling
Encoding: 163 163 209
Width: 477
Flags: HMW
HStem: 0 80 435 80 694 20G
VStem: 78 360<0 101 0 101> 101 320<303 412 303 412>
LayerCount: 2
Fore
SplineSet
438 0 m 1,0,-1
 78 0 l 1,1,-1
 78 101 l 1,2,3
 134 101 134 101 163 134 c 128,-1,4
 192 167 192 167 192 225 c 0,5,6
 192 254 192 254 178 303 c 1,7,-1
 101 303 l 1,8,-1
 101 412 l 1,9,-1
 143 412 l 1,10,11
 125 464 125 464 125 515 c 0,12,13
 125 602 125 602 179.5 655.5 c 128,-1,14
 234 709 234 709 318 709 c 0,15,16
 387 709 387 709 427 684 c 1,17,-1
 393 585 l 1,18,19
 359 604 359 604 318 604 c 0,20,21
 291 604 291 604 272.5 592.5 c 128,-1,22
 254 581 254 581 246.5 563.5 c 128,-1,23
 239 546 239 546 236.5 534.5 c 128,-1,24
 234 523 234 523 234 513 c 0,25,26
 234 465 234 465 254 412 c 1,27,-1
 421 412 l 1,28,-1
 421 303 l 1,29,-1
 290 303 l 1,30,31
 302.25 255.75 302.25 255.75 302.25 228.40625 c 0,32,33
 302.25 224.5 302.25 224.5 302 221 c 0,34,35
 299 183 299 183 292.5 160.5 c 128,-1,36
 286 138 286 138 267 101 c 1,37,-1
 438 101 l 1,38,-1
 438 0 l 1,0,-1
EndSplineSet
EndChar

StartChar: w_w_w
Encoding: 65541 -1 210
Width: 1841
Flags: HMW
HStem: 0 21G<173 280 173 173 425 530 425 425 733 840 733 733 985 1090 985 985 1304 1411 1304 1304 1556 1661 1556 1556> 481 20G<12 132 132 132 304 408 408 408 572 692 692 692 864 968 968 968 1134 1263 1263 1263 1435 1539 1539 1539 1705 1823 1823 1823>
LayerCount: 2
Fore
SplineSet
1661 0 m 1,0,-1
 1556 0 l 1,1,-1
 1484 267 l 1,2,3
 1472 222 1472 222 1447.5 133 c 128,-1,4
 1423 44 1423 44 1411 0 c 1,5,-1
 1304 0 l 1,6,7
 1286 55 1286 55 1250.5 165.5 c 128,-1,8
 1215 276 1215 276 1197 332 c 1,9,10
 1179 276 1179 276 1143.5 165.5 c 128,-1,11
 1108 55 1108 55 1090 0 c 1,12,-1
 985 0 l 1,13,-1
 913 267 l 1,14,15
 901 222 901 222 876.5 133 c 128,-1,16
 852 44 852 44 840 0 c 1,17,-1
 733 0 l 1,18,19
 716 52 716 52 682.5 157 c 128,-1,20
 649 262 649 262 632 314 c 1,21,22
 615 261 615 261 581 156.5 c 128,-1,23
 547 52 547 52 530 0 c 1,24,-1
 425 0 l 1,25,-1
 353 267 l 1,26,27
 341 222 341 222 316.5 133 c 128,-1,28
 292 44 292 44 280 0 c 1,29,-1
 173 0 l 1,30,31
 146 84 146 84 92.5 251 c 128,-1,32
 39 418 39 418 12 501 c 1,33,-1
 132 501 l 1,34,35
 147 450 147 450 177.5 336.5 c 128,-1,36
 208 223 208 223 223 172 c 1,37,38
 237 223 237 223 264 336.5 c 128,-1,39
 291 450 291 450 304 501 c 1,40,-1
 408 501 l 1,41,42
 422 450 422 450 450 336.5 c 128,-1,43
 478 223 478 223 492 172 c 1,44,45
 505 223 505 223 532.5 334.5 c 128,-1,46
 560 446 560 446 573 497 c 0,47,48
 572.84375 497.90625 572.84375 497.90625 572 501 c 1,49,-1
 692 501 l 1,50,51
 707 450 707 450 737.5 336.5 c 128,-1,52
 768 223 768 223 783 172 c 1,53,54
 796 223 796 223 823 336.5 c 128,-1,55
 850 450 850 450 864 501 c 1,56,-1
 968 501 l 1,57,58
 982 450 982 450 1010 336.5 c 128,-1,59
 1038 223 1038 223 1052 172 c 1,60,61
 1065 223 1065 223 1093 336.5 c 128,-1,62
 1121 450 1121 450 1134 501 c 1,63,-1
 1263 501 l 1,64,65
 1278 450 1278 450 1308.5 336.5 c 128,-1,66
 1339 223 1339 223 1354 172 c 1,67,68
 1367 223 1367 223 1394 336.5 c 128,-1,69
 1421 450 1421 450 1435 501 c 1,70,-1
 1539 501 l 1,71,-1
 1616 182 l 1,72,-1
 1705 501 l 1,73,-1
 1823 501 l 1,74,-1
 1661 0 l 1,0,-1
EndSplineSet
EndChar

StartChar: f_t
Encoding: 65542 -1 211
Width: 549
Flags: HMW
HStem: -13 21G<455 455> 0 21G<78 190 78 78> 55 20G<468 488> 398 103<190 253 190 277 415 486>
VStem: 78 112<0 398 501 517 517 549> 303 112<132 398 501 593 593 593>
LayerCount: 2
Fore
SplineSet
488 75 m 1,0,-1
 455 -13 l 1,1,2
 303 -10 303 -10 303 132 c 2,3,-1
 303 593 l 1,4,5
 292 608 292 608 265 611 c 0,6,7
 260.736842105 611.473684211 260.736842105 611.473684211 256.548476454 611.473684211 c 0,8,9
 234.210526316 611.473684211 234.210526316 611.473684211 214 598 c 0,10,11
 190 582 190 582 190 549 c 2,12,-1
 190 501 l 1,13,-1
 277 501 l 1,14,-1
 253 398 l 1,15,-1
 190 398 l 1,16,-1
 190 0 l 1,17,-1
 78 0 l 1,18,-1
 78 517 l 2,19,20
 78 633 78 633 161 684 c 0,21,22
 203.33 710.01 203.33 710.01 268.5488 710.01 c 0,23,24
 331.21 710.01 331.21 710.01 415 686 c 1,25,-1
 415 501 l 1,26,-1
 510 501 l 1,27,-1
 486 398 l 1,28,-1
 415 398 l 1,29,-1
 415 132 l 2,30,31
 415 98 415 98 434 86.5 c 128,-1,32
 453 75 453 75 488 75 c 1,0,-1
EndSplineSet
EndChar

StartChar: t_t
Encoding: 65543 -1 212
Width: 508
Flags: HMW
HStem: 0 75 442 75
VStem: 49 85 364 85
LayerCount: 2
Fore
SplineSet
278 132 m 2,0,-1
 278 398 l 1,1,-1
 156 398 l 1,2,-1
 156 132 l 2,3,4
 156 98 156 98 175 86.5 c 128,-1,5
 194 75 194 75 229 75 c 1,6,7
 223 60 223 60 212 30.5 c 128,-1,8
 201 1 201 1 196 -13 c 1,9,10
 44 -10 44 -10 44 132 c 2,11,-1
 44 700 l 1,12,-1
 156 700 l 1,13,-1
 156 501 l 1,14,-1
 278 501 l 1,15,-1
 278 700 l 1,16,-1
 390 700 l 1,17,-1
 390 501 l 1,18,-1
 485 501 l 1,19,20
 481 484 481 484 473 449.5 c 128,-1,21
 465 415 465 415 461 398 c 1,22,-1
 390 398 l 1,23,-1
 390 132 l 2,24,25
 390 98 390 98 409 86.5 c 128,-1,26
 428 75 428 75 463 75 c 1,27,28
 457 60 457 60 446 31 c 128,-1,29
 435 2 435 2 430 -13 c 1,30,31
 278 -10 278 -10 278 132 c 2,0,-1
EndSplineSet
EndChar

StartChar: f_f
Encoding: 64256 64256 213
Width: 574
Flags: HMW
HStem: 0 21G<78 190 78 78 313 425 313 313> 448 53 658 49
VStem: 100 56 335 56
LayerCount: 2
Fore
SplineSet
425 0 m 1,0,-1
 313 0 l 1,1,-1
 313 517 l 2,2,3
 313 553 313 553 319 583 c 1,4,5
 304 596 304 596 273.5 597 c 0,6,7
 271.757142857 597.057142857 271.757142857 597.057142857 270.027346939 597.057142857 c 0,8,9
 241.485714286 597.057142857 241.485714286 597.057142857 216.5 581.5 c 0,10,11
 190 565 190 565 190 534 c 2,12,-1
 190 501 l 1,13,-1
 277 501 l 1,14,-1
 253 398 l 1,15,-1
 190 398 l 1,16,-1
 190 0 l 1,17,-1
 78 0 l 1,18,-1
 78 501 l 2,19,20
 78 614 78 614 154 670 c 0,21,22
 198.333333333 702.666666667 198.333333333 702.666666667 270.569444444 702.666666667 c 0,23,24
 322.166666667 702.666666667 322.166666667 702.666666667 388 686 c 1,25,26
 419.543859649 702.859649123 419.543859649 702.859649123 460.257002155 702.859649123 c 0,27,28
 494.403508772 702.859649123 494.403508772 702.859649123 535 691 c 1,29,-1
 507 590 l 1,30,31
 492 594 492 594 473.5 596.5 c 0,32,33
 471 596.837837838 471 596.837837838 468.563915267 596.837837838 c 0,34,35
 452.972972973 596.837837838 452.972972973 596.837837838 440 583 c 0,36,37
 425 567 425 567 425 534 c 2,38,-1
 425 501 l 1,39,-1
 512 501 l 1,40,-1
 488 398 l 1,41,-1
 425 398 l 1,42,-1
 425 0 l 1,0,-1
EndSplineSet
EndChar

StartChar: f_f_l
Encoding: 64260 64260 214
Width: 686
Flags: HMW
HStem: 0 21G<78 190 78 78 313 425 313 313 535 647 535 535>
VStem: 563 56
LayerCount: 2
Fore
SplineSet
647 0 m 1,0,-1
 535 0 l 1,1,-1
 535 591 l 1,2,3
 517 595 517 595 492.5 596.5 c 0,4,5
 490.458333333 596.625 490.458333333 596.625 488.4375 596.625 c 0,6,7
 466.208333333 596.625 466.208333333 596.625 446.5 581.5 c 0,8,9
 425 565 425 565 425 534 c 2,10,-1
 425 501 l 1,11,-1
 512 501 l 1,12,13
 508 484 508 484 500 449.5 c 128,-1,14
 492 415 492 415 488 398 c 1,15,-1
 425 398 l 1,16,-1
 425 0 l 1,17,-1
 313 0 l 1,18,-1
 313 517 l 2,19,20
 313 553 313 553 319 583 c 1,21,22
 304 596 304 596 273.5 597 c 0,23,24
 271.757142857 597.057142857 271.757142857 597.057142857 270.027346939 597.057142857 c 0,25,26
 241.485714286 597.057142857 241.485714286 597.057142857 216.5 581.5 c 0,27,28
 190 565 190 565 190 534 c 2,29,-1
 190 501 l 1,30,-1
 277 501 l 1,31,32
 273 484 273 484 265 449.5 c 128,-1,33
 257 415 257 415 253 398 c 1,34,-1
 190 398 l 1,35,-1
 190 0 l 1,36,-1
 78 0 l 1,37,-1
 78 501 l 2,38,39
 78 534 78 534 83 557 c 0,40,41
 101 644 101 644 176 682.5 c 0,42,43
 215.285714286 702.666666667 215.285714286 702.666666667 271.58276644 702.666666667 c 0,44,45
 322.761904762 702.666666667 322.761904762 702.666666667 388 686 c 1,46,47
 427 706.5 427 706.5 491.75 706.5 c 128,-1,48
 556.5 706.5 556.5 706.5 647 686 c 1,49,-1
 647 0 l 1,0,-1
EndSplineSet
EndChar

StartChar: Hcircumflex
Encoding: 292 292 215
Width: 588
Flags: HMW
HStem: 730 142 825 47
VStem: 78 110<0 308 0 413 413 700> 168 251 399 109<0 308 308 308 413 700>
LayerCount: 2
Fore
SplineSet
508 0 m 1,0,-1
 399 0 l 1,1,-1
 399 308 l 1,2,-1
 188 308 l 1,3,-1
 188 0 l 1,4,-1
 78 0 l 1,5,-1
 78 700 l 1,6,-1
 188 700 l 1,7,-1
 188 413 l 1,8,-1
 399 413 l 1,9,-1
 399 700 l 1,10,-1
 508 700 l 1,11,-1
 508 0 l 1,0,-1
440 770 m 1,12,-1
 373 731 l 1,13,-1
 297 814 l 1,14,-1
 216 731 l 1,15,-1
 150 770 l 1,16,-1
 298 911 l 1,17,-1
 440 770 l 1,12,-1
EndSplineSet
EndChar

StartChar: Cdotaccent
Encoding: 266 266 216
Width: 430
Flags: HMW
HStem: -12 52 659 51 679 104
VStem: 66 110<183 185 185 504 504 513> 200 119
LayerCount: 2
Fore
SplineSet
410 127 m 1,0,-1
 427 23 l 1,1,2
 378 4 378 4 329 -4.5 c 0,3,4
 296.961538462 -10.0576923077 296.961538462 -10.0576923077 265.350591716 -10.0576923077 c 0,5,6
 248.615384615 -10.0576923077 248.615384615 -10.0576923077 232 -8.5 c 0,7,8
 184 -4 184 -4 147.5 15.5 c 128,-1,9
 111 35 111 35 88.5 77.5 c 128,-1,10
 66 120 66 120 66 183 c 2,11,-1
 66 504 l 2,12,13
 66 580 66 580 87.5 619 c 128,-1,14
 109 658 109 658 153 685 c 1,15,16
 198.161290323 710.290322581 198.161290323 710.290322581 259.638917794 710.290322581 c 0,17,18
 266.225806452 710.290322581 266.225806452 710.290322581 273 710 c 0,19,20
 343 707 343 707 402 677 c 1,21,-1
 371 577 l 1,22,23
 325 594 325 594 270 594 c 0,24,25
 228 594 228 594 202 571 c 128,-1,26
 176 548 176 548 176 513 c 2,27,-1
 176 185 l 2,28,29
 176 167 176 167 180 152.5 c 128,-1,30
 184 138 184 138 193 129 c 128,-1,31
 202 120 202 120 211 113 c 128,-1,32
 220 106 220 106 236 104 c 128,-1,33
 252 102 252 102 263 100.5 c 128,-1,34
 274 99 274 99 293.5 102 c 128,-1,35
 313 105 313 105 324 106.5 c 128,-1,36
 335 108 335 108 355.5 113 c 128,-1,37
 376 118 376 118 384 120 c 128,-1,38
 392 122 392 122 410 127 c 1,0,-1
266 730 m 0,39,40
 242 730 242 730 224 748 c 128,-1,41
 206 766 206 766 206 790 c 0,42,43
 206 813 206 813 224 830.5 c 128,-1,44
 242 848 242 848 266 848 c 0,45,46
 289 848 289 848 306.5 830.5 c 128,-1,47
 324 813 324 813 324 790 c 0,48,49
 324 766 324 766 306.5 748 c 128,-1,50
 289 730 289 730 266 730 c 0,39,40
EndSplineSet
EndChar

StartChar: Ccircumflex
Encoding: 264 264 217
Width: 430
Flags: HMW
HStem: -12 52 659 51 730 142 825 47
VStem: 120 251 402 8
LayerCount: 2
Fore
SplineSet
392 770 m 1,0,-1
 325 731 l 1,1,-1
 249 814 l 1,2,-1
 168 731 l 1,3,-1
 102 770 l 1,4,-1
 250 911 l 1,5,-1
 392 770 l 1,0,-1
410 127 m 1,6,-1
 427 23 l 1,7,8
 378 4 378 4 329 -4.5 c 0,9,10
 296.961538462 -10.0576923077 296.961538462 -10.0576923077 265.350591716 -10.0576923077 c 0,11,12
 248.615384615 -10.0576923077 248.615384615 -10.0576923077 232 -8.5 c 0,13,14
 184 -4 184 -4 147.5 15.5 c 128,-1,15
 111 35 111 35 88.5 77.5 c 128,-1,16
 66 120 66 120 66 183 c 2,17,-1
 66 504 l 2,18,19
 66 580 66 580 87.5 619 c 128,-1,20
 109 658 109 658 153 685 c 1,21,22
 198.161290323 710.290322581 198.161290323 710.290322581 259.638917794 710.290322581 c 0,23,24
 266.225806452 710.290322581 266.225806452 710.290322581 273 710 c 0,25,26
 343 707 343 707 402 677 c 1,27,-1
 371 577 l 1,28,29
 325 594 325 594 270 594 c 0,30,31
 228 594 228 594 202 571 c 128,-1,32
 176 548 176 548 176 513 c 2,33,-1
 176 185 l 2,34,35
 176 167 176 167 180 152.5 c 128,-1,36
 184 138 184 138 193 129 c 128,-1,37
 202 120 202 120 211 113 c 128,-1,38
 220 106 220 106 236 104 c 128,-1,39
 252 102 252 102 263 100.5 c 128,-1,40
 274 99 274 99 293.5 102 c 128,-1,41
 313 105 313 105 324 106.5 c 128,-1,42
 335 108 335 108 355.5 113 c 128,-1,43
 376 118 376 118 384 120 c 128,-1,44
 392 122 392 122 410 127 c 1,6,-1
EndSplineSet
EndChar

StartChar: cdotaccent
Encoding: 267 267 218
Width: 439
Flags: HMW
HStem: -12 51 460 69 487 104
VStem: 78 110<180 308 308 314> 199 119
LayerCount: 2
Fore
SplineSet
370 114 m 1,0,-1
 400 6 l 1,1,2
 336 -11.0666666667 336 -11.0666666667 280.533333333 -11.0666666667 c 0,3,4
 232 -11.0666666667 232 -11.0666666667 190 2 c 1,5,6
 131 22 131 22 104.5 63.5 c 128,-1,7
 78 105 78 105 78 180 c 2,8,-1
 78 308 l 2,9,10
 78 379 78 379 106 427 c 128,-1,11
 134 475 134 475 180 494 c 0,12,13
 218 509.695652174 218 509.695652174 263.506616257 509.695652174 c 0,14,15
 273.086956522 509.695652174 273.086956522 509.695652174 283 509 c 0,16,17
 340 505 340 505 398 478 c 1,18,-1
 368 383 l 1,19,20
 315.943396226 401.132075472 315.943396226 401.132075472 278.768778925 401.132075472 c 0,21,22
 252.386792453 401.132075472 252.386792453 401.132075472 233.5 392 c 0,23,24
 188 370 188 370 188 314 c 2,25,-1
 188 169 l 2,26,27
 188 136 188 136 211 118.5 c 128,-1,28
 234 101 234 101 266 100 c 0,29,30
 272.4 99.8 272.4 99.8 278.64 99.8 c 0,31,32
 303.6 99.8 303.6 99.8 326 103 c 0,33,34
 354 107 354 107 370 114 c 1,0,-1
265 538 m 0,35,36
 241 538 241 538 223 556 c 128,-1,37
 205 574 205 574 205 598 c 0,38,39
 205 621 205 621 223 638.5 c 128,-1,40
 241 656 241 656 265 656 c 0,41,42
 288 656 288 656 305.5 638.5 c 128,-1,43
 323 621 323 621 323 598 c 0,44,45
 323 574 323 574 305.5 556 c 128,-1,46
 288 538 288 538 265 538 c 0,35,36
EndSplineSet
EndChar

StartChar: ccircumflex
Encoding: 265 265 219
Width: 442
Flags: HMW
HStem: -12 51 460 69 538 142
VStem: 78 110<180 308 308 314> 131 251
LayerCount: 2
Fore
SplineSet
370 114 m 1,0,-1
 400 6 l 1,1,2
 336 -11.0666666667 336 -11.0666666667 280.533333333 -11.0666666667 c 0,3,4
 232 -11.0666666667 232 -11.0666666667 190 2 c 1,5,6
 131 22 131 22 104.5 63.5 c 128,-1,7
 78 105 78 105 78 180 c 2,8,-1
 78 308 l 2,9,10
 78 379 78 379 106 427 c 128,-1,11
 134 475 134 475 180 494 c 0,12,13
 218 509.695652174 218 509.695652174 263.506616257 509.695652174 c 0,14,15
 273.086956522 509.695652174 273.086956522 509.695652174 283 509 c 0,16,17
 340 505 340 505 398 478 c 1,18,-1
 368 383 l 1,19,20
 315.943396226 401.132075472 315.943396226 401.132075472 278.768778925 401.132075472 c 0,21,22
 252.386792453 401.132075472 252.386792453 401.132075472 233.5 392 c 0,23,24
 188 370 188 370 188 314 c 2,25,-1
 188 169 l 2,26,27
 188 136 188 136 211 118.5 c 128,-1,28
 234 101 234 101 266 100 c 0,29,30
 272.4 99.8 272.4 99.8 278.64 99.8 c 0,31,32
 303.6 99.8 303.6 99.8 326 103 c 0,33,34
 354 107 354 107 370 114 c 1,0,-1
403 578 m 1,35,-1
 336 539 l 1,36,-1
 260 622 l 1,37,-1
 179 539 l 1,38,-1
 113 578 l 1,39,-1
 261 719 l 1,40,-1
 403 578 l 1,35,-1
EndSplineSet
EndChar

StartChar: Idotaccent
Encoding: 304 304 220
Width: 338
Flags: HMW
HStem: 679 104
VStem: 134 119 200 50
LayerCount: 2
Fore
SplineSet
250 0 m 1,0,-1
 140 0 l 1,1,-1
 140 592 l 1,2,-1
 78 594 l 1,3,-1
 78 700 l 1,4,-1
 250 700 l 1,5,-1
 250 0 l 1,0,-1
200 730 m 0,6,7
 176 730 176 730 158 748 c 128,-1,8
 140 766 140 766 140 790 c 0,9,10
 140 813 140 813 158 830.5 c 128,-1,11
 176 848 176 848 200 848 c 0,12,13
 223 848 223 848 240.5 830.5 c 128,-1,14
 258 813 258 813 258 790 c 0,15,16
 258 766 258 766 240.5 748 c 128,-1,17
 223 730 223 730 200 730 c 0,6,7
EndSplineSet
EndChar

StartChar: Hbar
Encoding: 294 294 221
Width: 685
Flags: HMW
HStem: 403 80
VStem: 78 527<473 578 473 578> 127 110<0 308 0 413 413 473 578 700> 448 109<0 308 308 308 413 473 578 700>
LayerCount: 2
Fore
SplineSet
557 0 m 1,0,-1
 448 0 l 1,1,-1
 448 308 l 1,2,-1
 237 308 l 1,3,-1
 237 0 l 1,4,-1
 127 0 l 1,5,-1
 127 473 l 1,6,-1
 78 473 l 1,7,-1
 78 578 l 1,8,-1
 127 578 l 1,9,-1
 127 700 l 1,10,-1
 237 700 l 1,11,-1
 237 578 l 1,12,-1
 448 578 l 1,13,-1
 448 700 l 1,14,-1
 557 700 l 1,15,-1
 557 578 l 1,16,-1
 605 578 l 1,17,-1
 605 473 l 1,18,-1
 557 473 l 1,19,-1
 557 0 l 1,0,-1
448 413 m 1,20,-1
 448 473 l 1,21,-1
 237 473 l 1,22,-1
 237 413 l 1,23,-1
 448 413 l 1,20,-1
EndSplineSet
EndChar

StartChar: Gbreve
Encoding: 286 286 222
Width: 537
Flags: HMW
HStem: -10 18 0 21G<372 476 372 372> 659 51 841 0<163 163 246 246 307 307 389 389> 857 20G
VStem: 65 110<189 503 503 512> 246 143<828.5 841 841 846> 366 110<8 8 186 195 195 195>
LayerCount: 2
Fore
SplineSet
476 0 m 1,0,-1
 372 0 l 1,1,-1
 366 8 l 1,2,3
 314 -10 314 -10 276 -10 c 0,4,5
 188 -10 188 -10 126.5 40 c 128,-1,6
 65 90 65 90 65 189 c 2,7,-1
 65 503 l 2,8,9
 65 631 65 631 152 684 c 1,10,11
 197.161290323 709.290322581 197.161290323 709.290322581 258.638917794 709.290322581 c 0,12,13
 265.225806452 709.290322581 265.225806452 709.290322581 272 709 c 0,14,15
 342 706 342 706 401 676 c 1,16,-1
 368 577 l 1,17,18
 320 595 320 595 277 595 c 0,19,20
 229 595 229 595 202 577.5 c 128,-1,21
 175 560 175 560 175 512 c 2,22,-1
 175 187 l 2,23,24
 175 139 175 139 200.5 120 c 128,-1,25
 226 101 226 101 275 101 c 0,26,27
 366 101 366 101 366 186 c 2,28,-1
 366 195 l 1,29,-1
 309 195 l 1,30,-1
 274 300 l 1,31,-1
 476 300 l 1,32,-1
 476 0 l 1,0,-1
389 846 m 1,33,-1
 389 841 l 2,34,35
 389 794 389 794 355.5 761 c 128,-1,36
 322 728 322 728 276 728 c 128,-1,37
 230 728 230 728 196.5 761 c 128,-1,38
 163 794 163 794 163 841 c 2,39,-1
 163 846 l 1,40,-1
 246 846 l 1,41,-1
 246 841 l 2,42,43
 246 806 246 806 276 806 c 0,44,45
 290 806 290 806 298.5 815.5 c 128,-1,46
 307 825 307 825 307 841 c 2,47,-1
 307 846 l 1,48,-1
 389 846 l 1,33,-1
EndSplineSet
EndChar

StartChar: Jcircumflex
Encoding: 308 308 223
Width: 278
Flags: HMW
HStem: -17 80 841 0<16 16 99 99 160 160 242 242> 857 20G
VStem: 90 108<156 592 592 592> 99 143<828.5 841 841 846>
LayerCount: 2
Fore
SplineSet
21 -37 m 1,0,-1
 -15 57 l 1,1,2
 90 57 90 57 90 156 c 2,3,-1
 90 592 l 1,4,-1
 30 594 l 1,5,-1
 30 700 l 1,6,-1
 198 700 l 1,7,-1
 198 139 l 2,8,9
 198 44 198 44 160 4 c 128,-1,10
 122 -36 122 -36 21 -37 c 1,0,-1
242 846 m 1,11,-1
 242 841 l 2,12,13
 242 794 242 794 209 761 c 128,-1,14
 176 728 176 728 129 728 c 128,-1,15
 82 728 82 728 49 761 c 128,-1,16
 16 794 16 794 16 841 c 2,17,-1
 16 846 l 1,18,-1
 99 846 l 1,19,-1
 99 841 l 2,20,21
 99 806 99 806 129 806 c 0,22,23
 143 806 143 806 151.5 815.5 c 128,-1,24
 160 825 160 825 160 841 c 2,25,-1
 160 846 l 1,26,-1
 242 846 l 1,11,-1
EndSplineSet
EndChar

StartChar: Zdotaccent
Encoding: 379 379 224
Width: 550
Flags: HMW
HStem: 0 80 634 80 675 104
VStem: 31 487<0 101 101 101> 222 119
LayerCount: 2
Fore
SplineSet
518 0 m 1,0,-1
 31 0 l 1,1,-1
 31 101 l 1,2,-1
 373 590 l 1,3,-1
 44 590 l 1,4,-1
 44 700 l 1,5,-1
 512 700 l 1,6,-1
 512 590 l 1,7,-1
 168 104 l 1,8,-1
 518 104 l 1,9,-1
 518 0 l 1,0,-1
288 726 m 0,10,11
 264 726 264 726 246 744 c 128,-1,12
 228 762 228 762 228 786 c 0,13,14
 228 809 228 809 246 826.5 c 128,-1,15
 264 844 264 844 288 844 c 0,16,17
 311 844 311 844 328.5 826.5 c 128,-1,18
 346 809 346 809 346 786 c 0,19,20
 346 762 346 762 328.5 744 c 128,-1,21
 311 726 311 726 288 726 c 0,10,11
EndSplineSet
EndChar

StartChar: hbar
Encoding: 295 295 225
Width: 547
Flags: HMW
HStem: 0 21G<139 249 139 139 398 508 398 398> 460 49 694 20G
VStem: 78 234<536 641 536 641> 139 56 139 110<0 389 0 497 497 536 641 700> 398 110<0 307 307 346> 453 55
LayerCount: 2
Fore
SplineSet
508 0 m 1,0,-1
 398 0 l 1,1,-1
 398 307 l 2,2,3
 398 353 398 353 379.5 378 c 128,-1,4
 361 403 361 403 335 405.5 c 0,5,6
 326.333333333 406.333333333 326.333333333 406.333333333 318 406.333333333 c 0,7,8
 301.333333333 406.333333333 301.333333333 406.333333333 286 403 c 0,9,10
 263 398 263 398 249 389 c 1,11,-1
 249 0 l 1,12,-1
 139 0 l 1,13,-1
 139 536 l 1,14,-1
 78 536 l 1,15,-1
 78 641 l 1,16,-1
 139 641 l 1,17,-1
 139 700 l 1,18,-1
 249 700 l 1,19,-1
 249 641 l 1,20,-1
 312 641 l 1,21,-1
 312 536 l 1,22,-1
 249 536 l 1,23,-1
 249 497 l 1,24,25
 277 509 277 509 323 510 c 0,26,27
 325.19047619 510.047619048 325.19047619 510.047619048 327.399092971 510.047619048 c 0,28,29
 371.571428571 510.047619048 371.571428571 510.047619048 423 491 c 1,30,31
 508 452 508 452 508 346 c 2,32,-1
 508 0 l 1,0,-1
EndSplineSet
EndChar

StartChar: hcircumflex
Encoding: 293 293 226
Width: 582
Flags: HMW
HStem: 346 21G<522 522> 460 49 694 20G 730 142
VStem: 82 251 263 0<0 0 389 389 497 497 700 700> 412 110<0 307 307 346>
LayerCount: 2
Fore
SplineSet
354 770 m 1,0,-1
 287 731 l 1,1,-1
 211 814 l 1,2,-1
 130 731 l 1,3,-1
 64 770 l 1,4,-1
 212 911 l 1,5,-1
 354 770 l 1,0,-1
522 0 m 1,6,-1
 412 0 l 1,7,-1
 412 307 l 2,8,9
 412 353 412 353 393.5 378 c 128,-1,10
 375 403 375 403 349 405.5 c 0,11,12
 340.333333333 406.333333333 340.333333333 406.333333333 332 406.333333333 c 0,13,14
 315.333333333 406.333333333 315.333333333 406.333333333 300 403 c 0,15,16
 277 398 277 398 263 389 c 1,17,-1
 263 0 l 1,18,-1
 153 0 l 1,19,-1
 153 700 l 1,20,-1
 263 700 l 1,21,-1
 263 497 l 1,22,23
 291 509 291 509 337 510 c 0,24,25
 339.19047619 510.047619048 339.19047619 510.047619048 341.399092971 510.047619048 c 0,26,27
 385.571428571 510.047619048 385.571428571 510.047619048 437 491 c 1,28,29
 522 452 522 452 522 346 c 2,30,-1
 522 0 l 1,6,-1
EndSplineSet
EndChar

StartChar: scedilla
Encoding: 351 351 227
Width: 431
Flags: HMW
HStem: -232 69<201.5 225.5 201.5 229.5> -98 50 454 75
VStem: 36 110<127 138> 48 119 249 93 290 116<130 195.5> 299 32
LayerCount: 2
Fore
SplineSet
100 -211 m 1,0,-1
 134 -138 l 1,1,2
 171 -163 171 -163 212 -163 c 0,3,4
 236 -163 236 -163 254 -153.5 c 128,-1,5
 272 -144 272 -144 272 -123 c 128,-1,6
 272 -102 272 -102 252 -96 c 0,7,8
 246.545454545 -94.3636363636 246.545454545 -94.3636363636 239.975206612 -94.3636363636 c 0,9,10
 222.454545455 -94.3636363636 222.454545455 -94.3636363636 197 -106 c 1,11,-1
 153 -128 l 1,12,-1
 118 -78 l 1,13,-1
 171 -10 l 1,14,15
 108 1 108 1 73 39 c 128,-1,16
 38 77 38 77 36 127 c 1,17,-1
 146 138 l 1,18,19
 146 120 146 120 164.5 104 c 128,-1,20
 183 88 183 88 221 88 c 0,21,22
 254 88 254 88 272 104.5 c 128,-1,23
 290 121 290 121 290 143 c 0,24,25
 290 172 290 172 266.5 189.5 c 128,-1,26
 243 207 243 207 209 217.5 c 128,-1,27
 175 228 175 228 140.5 241.5 c 128,-1,28
 106 255 106 255 79.5 286 c 128,-1,29
 53 317 53 317 48 365 c 0,30,31
 47.4736842105 370.894736842 47.4736842105 370.894736842 47.4736842105 376.67867036 c 0,32,33
 47.4736842105 425.842105263 47.4736842105 425.842105263 85.5 467 c 0,34,35
 128 513 128 513 219 513 c 0,36,37
 251 513 251 513 279 505.5 c 128,-1,38
 307 498 307 498 319 491 c 2,39,-1
 331 484 l 1,40,-1
 299 382 l 1,41,42
 276 405 276 405 219 405 c 0,43,44
 191 405 191 405 177.5 397 c 128,-1,45
 164 389 164 389 165.5 379.5 c 128,-1,46
 167 370 167 370 167 363 c 1,47,48
 170 348 170 348 196.5 335.5 c 128,-1,49
 223 323 223 323 257 311 c 128,-1,50
 291 299 291 299 325 281 c 128,-1,51
 359 263 359 263 382.5 227 c 128,-1,52
 406 191 406 191 406 141 c 0,53,54
 406 79 406 79 363.5 34.5 c 128,-1,55
 321 -10 321 -10 238 -14 c 1,56,-1
 222 -38 l 1,57,58
 241 -31 241 -31 256 -31 c 0,59,60
 290 -31 290 -31 316 -55.5 c 128,-1,61
 342 -80 342 -80 342 -123 c 0,62,63
 342 -178 342 -178 297.5 -205 c 128,-1,64
 253 -232 253 -232 202 -232 c 0,65,66
 157 -232 157 -232 100 -211 c 1,0,-1
EndSplineSet
EndChar

StartChar: gbreve
Encoding: 287 287 228
Width: 494
Flags: HMW
HStem: -64 158<233 455> -12 188<78 289.5> 401 89<234 346> 532 78<274 291 274 313> 661 20G
VStem: 78 267<231 315 315 325 325 339> 169 226<645 650 614 650> 345 110<-46 8 8 8 231 315 315 339>
LayerCount: 2
Fore
SplineSet
395 650 m 1,0,-1
 395 645 l 2,1,2
 395 598 395 598 361.5 565 c 128,-1,3
 328 532 328 532 282 532 c 128,-1,4
 236 532 236 532 202.5 565 c 128,-1,5
 169 598 169 598 169 645 c 2,6,-1
 169 650 l 1,7,-1
 252 650 l 1,8,-1
 252 645 l 2,9,10
 252 610 252 610 282 610 c 0,11,12
 296 610 296 610 304.5 619.5 c 128,-1,13
 313 629 313 629 313 645 c 2,14,-1
 313 650 l 1,15,-1
 395 650 l 1,0,-1
298 -210 m 1,16,-1
 272 -124 l 1,17,18
 306 -124 306 -124 325.5 -104.5 c 128,-1,19
 345 -85 345 -85 345 -46 c 2,20,-1
 345 8 l 1,21,22
 318 -12 318 -12 264 -12 c 0,23,24
 176 -12 176 -12 127 36 c 128,-1,25
 78 84 78 84 78 176 c 2,26,-1
 78 325 l 2,27,28
 78 413 78 413 129.5 461.5 c 128,-1,29
 181 510 181 510 268 510 c 0,30,31
 296 510 296 510 318 503.5 c 128,-1,32
 340 497 340 497 346 490 c 1,33,-1
 367 501 l 1,34,-1
 455 501 l 1,35,-1
 455 -64 l 2,36,37
 455 -210 455 -210 298 -210 c 1,16,-1
345 231 m 2,38,-1
 345 315 l 2,39,40
 345 401 345 401 264 401 c 0,41,42
 223 401 223 401 205.5 377.5 c 128,-1,43
 188 354 188 354 188 320 c 2,44,-1
 188 191 l 2,45,46
 188 94 188 94 264 94 c 0,47,48
 313 94 313 94 329 126 c 128,-1,49
 345 158 345 158 345 231 c 2,38,-1
EndSplineSet
EndChar

StartChar: jcircumflex
Encoding: 309 309 229
Width: 407
Flags: HMW
HStem: -209 43 -209 85<117 183.5> 457 52 654 67
VStem: 188 110<-35 399 399 399> 194 56
LayerCount: 2
Fore
SplineSet
368 578 m 1,0,-1
 301 539 l 1,1,-1
 225 622 l 1,2,-1
 144 539 l 1,3,-1
 78 578 l 1,4,-1
 226 719 l 1,5,-1
 368 578 l 1,0,-1
188 -35 m 2,6,-1
 188 399 l 1,7,-1
 137 409 l 1,8,-1
 115 501 l 1,9,-1
 298 501 l 1,10,-1
 298 -75 l 1,11,12
 296 -131 296 -131 249.5 -170 c 128,-1,13
 203 -209 203 -209 147 -209 c 1,14,-1
 117 -124 l 1,15,16
 120 -124 120 -124 124.5 -123 c 128,-1,17
 129 -122 129 -122 141.5 -116.5 c 128,-1,18
 154 -111 154 -111 163.5 -102.5 c 128,-1,19
 173 -94 173 -94 180.5 -76.5 c 128,-1,20
 188 -59 188 -59 188 -35 c 2,6,-1
EndSplineSet
EndChar

StartChar: zdotaccent
Encoding: 380 380 230
Width: 484
Flags: HMW
HStem: 0 75 442 75 484 104
VStem: 87 358 195 119
LayerCount: 2
Fore
SplineSet
445 0 m 1,0,-1
 78 0 l 1,1,-1
 78 104 l 1,2,-1
 287 397 l 1,3,-1
 87 397 l 1,4,-1
 87 501 l 1,5,-1
 435 501 l 1,6,-1
 435 401 l 1,7,-1
 225 104 l 1,8,-1
 445 104 l 1,9,-1
 445 0 l 1,0,-1
261 535 m 0,10,11
 237 535 237 535 219 553 c 128,-1,12
 201 571 201 571 201 595 c 0,13,14
 201 618 201 618 219 635.5 c 128,-1,15
 237 653 237 653 261 653 c 0,16,17
 284 653 284 653 301.5 635.5 c 128,-1,18
 319 618 319 618 319 595 c 0,19,20
 319 571 319 571 301.5 553 c 128,-1,21
 284 535 284 535 261 535 c 0,10,11
EndSplineSet
EndChar

StartChar: Gdotaccent
Encoding: 288 288 231
Width: 566
Flags: HMW
HStem: -17 80 678 104 694 20G
VStem: 74 110 227 119 385 110
LayerCount: 2
Fore
SplineSet
293 729 m 0,0,1
 269 729 269 729 251 747 c 128,-1,2
 233 765 233 765 233 789 c 0,3,4
 233 812 233 812 251 829.5 c 128,-1,5
 269 847 269 847 293 847 c 0,6,7
 316 847 316 847 333.5 829.5 c 128,-1,8
 351 812 351 812 351 789 c 0,9,10
 351 765 351 765 333.5 747 c 128,-1,11
 316 729 316 729 293 729 c 0,0,1
496 0 m 1,12,-1
 392 0 l 1,13,-1
 386 8 l 1,14,15
 334 -10 334 -10 296 -10 c 0,16,17
 208 -10 208 -10 146.5 40 c 128,-1,18
 85 90 85 90 85 189 c 2,19,-1
 85 503 l 2,20,21
 85 631 85 631 172 684 c 1,22,23
 217.161290323 709.290322581 217.161290323 709.290322581 278.638917794 709.290322581 c 0,24,25
 285.225806452 709.290322581 285.225806452 709.290322581 292 709 c 0,26,27
 362 706 362 706 421 676 c 1,28,-1
 388 577 l 1,29,30
 340 595 340 595 297 595 c 0,31,32
 249 595 249 595 222 577.5 c 128,-1,33
 195 560 195 560 195 512 c 2,34,-1
 195 187 l 2,35,36
 195 139 195 139 220.5 120 c 128,-1,37
 246 101 246 101 295 101 c 0,38,39
 386 101 386 101 386 186 c 2,40,-1
 386 195 l 1,41,-1
 329 195 l 1,42,-1
 294 300 l 1,43,-1
 496 300 l 1,44,-1
 496 0 l 1,12,-1
EndSplineSet
EndChar

